<svg width="88" height="79" viewBox="0 0 88 79" fill="none" xmlns="http://www.w3.org/2000/svg">
<path d="M52.998 64.0623L70.3541 67.0027C75.5715 67.8924 80.427 65.2988 82.4023 60.9862L79.9143 66.4448C77.9389 70.7575 73.0985 73.3511 67.8661 72.4614L50.51 69.521L52.998 64.0623Z" fill="url(#paint0_linear_7_304)"/>
<path d="M0.236399 49.8879L4.91093 14.9797C5.04665 13.9543 5.33315 12.9742 5.74029 12.0845L8.22834 6.64096C7.8212 7.53063 7.5347 8.51077 7.39899 9.53615L2.72446 44.4444C1.92526 50.4308 6.38869 56.1608 12.6918 57.2315L30.0479 60.1719L27.5598 65.6155L10.2037 62.675C3.90063 61.6044 -0.562796 55.8743 0.236399 49.8879Z" fill="url(#paint1_linear_7_304)"/>
<path d="M20.2624 0.622976C13.9594 -0.447643 8.18405 3.53325 7.38486 9.53475L2.71033 44.443C1.91113 50.4294 6.37456 56.1594 12.6776 57.2301L30.0337 60.1705L37.4074 71.4346C38.0257 72.3846 39.0058 72.9727 40.0463 73.1536C41.0867 73.3346 42.1724 73.0933 43.0168 72.3846L52.9992 64.0609L70.3553 67.0013C76.6584 68.072 82.4337 64.076 83.2329 58.0896L87.9074 23.1964C88.7066 17.1949 84.2432 11.48 77.9401 10.4093L20.2624 0.622976Z" fill="url(#paint2_linear_7_304)"/>
<path d="M20.2207 0.869904C14.0427 -0.179476 8.41142 3.7212 7.63281 9.56815L2.95801 44.4763C2.17847 50.317 6.53694 55.933 12.7197 56.9832L30.0752 59.9236L30.1826 59.9422L30.2432 60.034L37.6162 71.2976L37.6172 71.2986C38.1945 72.1855 39.1114 72.737 40.0889 72.907C41.0637 73.0766 42.0737 72.8501 42.8564 72.1931V72.1922L52.8389 63.8689L52.9277 63.7947L53.041 63.8142L70.3975 66.7547C76.3821 67.7711 81.8545 64.1285 82.8984 58.5974L82.9854 58.0564L87.6592 23.1629C88.4386 17.3074 84.0812 11.7063 77.8984 10.656L20.2207 0.869904Z" stroke="#EE0003" stroke-opacity="0.5" stroke-width="0.5"/>
<path d="M37.241 15.8088C41.7346 16.5779 45.2933 19.6993 46.6655 23.6048C49.0028 20.3326 53.2249 18.5231 57.7185 19.2921C64.0216 20.3627 68.485 26.0777 67.6707 32.0641C66.8112 38.5029 61.2319 42.3632 56.4519 45.0171C53.1646 46.8417 50.0432 48.1385 49.6964 48.2742L42.9862 51.0186L37.3014 46.1631C37.0149 45.9068 34.376 43.6449 31.707 40.8101C27.8467 36.6934 23.504 31.1594 24.3785 24.7206C25.1777 18.7342 30.938 14.7533 37.241 15.8239" fill="white"/>
<path d="M30.0335 60.1716L37.4072 71.4357C38.0254 72.3857 39.0056 72.9738 40.046 73.1547C41.0865 73.3357 42.1722 73.0944 43.0166 72.3857L52.999 64.062L50.511 69.5206L40.5286 77.8443C39.6841 78.553 38.5984 78.7792 37.558 78.6134C36.5175 78.4324 35.5374 77.8443 34.9191 76.8943L27.5454 65.6302L30.0335 60.1866V60.1716Z" fill="url(#paint3_linear_7_304)"/>
<path style="mix-blend-mode:overlay" opacity="0.51" d="M2.71029 44.4294L7.38483 9.52117C8.18402 3.51967 13.9593 -0.461223 20.2624 0.609396L70.4307 9.12911L7.33958 54.9094C4.08249 52.4665 2.16744 48.5007 2.72537 44.4143L2.71029 44.4294Z" fill="url(#paint4_linear_7_304)"/>
<defs>
<linearGradient id="paint0_linear_7_304" x1="82.4023" y1="66.8218" x2="50.51" y2="66.8218" gradientUnits="userSpaceOnUse">
<stop stop-color="#E71717"/>
<stop offset="1" stop-color="#C20505"/>
</linearGradient>
<linearGradient id="paint1_linear_7_304" x1="30.0328" y1="36.1207" x2="0.145926" y2="36.1207" gradientUnits="userSpaceOnUse">
<stop stop-color="#E71717"/>
<stop offset="1" stop-color="#C20505"/>
</linearGradient>
<linearGradient id="paint2_linear_7_304" x1="68.6363" y1="12.7014" x2="3.04204" y2="72.0679" gradientUnits="userSpaceOnUse">
<stop stop-color="#C50005"/>
<stop offset="1" stop-color="#A60C0F"/>
</linearGradient>
<linearGradient id="paint3_linear_7_304" x1="52.999" y1="69.4151" x2="27.5454" y2="69.4151" gradientUnits="userSpaceOnUse">
<stop stop-color="#E71717"/>
<stop offset="1" stop-color="#C20505"/>
</linearGradient>
<linearGradient id="paint4_linear_7_304" x1="70.4307" y1="27.6764" x2="2.61982" y2="27.6764" gradientUnits="userSpaceOnUse">
<stop stop-color="white"/>
<stop offset="0.09" stop-color="white" stop-opacity="0.94"/>
<stop offset="0.27" stop-color="white" stop-opacity="0.79"/>
<stop offset="0.51" stop-color="white" stop-opacity="0.55"/>
<stop offset="0.81" stop-color="white" stop-opacity="0.23"/>
<stop offset="1" stop-color="white" stop-opacity="0"/>
</linearGradient>
</defs>
</svg>
