<svg width="44" height="44" viewBox="0 0 44 44" fill="none" xmlns="http://www.w3.org/2000/svg">
<circle cx="22" cy="22" r="21.5" fill="#FBFBFB" stroke="#A60C0F"/>
<path d="M24.147 21.9931L19.2365 17.3406C19.0701 17.1828 18.9915 16.9988 19.0007 16.7886C19.01 16.5783 19.0978 16.3943 19.2643 16.2366C19.4307 16.0789 19.6296 16 19.8608 16C20.092 16 20.2908 16.0789 20.4572 16.2366L25.9503 21.4411C26.0428 21.5287 26.1076 21.6163 26.1445 21.7039C26.1815 21.7916 26.2 21.8879 26.2 21.9931C26.2 22.0982 26.1815 22.1946 26.1445 22.2822C26.1076 22.3699 26.0428 22.4574 25.9503 22.5451L20.4295 27.7759C20.263 27.9336 20.0688 28.0081 19.8469 27.9993C19.6249 27.9905 19.4307 27.9073 19.2643 27.7496C19.0978 27.5919 19.0146 27.4035 19.0146 27.1845C19.0146 26.9654 19.0978 26.777 19.2643 26.6193L24.147 21.9931Z" fill="#A60C0F"/>
</svg>
