
<svg width="69" height="15" viewBox="0 0 69 15" fill="none" xmlns="http://www.w3.org/2000/svg">
    <path fill-rule="evenodd" clip-rule="evenodd"
          d="M66.6982 0.384078C65.8193 0.384078 65.1045 1.09642 65.1045 1.97521C65.1045 2.85267 65.8193 3.567 66.6982 3.567C67.5785 3.567 68.2926 2.85267 68.2926 1.97521C68.2926 1.09642 67.5785 0.384078 66.6982 0.384078ZM66.6982 3.95042C65.6083 3.95042 64.7198 3.06398 64.7198 1.97521C64.7198 0.886435 65.6083 0 66.6982 0C67.7894 0 68.6767 0.886435 68.6767 1.97521C68.6767 3.06398 67.7894 3.95042 66.6982 3.95042ZM17.2292 10.3052C15.6927 10.3052 14.4408 9.05596 14.4408 7.52065C14.4408 5.98533 15.6927 4.73741 17.2292 4.73741C18.7677 4.73741 20.0151 5.98699 20.0151 7.52131C20.0151 9.05596 18.7651 10.3052 17.2292 10.3052ZM17.2239 0.159711C13.1649 0.159711 9.85591 3.46225 9.85391 7.52065C9.85591 11.5817 13.1662 14.8839 17.2292 14.8832C21.2883 14.8846 24.5976 11.585 24.6053 7.52397C24.6033 3.46956 21.2883 0.163698 17.2239 0.159711ZM0.286241 14.5149C0.115851 14.5192 -0.0182638 14.3906 0.00203648 14.2039C0.00203648 14.2039 0.451971 9.92289 0.695575 7.00942C0.924869 4.2624 1.18112 0.76151 1.18112 0.76151C1.19144 0.577778 1.3392 0.44953 1.51724 0.447537H5.52805C5.72173 0.44953 5.83621 0.587081 5.81026 0.76151C5.81026 0.76151 5.32871 5.18073 5.1663 6.90775C4.9197 9.55177 4.80223 11.0449 4.80223 11.0449C4.79424 11.1708 4.88742 11.2778 5.01488 11.2778C5.01488 11.2778 6.73409 11.2715 9.23768 11.1804C9.50491 11.1688 9.59377 11.2778 9.57447 11.5323C9.56515 11.6835 9.33719 14.2448 9.33719 14.2448C9.3262 14.4321 9.15781 14.5694 8.99574 14.5531C8.99574 14.5531 6.68783 14.5149 4.83651 14.492C2.98618 14.4743 0.286241 14.5149 0.286241 14.5149ZM30.7405 0.510896C28.8679 0.510896 25.3632 0.453418 25.3632 0.453418C25.1466 0.462388 25.0258 0.573026 25.0218 0.761743C25.0218 0.761743 24.7958 3.28848 24.7795 3.52105C24.7659 3.75595 24.9226 3.83436 25.0624 3.83071C26.9823 3.79316 28.0209 3.79017 28.0209 3.79017C28.1497 3.79017 28.2472 3.89583 28.2419 4.02242C28.2419 4.02242 28.0345 6.95815 27.2378 14.1599C27.2155 14.3842 27.326 14.5497 27.6002 14.557C27.8239 14.564 31.267 14.564 31.451 14.557C31.6876 14.5497 31.8453 14.4051 31.8623 14.1722C32.3705 6.93124 32.654 4.01311 32.654 4.01311C32.669 3.88487 32.7855 3.78154 32.9133 3.77423L35.6082 3.83436C35.7923 3.83835 35.9214 3.69183 35.937 3.5277C35.9487 3.40876 36.181 0.761743 36.181 0.761743C36.1966 0.579007 36.0884 0.462388 35.8911 0.45076C35.8911 0.45076 32.682 0.514551 30.7405 0.510896ZM43.111 0.510896C41.237 0.510896 37.8129 0.453418 37.8129 0.453418C37.5993 0.462388 37.4788 0.573026 37.4748 0.761743C37.4748 0.761743 37.2448 3.28848 37.2312 3.52105C37.2149 3.75595 37.373 3.83436 37.5121 3.83071C39.4293 3.79316 40.3874 3.79017 40.3874 3.79017C40.5175 3.79017 40.6177 3.89583 40.611 4.02242C40.611 4.02242 40.4037 6.95815 39.609 14.1599C39.584 14.3842 39.6922 14.5497 39.9707 14.557C40.1924 14.564 43.6348 14.564 43.8161 14.557C44.0541 14.5497 44.2135 14.4051 44.2308 14.1722C44.7386 6.93124 45.0198 4.01311 45.0198 4.01311C45.0368 3.88487 45.1553 3.78154 45.2838 3.77423C45.2838 3.77423 46.0761 3.79017 48.0566 3.83436C48.2439 3.83835 48.3721 3.69183 48.3874 3.5277C48.3974 3.40876 48.6286 0.761743 48.6286 0.761743C48.6483 0.579007 48.5371 0.462388 48.3428 0.45076C48.3428 0.45076 45.0505 0.514551 43.111 0.510896ZM53.1818 7.52065C53.1832 9.05596 54.4338 10.3052 55.9683 10.3052C57.5035 10.3052 58.7534 9.05596 58.7581 7.52131C58.7568 5.98699 57.5035 4.73741 55.9656 4.73741C54.4338 4.73741 53.1832 5.98533 53.1818 7.52065ZM48.5956 7.52065C48.598 3.46225 51.9046 0.159711 55.9643 0.159711C60.03 0.163698 63.341 3.46956 63.3417 7.52397C63.3377 11.585 60.03 14.8846 55.9703 14.8832C51.9066 14.8839 48.598 11.5817 48.5956 7.52065ZM66.6664 1.23476H66.4291V1.85008H66.6664C66.8907 1.85008 67.0052 1.77799 67.0052 1.54176C67.0052 1.30487 66.8907 1.23476 66.6664 1.23476ZM67.0947 2.80828L66.6528 2.11987H66.4291V2.80828H66.0527V0.968633H66.7113C67.13 0.968633 67.4009 1.12113 67.4009 1.53644C67.4009 1.76802 67.2794 1.94677 67.0368 2.03614L67.0312 2.05176L67.5659 2.80828H67.0947Z"
          fill="white"/>
</svg>