<svg width="33" height="32" viewBox="0 0 33 32" fill="none" xmlns="http://www.w3.org/2000/svg">
    <circle cx="16.5" cy="16" r="15.5" fill="#A60C0F" stroke="#FEA500"/>
    <g filter="url(#filter0_di_9891_3677)">
        <path d="M24.2265 24.3778C24.2591 24.2167 24.2397 24.0494 24.171 23.9L21.7281 18.246C21.6465 18.0685 21.6258 17.8691 21.6693 17.6786C21.7128 17.4882 21.818 17.3174 21.9687 17.1928L26.2437 13.3866C26.3608 13.2788 26.4428 13.1384 26.4791 12.9836C26.5154 12.8287 26.5043 12.6666 26.4473 12.5181C26.3913 12.372 26.2925 12.2462 26.1637 12.1572C26.0349 12.0682 25.8822 12.0201 25.7255 12.0193H20.5807C20.4006 12.0176 20.2248 11.9645 20.0739 11.8663C19.9231 11.768 19.8035 11.6288 19.7294 11.4649L17.194 5.45988C17.1301 5.32252 17.0282 5.20624 16.9003 5.12477C16.7725 5.04329 16.6239 5 16.4722 5C16.3205 5 16.172 5.04329 16.0441 5.12477C15.9163 5.20624 15.8144 5.32252 15.7505 5.45988L13.2151 11.3726C13.1409 11.5364 13.0214 11.6757 12.8705 11.7739C12.7197 11.8721 12.5439 11.9252 12.3638 11.9269H7.21895C7.06979 11.9399 6.92756 11.9956 6.80937 12.0874C6.69118 12.1792 6.60206 12.3031 6.55272 12.4442C6.49572 12.5927 6.48465 12.7548 6.52094 12.9096C6.55723 13.0645 6.63922 13.2049 6.75629 13.3126L11.0313 17.1005C11.182 17.2251 11.2872 17.3958 11.3307 17.5863C11.3742 17.7767 11.3535 17.9761 11.2719 18.1537L8.7735 23.9C8.70479 24.0494 8.68534 24.2167 8.71797 24.3778C8.75059 24.5389 8.83361 24.6855 8.95504 24.7964C9.07648 24.9074 9.23007 24.977 9.39367 24.9952C9.55728 25.0134 9.72245 24.9793 9.86539 24.8978L16.0096 21.4426C16.1502 21.3615 16.3098 21.3188 16.4722 21.3188C16.6347 21.3188 16.7942 21.3615 16.9349 21.4426L23.0791 24.8978C23.222 24.9793 23.3872 25.0134 23.5508 24.9952C23.7144 24.977 23.868 24.9074 23.9894 24.7964C24.1109 24.6855 24.1939 24.5389 24.2265 24.3778Z" fill="url(#paint0_linear_9891_3677)"/>
    </g>
    <defs>
        <filter id="filter0_di_9891_3677" x="3.83333" y="2.33333" width="25.3333" height="25.3333" filterUnits="userSpaceOnUse" color-interpolation-filters="sRGB">
            <feFlood flood-opacity="0" result="BackgroundImageFix"/>
            <feColorMatrix in="SourceAlpha" type="matrix" values="0 0 0 0 0 0 0 0 0 0 0 0 0 0 0 0 0 0 127 0" result="hardAlpha"/>
            <feOffset/>
            <feGaussianBlur stdDeviation="1.33333"/>
            <feComposite in2="hardAlpha" operator="out"/>
            <feColorMatrix type="matrix" values="0 0 0 0 0.996078 0 0 0 0 0.717647 0 0 0 0 0 0 0 0 1 0"/>
            <feBlend mode="normal" in2="BackgroundImageFix" result="effect1_dropShadow_9891_3677"/>
            <feBlend mode="normal" in="SourceGraphic" in2="effect1_dropShadow_9891_3677" result="shape"/>
            <feColorMatrix in="SourceAlpha" type="matrix" values="0 0 0 0 0 0 0 0 0 0 0 0 0 0 0 0 0 0 127 0" result="hardAlpha"/>
            <feOffset/>
            <feGaussianBlur stdDeviation="0.738462"/>
            <feComposite in2="hardAlpha" operator="arithmetic" k2="-1" k3="1"/>
            <feColorMatrix type="matrix" values="0 0 0 0 1 0 0 0 0 1 0 0 0 0 1 0 0 0 0.65 0"/>
            <feBlend mode="normal" in2="shape" result="effect2_innerShadow_9891_3677"/>
        </filter>
        <linearGradient id="paint0_linear_9891_3677" x1="16.5935" y1="4.93651" x2="16.5935" y2="25" gradientUnits="userSpaceOnUse">
            <stop stop-color="#FEB700"/>
            <stop offset="0.09" stop-color="#FEB700"/>
            <stop offset="0.61" stop-color="#FF7800"/>
            <stop offset="1" stop-color="#C59000"/>
        </linearGradient>
    </defs>
</svg>
