<svg width="32" height="32" viewBox="0 0 32 32" fill="none" xmlns="http://www.w3.org/2000/svg">
    <circle opacity="0.5" cx="16" cy="16" r="15.5" stroke="white"/>
    <path d="M22.1812 23.5022C22.2073 23.3734 22.1918 23.2395 22.1368 23.1201L20.1825 18.5969C20.1172 18.4549 20.1006 18.2953 20.1354 18.143C20.1702 17.9906 20.2544 17.854 20.375 17.7543L23.795 14.7093C23.8886 14.623 23.9542 14.5107 23.9833 14.3869C24.0123 14.263 24.0034 14.1333 23.9578 14.0145C23.9131 13.8977 23.834 13.797 23.731 13.7258C23.6279 13.6546 23.5057 13.6161 23.3804 13.6154H19.2646C19.1205 13.6141 18.9798 13.5716 18.8592 13.493C18.7385 13.4145 18.6428 13.3031 18.5835 13.172L16.5552 8.36794C16.5041 8.25804 16.4226 8.16503 16.3203 8.09984C16.218 8.03466 16.0991 8.00003 15.9778 8.00003C15.8564 8.00003 15.7376 8.03466 15.6353 8.09984C15.533 8.16503 15.4515 8.25804 15.4004 8.36794L13.3721 13.0981C13.3127 13.2292 13.2171 13.3406 13.0964 13.4191C12.9758 13.4977 12.8351 13.5402 12.691 13.5415H8.57516C8.45583 13.5519 8.34205 13.5965 8.2475 13.6699C8.15295 13.7434 8.08165 13.8425 8.04217 13.9554C7.99657 14.0742 7.98772 14.2039 8.01675 14.3277C8.04578 14.4516 8.11137 14.5639 8.20503 14.6501L11.625 17.6804C11.7456 17.7801 11.8298 17.9167 11.8646 18.069C11.8994 18.2214 11.8828 18.3809 11.8175 18.523L9.8188 23.1201C9.76383 23.2395 9.74827 23.3734 9.77437 23.5022C9.80048 23.6311 9.86689 23.7484 9.96403 23.8372C10.0612 23.9259 10.1841 23.9816 10.3149 23.9962C10.4458 24.0108 10.578 23.9835 10.6923 23.9183L15.6077 21.1541C15.7202 21.0892 15.8478 21.0551 15.9778 21.0551C16.1077 21.0551 16.2354 21.0892 16.3479 21.1541L21.2633 23.9183C21.3776 23.9835 21.5098 24.0108 21.6406 23.9962C21.7715 23.9816 21.8944 23.9259 21.9916 23.8372C22.0887 23.7484 22.1551 23.6311 22.1812 23.5022Z" stroke="#FEA500" stroke-linecap="round" stroke-linejoin="round"/>
</svg>