<svg width="77" height="58" viewBox="0 0 77 58" fill="none" xmlns="http://www.w3.org/2000/svg">
<path d="M38.5 14C39.0523 14 39.5 13.5523 39.5 13C39.5 12.4477 39.0523 12 38.5 12C37.9477 12 37.5 12.4477 37.5 13C37.5 13.5523 37.9477 14 38.5 14Z" stroke="white" stroke-width="2" stroke-linecap="round" stroke-linejoin="round"/>
<path d="M45.5 14C46.0523 14 46.5 13.5523 46.5 13C46.5 12.4477 46.0523 12 45.5 12C44.9477 12 44.5 12.4477 44.5 13C44.5 13.5523 44.9477 14 45.5 14Z" stroke="white" stroke-width="2" stroke-linecap="round" stroke-linejoin="round"/>
<path d="M31.5 14C32.0523 14 32.5 13.5523 32.5 13C32.5 12.4477 32.0523 12 31.5 12C30.9477 12 30.5 12.4477 30.5 13C30.5 13.5523 30.9477 14 31.5 14Z" stroke="white" stroke-width="2" stroke-linecap="round" stroke-linejoin="round"/>
<path d="M38.5 21C39.0523 21 39.5 20.5523 39.5 20C39.5 19.4477 39.0523 19 38.5 19C37.9477 19 37.5 19.4477 37.5 20C37.5 20.5523 37.9477 21 38.5 21Z" stroke="white" stroke-width="2" stroke-linecap="round" stroke-linejoin="round"/>
<path d="M45.5 21C46.0523 21 46.5 20.5523 46.5 20C46.5 19.4477 46.0523 19 45.5 19C44.9477 19 44.5 19.4477 44.5 20C44.5 20.5523 44.9477 21 45.5 21Z" stroke="white" stroke-width="2" stroke-linecap="round" stroke-linejoin="round"/>
<path d="M31.5 21C32.0523 21 32.5 20.5523 32.5 20C32.5 19.4477 32.0523 19 31.5 19C30.9477 19 30.5 19.4477 30.5 20C30.5 20.5523 30.9477 21 31.5 21Z" stroke="white" stroke-width="2" stroke-linecap="round" stroke-linejoin="round"/>
<path d="M38.5 28C39.0523 28 39.5 27.5523 39.5 27C39.5 26.4477 39.0523 26 38.5 26C37.9477 26 37.5 26.4477 37.5 27C37.5 27.5523 37.9477 28 38.5 28Z" stroke="white" stroke-width="2" stroke-linecap="round" stroke-linejoin="round"/>
<path d="M45.5 28C46.0523 28 46.5 27.5523 46.5 27C46.5 26.4477 46.0523 26 45.5 26C44.9477 26 44.5 26.4477 44.5 27C44.5 27.5523 44.9477 28 45.5 28Z" stroke="white" stroke-width="2" stroke-linecap="round" stroke-linejoin="round"/>
<path d="M31.5 28C32.0523 28 32.5 27.5523 32.5 27C32.5 26.4477 32.0523 26 31.5 26C30.9477 26 30.5 26.4477 30.5 27C30.5 27.5523 30.9477 28 31.5 28Z" stroke="white" stroke-width="2" stroke-linecap="round" stroke-linejoin="round"/>
<path d="M18.3852 38.4336H19.8384L16.8384 47H15.3618L12.3735 38.4336H13.8149L15.602 43.7598C15.6958 44.0137 15.7954 44.3418 15.9009 44.7441C16.0063 45.1426 16.0747 45.4395 16.1059 45.6348C16.1567 45.3379 16.2348 44.9941 16.3403 44.6035C16.4458 44.2129 16.5317 43.9238 16.5981 43.7363L18.3852 38.4336ZM20.4857 45.1426C20.4857 44.4707 20.722 43.9668 21.1947 43.6309C21.6713 43.291 22.3959 43.1055 23.3685 43.0742L24.4701 43.0391V42.5938C24.4701 41.8359 24.0775 41.457 23.2923 41.457C22.7416 41.457 22.142 41.6172 21.4935 41.9375L21.0599 40.9648C21.4037 40.7812 21.7787 40.6426 22.1849 40.5488C22.5951 40.4512 22.9935 40.4023 23.3802 40.4023C24.3216 40.4023 24.9857 40.7051 25.3724 41.3105C25.8412 40.7051 26.517 40.4023 27.3998 40.4023C28.2045 40.4023 28.8451 40.666 29.3216 41.1934C29.7982 41.7168 30.0365 42.4238 30.0365 43.3145V44.0586H25.8646C25.9037 45.3711 26.4916 46.0273 27.6283 46.0273C28.347 46.0273 29.0423 45.8711 29.7142 45.5586V46.6777C29.3783 46.8379 29.0423 46.9512 28.7064 47.0176C28.3744 47.084 27.9935 47.1172 27.5638 47.1172C27.017 47.1172 26.5306 47.0117 26.1048 46.8008C25.683 46.5859 25.3412 46.2637 25.0795 45.834C24.7123 46.3223 24.3392 46.6582 23.9603 46.8418C23.5853 47.0254 23.1146 47.1172 22.5482 47.1172C21.9037 47.1172 21.3978 46.9414 21.0306 46.5898C20.6673 46.2383 20.4857 45.7559 20.4857 45.1426ZM21.9154 45.1543C21.9154 45.7598 22.2396 46.0625 22.888 46.0625C23.3724 46.0625 23.7552 45.9219 24.0365 45.6406C24.3177 45.3555 24.4584 44.9648 24.4584 44.4688V43.9062L23.6673 43.9414C23.0619 43.9648 22.6185 44.0723 22.3373 44.2637C22.056 44.4512 21.9154 44.748 21.9154 45.1543ZM27.3763 41.4453C26.9388 41.4453 26.5912 41.582 26.3334 41.8555C26.0795 42.125 25.9349 42.5312 25.8998 43.0742H28.6713C28.6713 42.5664 28.556 42.168 28.3255 41.8789C28.099 41.5898 27.7826 41.4453 27.3763 41.4453ZM33.092 47H31.7151V37.8828H33.092V47ZM40.6593 40.5195V41.2754L39.5519 41.4805C39.6534 41.6172 39.7374 41.7852 39.8038 41.9844C39.8702 42.1836 39.9034 42.3945 39.9034 42.6172C39.9034 43.2852 39.673 43.8105 39.212 44.1934C38.7511 44.5762 38.1163 44.7676 37.3077 44.7676C37.1007 44.7676 36.9132 44.752 36.7452 44.7207C36.4484 44.9043 36.2999 45.1191 36.2999 45.3652C36.2999 45.5137 36.3683 45.625 36.505 45.6992C36.6456 45.7734 36.9015 45.8105 37.2726 45.8105H38.4034C39.1183 45.8105 39.6613 45.9629 40.0323 46.2676C40.4034 46.5723 40.589 47.0117 40.589 47.5859C40.589 48.3203 40.2863 48.8867 39.6808 49.2852C39.0753 49.6836 38.2003 49.8828 37.0558 49.8828C36.173 49.8828 35.4991 49.7266 35.0343 49.4141C34.5695 49.1016 34.337 48.6562 34.337 48.0781C34.337 47.6797 34.462 47.3438 34.712 47.0703C34.9659 46.8008 35.3195 46.6133 35.7726 46.5078C35.589 46.4297 35.4366 46.3047 35.3155 46.1328C35.1984 45.957 35.1398 45.7734 35.1398 45.582C35.1398 45.3398 35.2081 45.1348 35.3448 44.9668C35.4816 44.7988 35.6847 44.6328 35.9542 44.4688C35.6183 44.3242 35.3448 44.0898 35.1339 43.7656C34.9269 43.4375 34.8234 43.0547 34.8234 42.6172C34.8234 41.9141 35.0441 41.3691 35.4855 40.9824C35.9308 40.5957 36.5636 40.4023 37.3839 40.4023C37.5675 40.4023 37.7589 40.416 37.9581 40.4434C38.1613 40.4668 38.3136 40.4922 38.4152 40.5195H40.6593ZM35.5675 48.0078C35.5675 48.3047 35.7003 48.5332 35.9659 48.6934C36.2355 48.8535 36.6124 48.9336 37.0968 48.9336C37.8468 48.9336 38.4054 48.8262 38.7726 48.6113C39.1398 48.3965 39.3234 48.1113 39.3234 47.7559C39.3234 47.4746 39.2218 47.2734 39.0187 47.1523C38.8195 47.0352 38.4464 46.9766 37.8995 46.9766H36.8566C36.462 46.9766 36.1476 47.0684 35.9132 47.252C35.6827 47.4395 35.5675 47.6914 35.5675 48.0078ZM36.1593 42.6172C36.1593 43.0234 36.2628 43.3359 36.4698 43.5547C36.6808 43.7734 36.9816 43.8828 37.3722 43.8828C38.1691 43.8828 38.5675 43.457 38.5675 42.6055C38.5675 42.1836 38.4679 41.8594 38.2687 41.6328C38.0734 41.4023 37.7745 41.2871 37.3722 41.2871C36.9738 41.2871 36.671 41.4004 36.464 41.627C36.2609 41.8535 36.1593 42.1836 36.1593 42.6172ZM49.577 45.1543C49.577 45.7871 49.3466 46.2734 48.8856 46.6133C48.4247 46.9492 47.7645 47.1172 46.9052 47.1172C46.0419 47.1172 45.3485 46.9863 44.8251 46.7246V45.5352C45.5868 45.8867 46.2958 46.0625 46.952 46.0625C47.7997 46.0625 48.2235 45.8066 48.2235 45.2949C48.2235 45.1309 48.1766 44.9941 48.0829 44.8848C47.9891 44.7754 47.8348 44.6621 47.62 44.5449C47.4052 44.4277 47.1063 44.2949 46.7235 44.1465C45.9774 43.8574 45.4716 43.5684 45.2059 43.2793C44.9442 42.9902 44.8134 42.6152 44.8134 42.1543C44.8134 41.5996 45.036 41.1699 45.4813 40.8652C45.9305 40.5566 46.5399 40.4023 47.3095 40.4023C48.0712 40.4023 48.7919 40.5566 49.4716 40.8652L49.0263 41.9023C48.327 41.6133 47.7391 41.4688 47.2626 41.4688C46.536 41.4688 46.1727 41.6758 46.1727 42.0898C46.1727 42.293 46.2665 42.4648 46.454 42.6055C46.6454 42.7461 47.0595 42.9395 47.6962 43.1855C48.2313 43.3926 48.62 43.582 48.8622 43.7539C49.1044 43.9258 49.2841 44.125 49.4013 44.3516C49.5184 44.5742 49.577 44.8418 49.577 45.1543ZM54.4783 47.1172C53.658 47.1172 53.0213 46.8223 52.5681 46.2324H52.4861C52.5408 46.7793 52.5681 47.1113 52.5681 47.2285V49.8828H51.1912V40.5195H52.3045C52.3357 40.6406 52.4002 40.9297 52.4978 41.3867H52.5681C52.9978 40.7305 53.6423 40.4023 54.5017 40.4023C55.3103 40.4023 55.9392 40.6953 56.3884 41.2812C56.8416 41.8672 57.0681 42.6895 57.0681 43.748C57.0681 44.8066 56.8377 45.6328 56.3767 46.2266C55.9197 46.8203 55.2869 47.1172 54.4783 47.1172ZM54.1443 41.5273C53.5974 41.5273 53.197 41.6875 52.9431 42.0078C52.6931 42.3281 52.5681 42.8398 52.5681 43.543V43.748C52.5681 44.5371 52.6931 45.1094 52.9431 45.4648C53.1931 45.8164 53.6013 45.9922 54.1677 45.9922C54.6443 45.9922 55.0115 45.7969 55.2693 45.4062C55.5271 45.0156 55.656 44.459 55.656 43.7363C55.656 43.0098 55.5271 42.4609 55.2693 42.0898C55.0154 41.7148 54.6404 41.5273 54.1443 41.5273ZM60.1647 47H58.7877V40.5195H60.1647V47ZM58.7057 38.8027C58.7057 38.5566 58.7721 38.3672 58.9049 38.2344C59.0416 38.1016 59.235 38.0352 59.485 38.0352C59.7272 38.0352 59.9147 38.1016 60.0475 38.2344C60.1842 38.3672 60.2526 38.5566 60.2526 38.8027C60.2526 39.0371 60.1842 39.2227 60.0475 39.3594C59.9147 39.4922 59.7272 39.5586 59.485 39.5586C59.235 39.5586 59.0416 39.4922 58.9049 39.3594C58.7721 39.2227 58.7057 39.0371 58.7057 38.8027ZM63.6362 47H62.2593V37.8828H63.6362V47Z" fill="white"/>
</svg>
