<svg width="170" height="50" viewBox="0 0 170 50" fill="none" xmlns="http://www.w3.org/2000/svg">
<g clip-path="url(#clip0_213_341)">
<path d="M169.889 27.2973L167.355 13.2045C167.153 12.219 166.327 11.8952 165.681 12.0286L150.719 14.6091C150.265 14.6995 149.986 14.8328 149.595 15.1661C149.595 15.1661 145.796 18.7131 145.241 19.2701C144.686 19.8319 144.334 20.5699 144.498 21.6554L147.389 37.7954C147.597 38.7953 148.485 39.0714 149.107 38.9809C149.73 38.8905 164.479 36.3338 165.246 36.1719C166.033 36.01 166.81 35.4958 167.37 34.4532L169.643 29.6207C170.058 28.697 170.077 28.4876 169.899 27.2925L169.889 27.2973Z" fill="#FEB700"/>
<path d="M161.853 15.0566C161.438 15.3899 160.251 15.7803 159.208 15.9279C158.161 16.0755 157.654 15.9231 158.069 15.5851C158.489 15.2518 159.672 14.8614 160.719 14.7138C161.766 14.5662 162.273 14.7186 161.858 15.0518L161.853 15.0566Z" fill="#004B32"/>
<path d="M159.445 14.4377L156.12 15.4518L153.721 15.4375L157.032 14.4281L159.445 14.4377Z" fill="#004B32"/>
<path d="M150.526 15.2137L153.818 14.6424L152.809 15.6755L149.474 16.2088L150.526 15.2137Z" fill="#004B32"/>
<path d="M152.136 33.1001L148.509 33.7315L149.149 37.3089L152.776 36.6775L152.136 33.1001Z" fill="#004B32"/>
<path d="M152.061 32.0393L149.696 29.2588L150.946 25.8499L153.316 28.6351L152.061 32.0393Z" fill="#004B32"/>
<path d="M155.463 26.2689C154.324 26.4641 153.234 25.7166 153.031 24.5882C152.828 23.4646 153.591 22.3886 154.735 22.1887C155.878 21.9887 156.964 22.7409 157.167 23.8693C157.37 24.9929 156.607 26.0689 155.463 26.2689Z" fill="#004B32"/>
<path d="M160.174 23.7979L157.326 20.4604L161.68 19.7034L160.174 23.7979Z" fill="#004B32"/>
<path d="M161.728 16.8944L158.489 16.9563L162.664 15.7136L161.728 16.8944Z" fill="#004B32"/>
<path d="M166.916 14.7995L167.085 18.5274L166.057 15.9945L166.916 14.7995Z" fill="#004B32"/>
<path d="M165.767 18.037C165.98 17.718 166.298 18.2846 166.477 19.3035C166.66 20.3223 166.636 21.4078 166.424 21.7316C166.216 22.0506 165.893 21.484 165.714 20.4652C165.531 19.4463 165.555 18.356 165.767 18.0323V18.037Z" fill="#004B32"/>
<path d="M165.753 22.222L166.641 24.6311L166.81 28.1495L165.917 25.7595L165.753 22.222Z" fill="#004B32"/>
<path d="M166.853 33.5152L166.24 30.1016L166.897 28.8018L167.5 32.1679L166.853 33.5152Z" fill="#004B32"/>
<path d="M5.05309 32.2012H0V18.6798H5.05309C7.95849 18.6798 14.1458 18.3846 14.1458 25.4548C14.1458 32.525 7.95849 32.2012 5.05309 32.2012ZM5.46815 20.7175H3.32046V30.1492H5.46815C7.19595 30.1492 10.5936 30.473 10.5936 25.4596C10.5936 20.4461 7.20077 20.7175 5.46815 20.7175Z" fill="white"/>
<path d="M21.8292 32.4155C18.8996 32.3726 16.2404 31.9489 16.2404 29.1208C16.2404 25.9071 20.7191 26.0404 24.1361 26.0404C24.1361 24.4502 24.112 23.736 21.1342 23.736C19.5174 23.736 17.8813 23.9503 17.0512 24.1026V22.1839C18.0647 21.9935 20.029 21.8126 21.3224 21.8126C24.2037 21.7935 27.4131 22.0649 27.4131 25.2072V32.1631C25.3378 32.3536 23.6294 32.4535 21.8292 32.4155ZM24.1361 27.802C23.721 27.7829 22.5869 27.7829 22.2442 27.7829C20.8784 27.7829 19.6332 27.9067 19.6332 29.2636C19.6332 30.6205 20.8784 30.6539 22.2442 30.6539C22.9344 30.6539 23.4894 30.6158 24.1361 30.5396V27.8067V27.802Z" fill="white"/>
<path d="M50.0628 32.3964C48.3784 32.3964 46.8099 32.2012 45.6081 31.987V30.0682C46.834 30.3015 48.1226 30.5539 49.556 30.5539C50.7819 30.5539 52.4855 30.3206 52.4855 29.3303C52.4855 28.34 51.2404 28.3209 49.305 27.9591C48.6342 27.821 45.5164 27.3544 45.5164 24.9739C45.5164 22.4363 48.6583 21.8316 50.8736 21.8316C53.2046 21.8316 54.5656 22.0649 55.1207 22.122V23.9455C54.7732 23.8836 53.0647 23.6122 51.5203 23.6122C50.4826 23.6122 48.8658 23.7694 48.8658 24.7168C48.8658 25.6643 50.6419 25.8023 51.8195 25.9928C53.3639 26.2451 55.9508 26.7688 55.9508 28.9399C55.9508 31.1109 53.639 32.3869 50.0628 32.3869V32.3964Z" fill="white"/>
<path d="M66.6844 32.2012L61.9691 27.0735V32.2012H58.6921V18.6465H61.9691V26.5117L66.8147 22.0316H70.7384L65.3137 26.745L70.9556 32.2012H66.6844Z" fill="white"/>
<path d="M129.932 32.2012H126.655V18.6465H129.932V32.2012Z" fill="white"/>
<path d="M39.0251 32.2012V25.5976C39.0251 25.0739 38.9575 23.9027 37.2973 23.9027C36.1438 23.9027 35.1062 24.0312 34.2712 24.1074V32.2012H30.9942V22.341C34.1602 22.022 36.8484 21.8364 38.5859 21.8745C40.3185 21.9125 42.3069 22.7076 42.3069 25.0548V32.206H39.0299L39.0251 32.2012Z" fill="white"/>
<path d="M113.653 31.8346C112.823 32.125 111.694 32.2583 110.468 32.2583C109.797 32.2583 109.358 32.2202 108.687 32.1441V36.1767H105.41V22.0125C106.4 21.9744 108.456 21.8745 109.749 21.8745C111.482 21.8745 112.939 22.0125 114.319 22.6695C116.303 23.6408 116.868 25.2786 116.868 26.8879C116.868 28.9018 115.98 30.9967 113.649 31.8298L113.653 31.8346ZM110.396 23.8217C109.175 23.8217 108.687 23.8979 108.687 23.8979V30.1682C108.687 30.1682 109.382 30.2873 110.328 30.2873C112.819 30.2873 113.528 28.8923 113.528 27.0926C113.528 25.1358 112.867 23.8217 110.396 23.8217Z" fill="white"/>
<path d="M71.6216 27.2116C71.6216 23.8979 73.6583 21.803 77.8089 21.803C82.3311 21.803 83.8562 23.8027 83.7597 27.8686H75.082C75.2896 30.1539 77.2973 30.6205 79.3291 30.6205C80.7384 30.6205 81.7761 30.4444 82.8137 30.273V32.0155C82.8137 32.0155 80.7819 32.4202 78.5183 32.4202C74.7104 32.4202 71.6168 31.1014 71.6168 27.2068L71.6216 27.2116ZM77.7027 23.5646C75.8349 23.5646 75.0917 24.7835 75.0917 26.1642H80.3185C80.3185 24.8644 79.8745 23.5646 77.7027 23.5646Z" fill="white"/>
<path d="M119.595 32.206V23.1314H122.872V32.206H119.595Z" fill="white"/>
<path d="M119.595 21.5697V18.6465H122.872V21.5697H119.595Z" fill="white"/>
<path d="M91.0714 31.806V29.6302C91.0714 29.6302 93.779 30.192 95.8639 30.192C97.2732 30.192 99.5656 29.873 99.5656 28.359C99.5656 25.6595 90.9556 27.6591 90.9556 22.86C90.9556 19.6748 94.1506 18.6845 97.7124 18.6845C99.9566 18.6845 101.877 19.0702 101.877 19.0702V21.1698C101.877 21.1698 100.024 20.7985 98.0357 20.7985C96.7857 20.7985 94.4498 21.0889 94.4498 22.5267C94.4498 25.5214 103.127 22.96 103.127 28.1067C103.127 31.3109 99.3098 32.2917 96.1631 32.2917C93.2722 32.2917 91.0714 31.806 91.0714 31.806Z" fill="white"/>
</g>
<defs>
<clipPath id="clip0_213_341">
<rect width="170" height="27" fill="white" transform="translate(0 12)"/>
</clipPath>
</defs>
</svg>
