<svg width="264" height="96" viewBox="0 0 264 96" fill="none" xmlns="http://www.w3.org/2000/svg">
<g clip-path="url(#clip0_81_2362)">
<path d="M82.95 60.8074L81.7914 54.5431C81.704 54.0987 81.3323 53.9505 81.0263 54.014L74.2494 55.1568C74.0527 55.1991 73.9215 55.2626 73.7466 55.4108C73.7466 55.4108 72.0196 56.9768 71.7792 57.2308C71.5168 57.4848 71.3638 57.8022 71.4513 58.289L72.7629 65.4633C72.8504 65.9077 73.2657 66.0347 73.5499 65.9923C73.8341 65.95 80.5016 64.8072 80.8514 64.7437C81.2012 64.6802 81.5509 64.4474 81.8133 63.9818L82.8407 61.8232C83.0156 61.4423 83.0375 61.3364 82.95 60.8074ZM79.3212 55.3685C79.1244 55.5166 78.5997 55.6859 78.1188 55.7494C77.6379 55.8129 77.4193 55.7494 77.5941 55.6012C77.7909 55.4531 78.3156 55.2838 78.7965 55.2203C79.2774 55.1568 79.496 55.2203 79.3212 55.3685ZM78.2281 55.0933L76.7197 55.5378H75.6267L77.1351 55.0933H78.2281ZM74.1839 55.4319L75.6704 55.178L75.2113 55.6436L73.7029 55.8764L74.1839 55.4319ZM73.5499 65.2516L73.2657 63.6644L74.9053 63.3893L75.1895 64.9765L73.5499 65.2516ZM74.8834 62.9237L73.8122 61.6962L74.3806 60.1725L75.4518 61.3999L74.8834 62.9237ZM76.4137 60.3629C75.889 60.4476 75.4081 60.109 75.3206 59.6222C75.2332 59.1143 75.583 58.6487 76.0858 58.5641C76.6104 58.4794 77.0914 58.818 77.1788 59.3048C77.2881 59.7915 76.9383 60.2571 76.4137 60.3629ZM78.556 59.2625L77.2662 57.781L79.2337 57.4424L78.556 59.2625ZM79.2556 56.1938L77.7909 56.215L79.6928 55.6647L79.2556 56.1938ZM81.5947 55.2626L81.6821 56.9134L81.223 55.7917L81.5947 55.2626ZM81.0919 56.7017C81.1793 56.5536 81.3323 56.8075 81.4198 57.2731C81.5072 57.7176 81.4854 58.2043 81.3979 58.3524C81.3105 58.5006 81.1575 58.2466 81.07 57.781C80.9826 57.3155 80.9826 56.8499 81.0919 56.7017ZM81.07 58.5641L81.4635 59.6434L81.551 61.2095L81.1575 60.1513L81.07 58.5641ZM81.5728 63.5797L81.2886 62.056L81.5947 61.4846L81.857 62.9872L81.5728 63.5797Z" fill="#E0F5EE" fill-opacity="0.55"/>
<path d="M8.29538 63.0083H6V56.998H8.29538C9.60703 56.998 12.4052 56.871 12.4052 60.0032C12.4052 63.1353 9.60703 63.0083 8.29538 63.0083ZM8.47027 57.908H7.5084V62.0983H8.47027C9.25726 62.0983 10.7875 62.2465 10.7875 60.0032C10.7875 57.781 9.25726 57.908 8.47027 57.908Z" fill="#E0F5EE" fill-opacity="0.55"/>
<path d="M15.8811 63.093C14.5476 63.0718 13.3452 62.8814 13.3452 61.6327C13.3452 60.1936 15.3783 60.2571 16.9304 60.2571C16.9304 59.5587 16.9304 59.2413 15.575 59.2413C14.8536 59.2413 14.1104 59.3471 13.7169 59.4106V58.5641C14.1759 58.4794 15.0722 58.3948 15.6406 58.3948C16.9523 58.3948 18.3951 58.5006 18.3951 59.8974V62.9872C17.4769 63.0718 16.7118 63.1142 15.8811 63.093ZM16.9304 61.0613C16.7337 61.0613 16.2309 61.0613 16.0778 61.0613C15.4657 61.0613 14.8974 61.1248 14.8974 61.7174C14.8974 62.31 15.4657 62.3311 16.0778 62.3311C16.3839 62.3311 16.6462 62.31 16.9304 62.2888V61.0613Z" fill="#E0F5EE" fill-opacity="0.55"/>
<path d="M28.6697 63.093C27.9045 63.093 27.205 63.0083 26.6585 62.9025V62.056C27.205 62.1618 27.7952 62.2676 28.451 62.2676C28.9976 62.2676 29.7846 62.1618 29.7846 61.7174C29.7846 61.2941 29.2162 61.273 28.3417 61.1037C28.0357 61.0402 26.6366 60.8285 26.6366 59.7704C26.6366 58.6487 28.0576 58.3736 29.0632 58.3736C30.1125 58.3736 30.7246 58.4794 30.9869 58.5006V59.3048C30.8339 59.2836 30.0469 59.1566 29.3473 59.1566C28.8664 59.1566 28.145 59.2201 28.145 59.6434C28.145 60.0455 28.9538 60.1301 29.4785 60.2148C30.1781 60.3206 31.3585 60.5534 31.3585 61.5269C31.3367 62.5216 30.2874 63.093 28.6697 63.093Z" fill="#E0F5EE" fill-opacity="0.55"/>
<path d="M36.2116 63.0083L34.0693 60.7227V63.0083H32.5827V56.9768H34.0693V60.4688L36.2554 58.4794H38.0479L35.5777 60.5746L38.1354 63.0083H36.2116Z" fill="#E0F5EE" fill-opacity="0.55"/>
<path d="M63.3628 56.9768H64.8493V63.0083H63.3628V56.9768Z" fill="#E0F5EE" fill-opacity="0.55"/>
<path d="M23.6854 63.0083V60.0667C23.6854 59.8339 23.6635 59.3048 22.8984 59.3048C22.3737 59.3048 21.9147 59.3683 21.5212 59.3894V62.9872H20.0346V58.6276C21.4775 58.4794 22.6798 58.3948 23.4668 58.4159C24.2538 58.4371 25.1501 58.7757 25.1501 59.8339V63.0083H23.6854Z" fill="#E0F5EE" fill-opacity="0.55"/>
<path d="M57.4822 62.839C57.1106 62.966 56.5859 63.0295 56.0394 63.0295C55.7333 63.0295 55.5366 63.0083 55.2305 62.9872V64.786H53.744V58.4794C54.2031 58.4583 55.1212 58.4159 55.7115 58.4159C56.4985 58.4159 57.1543 58.4794 57.7883 58.7757C58.6845 59.199 58.9469 59.9397 58.9469 60.6592C58.9469 61.5481 58.5315 62.4793 57.4822 62.839ZM55.9957 59.2836C55.4491 59.2836 55.2305 59.326 55.2305 59.326V62.1195C55.2305 62.1195 55.5366 62.1618 55.9738 62.1618C57.1106 62.1618 57.4166 61.5481 57.4166 60.7439C57.4166 59.8762 57.1324 59.2836 55.9957 59.2836Z" fill="#E0F5EE" fill-opacity="0.55"/>
<path d="M38.4414 60.7862C38.4414 59.3048 39.3596 58.3736 41.2396 58.3736C43.2945 58.3736 43.9722 59.2625 43.9285 61.0613H39.9936C40.081 62.0772 40.9992 62.2888 41.9173 62.2888C42.5513 62.2888 43.0322 62.2041 43.4913 62.1406V62.9237C43.4913 62.9237 42.5731 63.1141 41.5457 63.1141C39.8405 63.1141 38.4414 62.5216 38.4414 60.7862ZM41.1959 59.1778C40.3433 59.1778 40.0154 59.7281 40.0154 60.3418H42.3764C42.3764 59.7492 42.1796 59.1778 41.1959 59.1778Z" fill="#E0F5EE" fill-opacity="0.55"/>
<path d="M60.1711 58.9662H61.6576V63.0083H60.1711V58.9662Z" fill="#E0F5EE" fill-opacity="0.55"/>
<path d="M60.1711 56.9768H61.6576V58.2678H60.1711V56.9768Z" fill="#E0F5EE" fill-opacity="0.55"/>
<path d="M47.2513 62.839V61.8655C47.2513 61.8655 48.4756 62.1195 49.4156 62.1195C50.0495 62.1195 51.0988 61.9713 51.0988 61.2941C51.0988 60.0878 47.2076 60.9767 47.2076 58.8392C47.2076 57.4213 48.6504 56.9768 50.2681 56.9768C51.2956 56.9768 52.1482 57.1462 52.1482 57.1462V58.0773C52.1482 58.0773 51.3175 57.908 50.3993 57.908C49.8309 57.908 48.7816 58.035 48.7816 58.6699C48.7816 60.0032 52.7165 58.8604 52.7165 61.146C52.7165 62.5639 50.9895 63.0083 49.5686 63.0083C48.2569 63.0507 47.2513 62.839 47.2513 62.839Z" fill="#E0F5EE" fill-opacity="0.55"/>
<path d="M258.95 60.8074L257.791 54.5431C257.704 54.0987 257.332 53.9505 257.026 54.014L250.249 55.1568C250.053 55.1991 249.922 55.2626 249.747 55.4108C249.747 55.4108 248.02 56.9768 247.779 57.2308C247.517 57.4848 247.364 57.8022 247.451 58.289L248.763 65.4633C248.85 65.9077 249.266 66.0347 249.55 65.9923C249.834 65.95 256.502 64.8072 256.851 64.7437C257.201 64.6802 257.551 64.4474 257.813 63.9818L258.841 61.8232C259.016 61.4423 259.037 61.3364 258.95 60.8074ZM255.321 55.3685C255.124 55.5166 254.6 55.6859 254.119 55.7494C253.638 55.8129 253.419 55.7494 253.594 55.6012C253.791 55.4531 254.316 55.2838 254.796 55.2203C255.277 55.1568 255.496 55.2203 255.321 55.3685ZM254.228 55.0933L252.72 55.5378H251.627L253.135 55.0933H254.228ZM250.184 55.4319L251.67 55.178L251.211 55.6436L249.703 55.8764L250.184 55.4319ZM249.55 65.2516L249.266 63.6644L250.905 63.3893L251.189 64.9765L249.55 65.2516ZM250.883 62.9237L249.812 61.6962L250.381 60.1725L251.452 61.3999L250.883 62.9237ZM252.414 60.3629C251.889 60.4476 251.408 60.109 251.321 59.6222C251.233 59.1143 251.583 58.6487 252.086 58.5641C252.61 58.4794 253.091 58.818 253.179 59.3048C253.288 59.7915 252.938 60.2571 252.414 60.3629ZM254.556 59.2625L253.266 57.781L255.234 57.4424L254.556 59.2625ZM255.256 56.1938L253.791 56.215L255.693 55.6647L255.256 56.1938ZM257.595 55.2626L257.682 56.9134L257.223 55.7917L257.595 55.2626ZM257.092 56.7017C257.179 56.5536 257.332 56.8075 257.42 57.2731C257.507 57.7176 257.485 58.2043 257.398 58.3524C257.31 58.5006 257.157 58.2466 257.07 57.781C256.983 57.3155 256.983 56.8499 257.092 56.7017ZM257.07 58.5641L257.464 59.6434L257.551 61.2095L257.157 60.1513L257.07 58.5641ZM257.573 63.5797L257.289 62.056L257.595 61.4846L257.857 62.9872L257.573 63.5797Z" fill="#E0F5EE" fill-opacity="0.55"/>
<path d="M184.295 63.0083H182V56.998H184.295C185.607 56.998 188.405 56.871 188.405 60.0032C188.405 63.1353 185.607 63.0083 184.295 63.0083ZM184.47 57.908H183.508V62.0983H184.47C185.257 62.0983 186.788 62.2465 186.788 60.0032C186.788 57.781 185.257 57.908 184.47 57.908Z" fill="#E0F5EE" fill-opacity="0.55"/>
<path d="M191.881 63.093C190.548 63.0718 189.345 62.8814 189.345 61.6327C189.345 60.1936 191.378 60.2571 192.93 60.2571C192.93 59.5587 192.93 59.2413 191.575 59.2413C190.854 59.2413 190.11 59.3471 189.717 59.4106V58.5641C190.176 58.4794 191.072 58.3948 191.641 58.3948C192.952 58.3948 194.395 58.5006 194.395 59.8974V62.9872C193.477 63.0718 192.712 63.1142 191.881 63.093ZM192.93 61.0613C192.734 61.0613 192.231 61.0613 192.078 61.0613C191.466 61.0613 190.897 61.1248 190.897 61.7174C190.897 62.31 191.466 62.3311 192.078 62.3311C192.384 62.3311 192.646 62.31 192.93 62.2888V61.0613Z" fill="#E0F5EE" fill-opacity="0.55"/>
<path d="M204.67 63.093C203.905 63.093 203.205 63.0083 202.658 62.9025V62.056C203.205 62.1618 203.795 62.2676 204.451 62.2676C204.998 62.2676 205.785 62.1618 205.785 61.7174C205.785 61.2941 205.216 61.273 204.342 61.1037C204.036 61.0402 202.637 60.8285 202.637 59.7704C202.637 58.6487 204.058 58.3736 205.063 58.3736C206.112 58.3736 206.725 58.4794 206.987 58.5006V59.3048C206.834 59.2836 206.047 59.1566 205.347 59.1566C204.866 59.1566 204.145 59.2201 204.145 59.6434C204.145 60.0455 204.954 60.1301 205.479 60.2148C206.178 60.3206 207.359 60.5534 207.359 61.5269C207.337 62.5216 206.287 63.093 204.67 63.093Z" fill="#E0F5EE" fill-opacity="0.55"/>
<path d="M212.212 63.0083L210.069 60.7227V63.0083H208.583V56.9768H210.069V60.4688L212.255 58.4794H214.048L211.578 60.5746L214.135 63.0083H212.212Z" fill="#E0F5EE" fill-opacity="0.55"/>
<path d="M239.363 56.9768H240.849V63.0083H239.363V56.9768Z" fill="#E0F5EE" fill-opacity="0.55"/>
<path d="M199.685 63.0083V60.0667C199.685 59.8339 199.664 59.3048 198.898 59.3048C198.374 59.3048 197.915 59.3683 197.521 59.3894V62.9872H196.035V58.6276C197.477 58.4794 198.68 58.3948 199.467 58.4159C200.254 58.4371 201.15 58.7757 201.15 59.8339V63.0083H199.685Z" fill="#E0F5EE" fill-opacity="0.55"/>
<path d="M233.482 62.839C233.111 62.966 232.586 63.0295 232.039 63.0295C231.733 63.0295 231.537 63.0083 231.231 62.9872V64.786H229.744V58.4794C230.203 58.4583 231.121 58.4159 231.711 58.4159C232.498 58.4159 233.154 58.4794 233.788 58.7757C234.685 59.199 234.947 59.9397 234.947 60.6592C234.947 61.5481 234.532 62.4793 233.482 62.839ZM231.996 59.2836C231.449 59.2836 231.231 59.326 231.231 59.326V62.1195C231.231 62.1195 231.537 62.1618 231.974 62.1618C233.111 62.1618 233.417 61.5481 233.417 60.7439C233.417 59.8762 233.132 59.2836 231.996 59.2836Z" fill="#E0F5EE" fill-opacity="0.55"/>
<path d="M214.441 60.7862C214.441 59.3048 215.36 58.3736 217.24 58.3736C219.295 58.3736 219.972 59.2625 219.928 61.0613H215.994C216.081 62.0772 216.999 62.2888 217.917 62.2888C218.551 62.2888 219.032 62.2041 219.491 62.1406V62.9237C219.491 62.9237 218.573 63.1141 217.546 63.1141C215.841 63.1141 214.441 62.5216 214.441 60.7862ZM217.196 59.1778C216.343 59.1778 216.015 59.7281 216.015 60.3418H218.376C218.376 59.7492 218.18 59.1778 217.196 59.1778Z" fill="#E0F5EE" fill-opacity="0.55"/>
<path d="M236.171 58.9662H237.658V63.0083H236.171V58.9662Z" fill="#E0F5EE" fill-opacity="0.55"/>
<path d="M236.171 56.9768H237.658V58.2678H236.171V56.9768Z" fill="#E0F5EE" fill-opacity="0.55"/>
<path d="M223.251 62.839V61.8655C223.251 61.8655 224.476 62.1195 225.416 62.1195C226.05 62.1195 227.099 61.9713 227.099 61.2941C227.099 60.0878 223.208 60.9767 223.208 58.8392C223.208 57.4213 224.65 56.9768 226.268 56.9768C227.296 56.9768 228.148 57.1462 228.148 57.1462V58.0773C228.148 58.0773 227.317 57.908 226.399 57.908C225.831 57.908 224.782 58.035 224.782 58.6699C224.782 60.0032 228.717 58.8604 228.717 61.146C228.717 62.5639 226.99 63.0083 225.569 63.0083C224.257 63.0507 223.251 62.839 223.251 62.839Z" fill="#E0F5EE" fill-opacity="0.55"/>
<path d="M170.95 60.8074L169.791 54.5431C169.704 54.0987 169.332 53.9505 169.026 54.014L162.249 55.1568C162.053 55.1991 161.922 55.2626 161.747 55.4108C161.747 55.4108 160.02 56.9768 159.779 57.2308C159.517 57.4848 159.364 57.8022 159.451 58.289L160.763 65.4633C160.85 65.9077 161.266 66.0347 161.55 65.9923C161.834 65.95 168.502 64.8072 168.851 64.7437C169.201 64.6802 169.551 64.4474 169.813 63.9818L170.841 61.8232C171.016 61.4423 171.037 61.3364 170.95 60.8074ZM167.321 55.3685C167.124 55.5166 166.6 55.6859 166.119 55.7494C165.638 55.8129 165.419 55.7494 165.594 55.6012C165.791 55.4531 166.316 55.2838 166.796 55.2203C167.277 55.1568 167.496 55.2203 167.321 55.3685ZM166.228 55.0933L164.72 55.5378H163.627L165.135 55.0933H166.228ZM162.184 55.4319L163.67 55.178L163.211 55.6436L161.703 55.8764L162.184 55.4319ZM161.55 65.2516L161.266 63.6644L162.905 63.3893L163.189 64.9765L161.55 65.2516ZM162.883 62.9237L161.812 61.6962L162.381 60.1725L163.452 61.3999L162.883 62.9237ZM164.414 60.3629C163.889 60.4476 163.408 60.109 163.321 59.6222C163.233 59.1143 163.583 58.6487 164.086 58.5641C164.61 58.4794 165.091 58.818 165.179 59.3048C165.288 59.7915 164.938 60.2571 164.414 60.3629ZM166.556 59.2625L165.266 57.781L167.234 57.4424L166.556 59.2625ZM167.256 56.1938L165.791 56.215L167.693 55.6647L167.256 56.1938ZM169.595 55.2626L169.682 56.9134L169.223 55.7917L169.595 55.2626ZM169.092 56.7017C169.179 56.5536 169.332 56.8075 169.42 57.2731C169.507 57.7176 169.485 58.2043 169.398 58.3524C169.31 58.5006 169.157 58.2466 169.07 57.781C168.983 57.3155 168.983 56.8499 169.092 56.7017ZM169.07 58.5641L169.464 59.6434L169.551 61.2095L169.157 60.1513L169.07 58.5641ZM169.573 63.5797L169.289 62.056L169.595 61.4846L169.857 62.9872L169.573 63.5797Z" fill="#E0F5EE" fill-opacity="0.55"/>
<path d="M96.2954 63.0083H94V56.998H96.2954C97.607 56.998 100.405 56.871 100.405 60.0032C100.405 63.1353 97.607 63.0083 96.2954 63.0083ZM96.4703 57.908H95.5084V62.0983H96.4703C97.2573 62.0983 98.7875 62.2465 98.7875 60.0032C98.7875 57.781 97.2573 57.908 96.4703 57.908Z" fill="#E0F5EE" fill-opacity="0.55"/>
<path d="M103.881 63.093C102.548 63.0718 101.345 62.8814 101.345 61.6327C101.345 60.1936 103.378 60.2571 104.93 60.2571C104.93 59.5587 104.93 59.2413 103.575 59.2413C102.854 59.2413 102.11 59.3471 101.717 59.4106V58.5641C102.176 58.4794 103.072 58.3948 103.641 58.3948C104.952 58.3948 106.395 58.5006 106.395 59.8974V62.9872C105.477 63.0718 104.712 63.1142 103.881 63.093ZM104.93 61.0613C104.734 61.0613 104.231 61.0613 104.078 61.0613C103.466 61.0613 102.897 61.1248 102.897 61.7174C102.897 62.31 103.466 62.3311 104.078 62.3311C104.384 62.3311 104.646 62.31 104.93 62.2888V61.0613Z" fill="#E0F5EE" fill-opacity="0.55"/>
<path d="M116.67 63.093C115.905 63.093 115.205 63.0083 114.658 62.9025V62.056C115.205 62.1618 115.795 62.2676 116.451 62.2676C116.998 62.2676 117.785 62.1618 117.785 61.7174C117.785 61.2941 117.216 61.273 116.342 61.1037C116.036 61.0402 114.637 60.8285 114.637 59.7704C114.637 58.6487 116.058 58.3736 117.063 58.3736C118.112 58.3736 118.725 58.4794 118.987 58.5006V59.3048C118.834 59.2836 118.047 59.1566 117.347 59.1566C116.866 59.1566 116.145 59.2201 116.145 59.6434C116.145 60.0455 116.954 60.1301 117.479 60.2148C118.178 60.3206 119.359 60.5534 119.359 61.5269C119.337 62.5216 118.287 63.093 116.67 63.093Z" fill="#E0F5EE" fill-opacity="0.55"/>
<path d="M124.212 63.0083L122.069 60.7227V63.0083H120.583V56.9768H122.069V60.4688L124.255 58.4794H126.048L123.578 60.5746L126.135 63.0083H124.212Z" fill="#E0F5EE" fill-opacity="0.55"/>
<path d="M151.363 56.9768H152.849V63.0083H151.363V56.9768Z" fill="#E0F5EE" fill-opacity="0.55"/>
<path d="M111.685 63.0083V60.0667C111.685 59.8339 111.664 59.3048 110.898 59.3048C110.374 59.3048 109.915 59.3683 109.521 59.3894V62.9872H108.035V58.6276C109.477 58.4794 110.68 58.3948 111.467 58.4159C112.254 58.4371 113.15 58.7757 113.15 59.8339V63.0083H111.685Z" fill="#E0F5EE" fill-opacity="0.55"/>
<path d="M145.482 62.839C145.111 62.966 144.586 63.0295 144.039 63.0295C143.733 63.0295 143.537 63.0083 143.231 62.9872V64.786H141.744V58.4794C142.203 58.4583 143.121 58.4159 143.711 58.4159C144.498 58.4159 145.154 58.4794 145.788 58.7757C146.685 59.199 146.947 59.9397 146.947 60.6592C146.947 61.5481 146.532 62.4793 145.482 62.839ZM143.996 59.2836C143.449 59.2836 143.231 59.326 143.231 59.326V62.1195C143.231 62.1195 143.537 62.1618 143.974 62.1618C145.111 62.1618 145.417 61.5481 145.417 60.7439C145.417 59.8762 145.132 59.2836 143.996 59.2836Z" fill="#E0F5EE" fill-opacity="0.55"/>
<path d="M126.441 60.7862C126.441 59.3048 127.36 58.3736 129.24 58.3736C131.295 58.3736 131.972 59.2625 131.928 61.0613H127.994C128.081 62.0772 128.999 62.2888 129.917 62.2888C130.551 62.2888 131.032 62.2041 131.491 62.1406V62.9237C131.491 62.9237 130.573 63.1141 129.546 63.1141C127.841 63.1141 126.441 62.5216 126.441 60.7862ZM129.196 59.1778C128.343 59.1778 128.015 59.7281 128.015 60.3418H130.376C130.376 59.7492 130.18 59.1778 129.196 59.1778Z" fill="#E0F5EE" fill-opacity="0.55"/>
<path d="M148.171 58.9662H149.658V63.0083H148.171V58.9662Z" fill="#E0F5EE" fill-opacity="0.55"/>
<path d="M148.171 56.9768H149.658V58.2678H148.171V56.9768Z" fill="#E0F5EE" fill-opacity="0.55"/>
<path d="M135.251 62.839V61.8655C135.251 61.8655 136.476 62.1195 137.416 62.1195C138.05 62.1195 139.099 61.9713 139.099 61.2941C139.099 60.0878 135.208 60.9767 135.208 58.8392C135.208 57.4213 136.65 56.9768 138.268 56.9768C139.296 56.9768 140.148 57.1462 140.148 57.1462V58.0773C140.148 58.0773 139.317 57.908 138.399 57.908C137.831 57.908 136.782 58.035 136.782 58.6699C136.782 60.0032 140.717 58.8604 140.717 61.146C140.717 62.5639 138.99 63.0083 137.569 63.0083C136.257 63.0507 135.251 62.839 135.251 62.839Z" fill="#E0F5EE" fill-opacity="0.55"/>
<path d="M82.95 12.8074L81.7914 6.54309C81.704 6.09866 81.3323 5.95052 81.0263 6.01401L74.2494 7.15682C74.0527 7.19915 73.9215 7.26263 73.7466 7.41078C73.7466 7.41078 72.0196 8.97685 71.7792 9.2308C71.5168 9.48476 71.3638 9.80221 71.4513 10.289L72.7629 17.4633C72.8504 17.9077 73.2657 18.0347 73.5499 17.9923C73.8341 17.95 80.5016 16.8072 80.8514 16.7437C81.2012 16.6802 81.5509 16.4474 81.8133 15.9818L82.8407 13.8232C83.0156 13.4423 83.0375 13.3364 82.95 12.8074ZM79.3212 7.36845C79.1244 7.51659 78.5997 7.6859 78.1188 7.74939C77.6379 7.81288 77.4193 7.74939 77.5941 7.60124C77.7909 7.4531 78.3156 7.2838 78.7965 7.22031C79.2774 7.15682 79.496 7.22031 79.3212 7.36845ZM78.2281 7.09333L76.7197 7.53776H75.6267L77.1351 7.09333H78.2281ZM74.1839 7.43194L75.6704 7.17798L75.2113 7.64357L73.7029 7.87637L74.1839 7.43194ZM73.5499 17.2516L73.2657 15.6644L74.9053 15.3893L75.1895 16.9765L73.5499 17.2516ZM74.8834 14.9237L73.8122 13.6962L74.3806 12.1725L75.4518 13.3999L74.8834 14.9237ZM76.4137 12.3629C75.889 12.4476 75.4081 12.109 75.3206 11.6222C75.2332 11.1143 75.583 10.6487 76.0858 10.5641C76.6104 10.4794 77.0914 10.818 77.1788 11.3048C77.2881 11.7915 76.9383 12.2571 76.4137 12.3629ZM78.556 11.2625L77.2662 9.78104L79.2337 9.44244L78.556 11.2625ZM79.2556 8.19381L77.7909 8.21497L79.6928 7.66473L79.2556 8.19381ZM81.5947 7.26263L81.6821 8.91336L81.223 7.79171L81.5947 7.26263ZM81.0919 8.70173C81.1793 8.55358 81.3323 8.80754 81.4198 9.27313C81.5072 9.71756 81.4854 10.2043 81.3979 10.3524C81.3105 10.5006 81.1575 10.2466 81.07 9.78104C80.9826 9.31546 80.9826 8.84987 81.0919 8.70173ZM81.07 10.5641L81.4635 11.6434L81.551 13.2095L81.1575 12.1513L81.07 10.5641ZM81.5728 15.5797L81.2886 14.056L81.5947 13.4846L81.857 14.9872L81.5728 15.5797Z" fill="#E0F5EE" fill-opacity="0.55"/>
<path d="M8.29538 15.0083H6V8.99801H8.29538C9.60703 8.99801 12.4052 8.87103 12.4052 12.0032C12.4052 15.1353 9.60703 15.0083 8.29538 15.0083ZM8.47027 9.90802H7.5084V14.0983H8.47027C9.25726 14.0983 10.7875 14.2465 10.7875 12.0032C10.7875 9.78104 9.25726 9.90802 8.47027 9.90802Z" fill="#E0F5EE" fill-opacity="0.55"/>
<path d="M15.8811 15.093C14.5476 15.0718 13.3452 14.8814 13.3452 13.6327C13.3452 12.1936 15.3783 12.2571 16.9304 12.2571C16.9304 11.5587 16.9304 11.2413 15.575 11.2413C14.8536 11.2413 14.1104 11.3471 13.7169 11.4106V10.5641C14.1759 10.4794 15.0722 10.3948 15.6406 10.3948C16.9523 10.3948 18.3951 10.5006 18.3951 11.8974V14.9872C17.4769 15.0718 16.7118 15.1141 15.8811 15.093ZM16.9304 13.0613C16.7337 13.0613 16.2309 13.0613 16.0778 13.0613C15.4657 13.0613 14.8974 13.1248 14.8974 13.7174C14.8974 14.31 15.4657 14.3311 16.0778 14.3311C16.3839 14.3311 16.6462 14.3099 16.9304 14.2888V13.0613Z" fill="#E0F5EE" fill-opacity="0.55"/>
<path d="M28.6697 15.093C27.9045 15.093 27.205 15.0083 26.6585 14.9025V14.056C27.205 14.1618 27.7952 14.2676 28.451 14.2676C28.9976 14.2676 29.7846 14.1618 29.7846 13.7174C29.7846 13.2941 29.2162 13.273 28.3417 13.1037C28.0357 13.0402 26.6366 12.8285 26.6366 11.7704C26.6366 10.6487 28.0576 10.3736 29.0632 10.3736C30.1125 10.3736 30.7246 10.4794 30.9869 10.5006V11.3048C30.8339 11.2836 30.0469 11.1566 29.3473 11.1566C28.8664 11.1566 28.145 11.2201 28.145 11.6434C28.145 12.0455 28.9538 12.1301 29.4785 12.2148C30.1781 12.3206 31.3585 12.5534 31.3585 13.5269C31.3367 14.5216 30.2874 15.093 28.6697 15.093Z" fill="#E0F5EE" fill-opacity="0.55"/>
<path d="M36.2116 15.0083L34.0693 12.7227V15.0083H32.5827V8.97685H34.0693V12.4688L36.2554 10.4794H38.0479L35.5777 12.5746L38.1354 15.0083H36.2116Z" fill="#E0F5EE" fill-opacity="0.55"/>
<path d="M63.3628 8.97685H64.8493V15.0083H63.3628V8.97685Z" fill="#E0F5EE" fill-opacity="0.55"/>
<path d="M23.6854 15.0083V12.0667C23.6854 11.8339 23.6635 11.3048 22.8984 11.3048C22.3737 11.3048 21.9147 11.3683 21.5212 11.3894V14.9872H20.0346V10.6276C21.4775 10.4794 22.6798 10.3948 23.4668 10.4159C24.2538 10.4371 25.1501 10.7757 25.1501 11.8339V15.0083H23.6854Z" fill="#E0F5EE" fill-opacity="0.55"/>
<path d="M57.4822 14.839C57.1106 14.966 56.5859 15.0295 56.0394 15.0295C55.7333 15.0295 55.5366 15.0083 55.2305 14.9872V16.786H53.744V10.4794C54.2031 10.4583 55.1212 10.4159 55.7115 10.4159C56.4985 10.4159 57.1543 10.4794 57.7883 10.7757C58.6845 11.199 58.9469 11.9397 58.9469 12.6592C58.9469 13.5481 58.5315 14.4793 57.4822 14.839ZM55.9957 11.2836C55.4491 11.2836 55.2305 11.326 55.2305 11.326V14.1195C55.2305 14.1195 55.5366 14.1618 55.9738 14.1618C57.1106 14.1618 57.4166 13.5481 57.4166 12.7439C57.4166 11.8762 57.1324 11.2836 55.9957 11.2836Z" fill="#E0F5EE" fill-opacity="0.55"/>
<path d="M38.4414 12.7862C38.4414 11.3048 39.3596 10.3736 41.2396 10.3736C43.2945 10.3736 43.9722 11.2625 43.9285 13.0613H39.9936C40.081 14.0772 40.9992 14.2888 41.9173 14.2888C42.5513 14.2888 43.0322 14.2041 43.4913 14.1406V14.9237C43.4913 14.9237 42.5731 15.1141 41.5457 15.1141C39.8405 15.1141 38.4414 14.5216 38.4414 12.7862ZM41.1959 11.1778C40.3433 11.1778 40.0154 11.7281 40.0154 12.3418H42.3764C42.3764 11.7492 42.1796 11.1778 41.1959 11.1778Z" fill="#E0F5EE" fill-opacity="0.55"/>
<path d="M60.1711 10.9662H61.6576V15.0083H60.1711V10.9662Z" fill="#E0F5EE" fill-opacity="0.55"/>
<path d="M60.1711 8.97685H61.6576V10.2678H60.1711V8.97685Z" fill="#E0F5EE" fill-opacity="0.55"/>
<path d="M47.2513 14.839V13.8655C47.2513 13.8655 48.4756 14.1195 49.4156 14.1195C50.0495 14.1195 51.0988 13.9713 51.0988 13.2941C51.0988 12.0878 47.2076 12.9767 47.2076 10.8392C47.2076 9.42127 48.6504 8.97685 50.2681 8.97685C51.2956 8.97685 52.1482 9.14615 52.1482 9.14615V10.0773C52.1482 10.0773 51.3175 9.90802 50.3993 9.90802C49.8309 9.90802 48.7816 10.035 48.7816 10.6699C48.7816 12.0032 52.7165 10.8604 52.7165 13.146C52.7165 14.5639 50.9895 15.0083 49.5686 15.0083C48.2569 15.0507 47.2513 14.839 47.2513 14.839Z" fill="#E0F5EE" fill-opacity="0.55"/>
<path d="M258.95 12.8074L257.791 6.54309C257.704 6.09866 257.332 5.95052 257.026 6.01401L250.249 7.15682C250.053 7.19915 249.922 7.26263 249.747 7.41078C249.747 7.41078 248.02 8.97685 247.779 9.2308C247.517 9.48476 247.364 9.80221 247.451 10.289L248.763 17.4633C248.85 17.9077 249.266 18.0347 249.55 17.9923C249.834 17.95 256.502 16.8072 256.851 16.7437C257.201 16.6802 257.551 16.4474 257.813 15.9818L258.841 13.8232C259.016 13.4423 259.037 13.3364 258.95 12.8074ZM255.321 7.36845C255.124 7.51659 254.6 7.6859 254.119 7.74939C253.638 7.81288 253.419 7.74939 253.594 7.60124C253.791 7.4531 254.316 7.2838 254.796 7.22031C255.277 7.15682 255.496 7.22031 255.321 7.36845ZM254.228 7.09333L252.72 7.53776H251.627L253.135 7.09333H254.228ZM250.184 7.43194L251.67 7.17798L251.211 7.64357L249.703 7.87637L250.184 7.43194ZM249.55 17.2516L249.266 15.6644L250.905 15.3893L251.189 16.9765L249.55 17.2516ZM250.883 14.9237L249.812 13.6962L250.381 12.1725L251.452 13.3999L250.883 14.9237ZM252.414 12.3629C251.889 12.4476 251.408 12.109 251.321 11.6222C251.233 11.1143 251.583 10.6487 252.086 10.5641C252.61 10.4794 253.091 10.818 253.179 11.3048C253.288 11.7915 252.938 12.2571 252.414 12.3629ZM254.556 11.2625L253.266 9.78104L255.234 9.44244L254.556 11.2625ZM255.256 8.19381L253.791 8.21497L255.693 7.66473L255.256 8.19381ZM257.595 7.26263L257.682 8.91336L257.223 7.79171L257.595 7.26263ZM257.092 8.70173C257.179 8.55358 257.332 8.80754 257.42 9.27313C257.507 9.71756 257.485 10.2043 257.398 10.3524C257.31 10.5006 257.157 10.2466 257.07 9.78104C256.983 9.31546 256.983 8.84987 257.092 8.70173ZM257.07 10.5641L257.464 11.6434L257.551 13.2095L257.157 12.1513L257.07 10.5641ZM257.573 15.5797L257.289 14.056L257.595 13.4846L257.857 14.9872L257.573 15.5797Z" fill="#E0F5EE" fill-opacity="0.55"/>
<path d="M184.295 15.0083H182V8.99801H184.295C185.607 8.99801 188.405 8.87103 188.405 12.0032C188.405 15.1353 185.607 15.0083 184.295 15.0083ZM184.47 9.90802H183.508V14.0983H184.47C185.257 14.0983 186.788 14.2465 186.788 12.0032C186.788 9.78104 185.257 9.90802 184.47 9.90802Z" fill="#E0F5EE" fill-opacity="0.55"/>
<path d="M191.881 15.093C190.548 15.0718 189.345 14.8814 189.345 13.6327C189.345 12.1936 191.378 12.2571 192.93 12.2571C192.93 11.5587 192.93 11.2413 191.575 11.2413C190.854 11.2413 190.11 11.3471 189.717 11.4106V10.5641C190.176 10.4794 191.072 10.3948 191.641 10.3948C192.952 10.3948 194.395 10.5006 194.395 11.8974V14.9872C193.477 15.0718 192.712 15.1141 191.881 15.093ZM192.93 13.0613C192.734 13.0613 192.231 13.0613 192.078 13.0613C191.466 13.0613 190.897 13.1248 190.897 13.7174C190.897 14.31 191.466 14.3311 192.078 14.3311C192.384 14.3311 192.646 14.3099 192.93 14.2888V13.0613Z" fill="#E0F5EE" fill-opacity="0.55"/>
<path d="M204.67 15.093C203.905 15.093 203.205 15.0083 202.658 14.9025V14.056C203.205 14.1618 203.795 14.2676 204.451 14.2676C204.998 14.2676 205.785 14.1618 205.785 13.7174C205.785 13.2941 205.216 13.273 204.342 13.1037C204.036 13.0402 202.637 12.8285 202.637 11.7704C202.637 10.6487 204.058 10.3736 205.063 10.3736C206.112 10.3736 206.725 10.4794 206.987 10.5006V11.3048C206.834 11.2836 206.047 11.1566 205.347 11.1566C204.866 11.1566 204.145 11.2201 204.145 11.6434C204.145 12.0455 204.954 12.1301 205.479 12.2148C206.178 12.3206 207.359 12.5534 207.359 13.5269C207.337 14.5216 206.287 15.093 204.67 15.093Z" fill="#E0F5EE" fill-opacity="0.55"/>
<path d="M212.212 15.0083L210.069 12.7227V15.0083H208.583V8.97685H210.069V12.4688L212.255 10.4794H214.048L211.578 12.5746L214.135 15.0083H212.212Z" fill="#E0F5EE" fill-opacity="0.55"/>
<path d="M239.363 8.97685H240.849V15.0083H239.363V8.97685Z" fill="#E0F5EE" fill-opacity="0.55"/>
<path d="M199.685 15.0083V12.0667C199.685 11.8339 199.664 11.3048 198.898 11.3048C198.374 11.3048 197.915 11.3683 197.521 11.3894V14.9872H196.035V10.6276C197.477 10.4794 198.68 10.3948 199.467 10.4159C200.254 10.4371 201.15 10.7757 201.15 11.8339V15.0083H199.685Z" fill="#E0F5EE" fill-opacity="0.55"/>
<path d="M233.482 14.839C233.111 14.966 232.586 15.0295 232.039 15.0295C231.733 15.0295 231.537 15.0083 231.231 14.9872V16.786H229.744V10.4794C230.203 10.4583 231.121 10.4159 231.711 10.4159C232.498 10.4159 233.154 10.4794 233.788 10.7757C234.685 11.199 234.947 11.9397 234.947 12.6592C234.947 13.5481 234.532 14.4793 233.482 14.839ZM231.996 11.2836C231.449 11.2836 231.231 11.326 231.231 11.326V14.1195C231.231 14.1195 231.537 14.1618 231.974 14.1618C233.111 14.1618 233.417 13.5481 233.417 12.7439C233.417 11.8762 233.132 11.2836 231.996 11.2836Z" fill="#E0F5EE" fill-opacity="0.55"/>
<path d="M214.441 12.7862C214.441 11.3048 215.36 10.3736 217.24 10.3736C219.295 10.3736 219.972 11.2625 219.928 13.0613H215.994C216.081 14.0772 216.999 14.2888 217.917 14.2888C218.551 14.2888 219.032 14.2041 219.491 14.1406V14.9237C219.491 14.9237 218.573 15.1141 217.546 15.1141C215.841 15.1141 214.441 14.5216 214.441 12.7862ZM217.196 11.1778C216.343 11.1778 216.015 11.7281 216.015 12.3418H218.376C218.376 11.7492 218.18 11.1778 217.196 11.1778Z" fill="#E0F5EE" fill-opacity="0.55"/>
<path d="M236.171 10.9662H237.658V15.0083H236.171V10.9662Z" fill="#E0F5EE" fill-opacity="0.55"/>
<path d="M236.171 8.97685H237.658V10.2678H236.171V8.97685Z" fill="#E0F5EE" fill-opacity="0.55"/>
<path d="M223.251 14.839V13.8655C223.251 13.8655 224.476 14.1195 225.416 14.1195C226.05 14.1195 227.099 13.9713 227.099 13.2941C227.099 12.0878 223.208 12.9767 223.208 10.8392C223.208 9.42127 224.65 8.97685 226.268 8.97685C227.296 8.97685 228.148 9.14615 228.148 9.14615V10.0773C228.148 10.0773 227.317 9.90802 226.399 9.90802C225.831 9.90802 224.782 10.035 224.782 10.6699C224.782 12.0032 228.717 10.8604 228.717 13.146C228.717 14.5639 226.99 15.0083 225.569 15.0083C224.257 15.0507 223.251 14.839 223.251 14.839Z" fill="#E0F5EE" fill-opacity="0.55"/>
<path d="M170.95 12.8074L169.791 6.54309C169.704 6.09866 169.332 5.95052 169.026 6.01401L162.249 7.15682C162.053 7.19915 161.922 7.26263 161.747 7.41078C161.747 7.41078 160.02 8.97685 159.779 9.2308C159.517 9.48476 159.364 9.80221 159.451 10.289L160.763 17.4633C160.85 17.9077 161.266 18.0347 161.55 17.9923C161.834 17.95 168.502 16.8072 168.851 16.7437C169.201 16.6802 169.551 16.4474 169.813 15.9818L170.841 13.8232C171.016 13.4423 171.037 13.3364 170.95 12.8074ZM167.321 7.36845C167.124 7.51659 166.6 7.6859 166.119 7.74939C165.638 7.81288 165.419 7.74939 165.594 7.60124C165.791 7.4531 166.316 7.2838 166.796 7.22031C167.277 7.15682 167.496 7.22031 167.321 7.36845ZM166.228 7.09333L164.72 7.53776H163.627L165.135 7.09333H166.228ZM162.184 7.43194L163.67 7.17798L163.211 7.64357L161.703 7.87637L162.184 7.43194ZM161.55 17.2516L161.266 15.6644L162.905 15.3893L163.189 16.9765L161.55 17.2516ZM162.883 14.9237L161.812 13.6962L162.381 12.1725L163.452 13.3999L162.883 14.9237ZM164.414 12.3629C163.889 12.4476 163.408 12.109 163.321 11.6222C163.233 11.1143 163.583 10.6487 164.086 10.5641C164.61 10.4794 165.091 10.818 165.179 11.3048C165.288 11.7915 164.938 12.2571 164.414 12.3629ZM166.556 11.2625L165.266 9.78104L167.234 9.44244L166.556 11.2625ZM167.256 8.19381L165.791 8.21497L167.693 7.66473L167.256 8.19381ZM169.595 7.26263L169.682 8.91336L169.223 7.79171L169.595 7.26263ZM169.092 8.70173C169.179 8.55358 169.332 8.80754 169.42 9.27313C169.507 9.71756 169.485 10.2043 169.398 10.3524C169.31 10.5006 169.157 10.2466 169.07 9.78104C168.983 9.31546 168.983 8.84987 169.092 8.70173ZM169.07 10.5641L169.464 11.6434L169.551 13.2095L169.157 12.1513L169.07 10.5641ZM169.573 15.5797L169.289 14.056L169.595 13.4846L169.857 14.9872L169.573 15.5797Z" fill="#E0F5EE" fill-opacity="0.55"/>
<path d="M96.2954 15.0083H94V8.99801H96.2954C97.607 8.99801 100.405 8.87103 100.405 12.0032C100.405 15.1353 97.607 15.0083 96.2954 15.0083ZM96.4703 9.90802H95.5084V14.0983H96.4703C97.2573 14.0983 98.7875 14.2465 98.7875 12.0032C98.7875 9.78104 97.2573 9.90802 96.4703 9.90802Z" fill="#E0F5EE" fill-opacity="0.55"/>
<path d="M103.881 15.093C102.548 15.0718 101.345 14.8814 101.345 13.6327C101.345 12.1936 103.378 12.2571 104.93 12.2571C104.93 11.5587 104.93 11.2413 103.575 11.2413C102.854 11.2413 102.11 11.3471 101.717 11.4106V10.5641C102.176 10.4794 103.072 10.3948 103.641 10.3948C104.952 10.3948 106.395 10.5006 106.395 11.8974V14.9872C105.477 15.0718 104.712 15.1141 103.881 15.093ZM104.93 13.0613C104.734 13.0613 104.231 13.0613 104.078 13.0613C103.466 13.0613 102.897 13.1248 102.897 13.7174C102.897 14.31 103.466 14.3311 104.078 14.3311C104.384 14.3311 104.646 14.3099 104.93 14.2888V13.0613Z" fill="#E0F5EE" fill-opacity="0.55"/>
<path d="M116.67 15.093C115.905 15.093 115.205 15.0083 114.658 14.9025V14.056C115.205 14.1618 115.795 14.2676 116.451 14.2676C116.998 14.2676 117.785 14.1618 117.785 13.7174C117.785 13.2941 117.216 13.273 116.342 13.1037C116.036 13.0402 114.637 12.8285 114.637 11.7704C114.637 10.6487 116.058 10.3736 117.063 10.3736C118.112 10.3736 118.725 10.4794 118.987 10.5006V11.3048C118.834 11.2836 118.047 11.1566 117.347 11.1566C116.866 11.1566 116.145 11.2201 116.145 11.6434C116.145 12.0455 116.954 12.1301 117.479 12.2148C118.178 12.3206 119.359 12.5534 119.359 13.5269C119.337 14.5216 118.287 15.093 116.67 15.093Z" fill="#E0F5EE" fill-opacity="0.55"/>
<path d="M124.212 15.0083L122.069 12.7227V15.0083H120.583V8.97685H122.069V12.4688L124.255 10.4794H126.048L123.578 12.5746L126.135 15.0083H124.212Z" fill="#E0F5EE" fill-opacity="0.55"/>
<path d="M151.363 8.97685H152.849V15.0083H151.363V8.97685Z" fill="#E0F5EE" fill-opacity="0.55"/>
<path d="M111.685 15.0083V12.0667C111.685 11.8339 111.664 11.3048 110.898 11.3048C110.374 11.3048 109.915 11.3683 109.521 11.3894V14.9872H108.035V10.6276C109.477 10.4794 110.68 10.3948 111.467 10.4159C112.254 10.4371 113.15 10.7757 113.15 11.8339V15.0083H111.685Z" fill="#E0F5EE" fill-opacity="0.55"/>
<path d="M145.482 14.839C145.111 14.966 144.586 15.0295 144.039 15.0295C143.733 15.0295 143.537 15.0083 143.231 14.9872V16.786H141.744V10.4794C142.203 10.4583 143.121 10.4159 143.711 10.4159C144.498 10.4159 145.154 10.4794 145.788 10.7757C146.685 11.199 146.947 11.9397 146.947 12.6592C146.947 13.5481 146.532 14.4793 145.482 14.839ZM143.996 11.2836C143.449 11.2836 143.231 11.326 143.231 11.326V14.1195C143.231 14.1195 143.537 14.1618 143.974 14.1618C145.111 14.1618 145.417 13.5481 145.417 12.7439C145.417 11.8762 145.132 11.2836 143.996 11.2836Z" fill="#E0F5EE" fill-opacity="0.55"/>
<path d="M126.441 12.7862C126.441 11.3048 127.36 10.3736 129.24 10.3736C131.295 10.3736 131.972 11.2625 131.928 13.0613H127.994C128.081 14.0772 128.999 14.2888 129.917 14.2888C130.551 14.2888 131.032 14.2041 131.491 14.1406V14.9237C131.491 14.9237 130.573 15.1141 129.546 15.1141C127.841 15.1141 126.441 14.5216 126.441 12.7862ZM129.196 11.1778C128.343 11.1778 128.015 11.7281 128.015 12.3418H130.376C130.376 11.7492 130.18 11.1778 129.196 11.1778Z" fill="#E0F5EE" fill-opacity="0.55"/>
<path d="M148.171 10.9662H149.658V15.0083H148.171V10.9662Z" fill="#E0F5EE" fill-opacity="0.55"/>
<path d="M148.171 8.97685H149.658V10.2678H148.171V8.97685Z" fill="#E0F5EE" fill-opacity="0.55"/>
<path d="M135.251 14.839V13.8655C135.251 13.8655 136.476 14.1195 137.416 14.1195C138.05 14.1195 139.099 13.9713 139.099 13.2941C139.099 12.0878 135.208 12.9767 135.208 10.8392C135.208 9.42127 136.65 8.97685 138.268 8.97685C139.296 8.97685 140.148 9.14615 140.148 9.14615V10.0773C140.148 10.0773 139.317 9.90802 138.399 9.90802C137.831 9.90802 136.782 10.035 136.782 10.6699C136.782 12.0032 140.717 10.8604 140.717 13.146C140.717 14.5639 138.99 15.0083 137.569 15.0083C136.257 15.0507 135.251 14.839 135.251 14.839Z" fill="#E0F5EE" fill-opacity="0.55"/>
<path d="M36.95 84.8074L35.7914 78.5431C35.704 78.0987 35.3323 77.9505 35.0263 78.014L28.2494 79.1568C28.0527 79.1991 27.9215 79.2626 27.7466 79.4108C27.7466 79.4108 26.0196 80.9768 25.7792 81.2308C25.5168 81.4848 25.3638 81.8022 25.4513 82.289L26.7629 89.4633C26.8504 89.9077 27.2657 90.0347 27.5499 89.9923C27.8341 89.95 34.5016 88.8072 34.8514 88.7437C35.2012 88.6802 35.5509 88.4474 35.8133 87.9818L36.8407 85.8232C37.0156 85.4423 37.0375 85.3365 36.95 84.8074ZM33.3212 79.3685C33.1244 79.5166 32.5997 79.6859 32.1188 79.7494C31.6379 79.8129 31.4193 79.7494 31.5941 79.6012C31.7909 79.4531 32.3156 79.2838 32.7965 79.2203C33.2774 79.1568 33.496 79.2203 33.3212 79.3685ZM32.2281 79.0933L30.7197 79.5378H29.6267L31.1351 79.0933H32.2281ZM28.1839 79.4319L29.6704 79.178L29.2113 79.6436L27.7029 79.8764L28.1839 79.4319ZM27.5499 89.2516L27.2657 87.6644L28.9053 87.3893L29.1895 88.9765L27.5499 89.2516ZM28.8834 86.9237L27.8122 85.6962L28.3806 84.1725L29.4518 85.3999L28.8834 86.9237ZM30.4137 84.3629C29.889 84.4476 29.4081 84.109 29.3206 83.6222C29.2332 83.1143 29.583 82.6487 30.0858 82.5641C30.6104 82.4794 31.0914 82.818 31.1788 83.3048C31.2881 83.7915 30.9383 84.2571 30.4137 84.3629ZM32.556 83.2625L31.2662 81.781L33.2337 81.4424L32.556 83.2625ZM33.2556 80.1938L31.7909 80.215L33.6928 79.6647L33.2556 80.1938ZM35.5947 79.2626L35.6821 80.9134L35.223 79.7917L35.5947 79.2626ZM35.0919 80.7017C35.1793 80.5536 35.3323 80.8075 35.4198 81.2731C35.5072 81.7176 35.4854 82.2043 35.3979 82.3524C35.3105 82.5006 35.1575 82.2466 35.07 81.781C34.9826 81.3155 34.9826 80.8499 35.0919 80.7017ZM35.07 82.5641L35.4635 83.6434L35.551 85.2095L35.1575 84.1513L35.07 82.5641ZM35.5728 87.5797L35.2886 86.056L35.5947 85.4846L35.857 86.9872L35.5728 87.5797Z" fill="#E0F5EE" fill-opacity="0.55"/>
<path d="M-37.7046 87.0083H-40V80.998H-37.7046C-36.393 80.998 -33.5948 80.871 -33.5948 84.0032C-33.5948 87.1353 -36.393 87.0083 -37.7046 87.0083ZM-37.5297 81.908H-38.4916V86.0983H-37.5297C-36.7427 86.0983 -35.2125 86.2465 -35.2125 84.0032C-35.2125 81.781 -36.7427 81.908 -37.5297 81.908Z" fill="#E0F5EE" fill-opacity="0.55"/>
<path d="M-30.1189 87.093C-31.4524 87.0718 -32.6548 86.8814 -32.6548 85.6327C-32.6548 84.1936 -30.6217 84.2571 -29.0696 84.2571C-29.0696 83.5587 -29.0696 83.2413 -30.425 83.2413C-31.1464 83.2413 -31.8896 83.3471 -32.2831 83.4106V82.5641C-31.8241 82.4794 -30.9278 82.3948 -30.3594 82.3948C-29.0477 82.3948 -27.6049 82.5006 -27.6049 83.8974V86.9872C-28.5231 87.0718 -29.2882 87.1142 -30.1189 87.093ZM-29.0696 85.0613C-29.2663 85.0613 -29.7691 85.0613 -29.9222 85.0613C-30.5343 85.0613 -31.1027 85.1248 -31.1027 85.7174C-31.1027 86.31 -30.5343 86.3311 -29.9222 86.3311C-29.6161 86.3311 -29.3538 86.31 -29.0696 86.2888V85.0613Z" fill="#E0F5EE" fill-opacity="0.55"/>
<path d="M-17.3303 87.093C-18.0955 87.093 -18.795 87.0083 -19.3415 86.9025V86.056C-18.795 86.1618 -18.2048 86.2676 -17.549 86.2676C-17.0024 86.2676 -16.2154 86.1618 -16.2154 85.7174C-16.2154 85.2941 -16.7838 85.273 -17.6583 85.1037C-17.9643 85.0402 -19.3634 84.8285 -19.3634 83.7704C-19.3634 82.6487 -17.9424 82.3736 -16.9368 82.3736C-15.8875 82.3736 -15.2754 82.4794 -15.0131 82.5006V83.3048C-15.1661 83.2836 -15.9531 83.1566 -16.6527 83.1566C-17.1336 83.1566 -17.855 83.2201 -17.855 83.6434C-17.855 84.0455 -17.0462 84.1302 -16.5215 84.2148C-15.8219 84.3206 -14.6415 84.5534 -14.6415 85.5269C-14.6633 86.5216 -15.7126 87.093 -17.3303 87.093Z" fill="#E0F5EE" fill-opacity="0.55"/>
<path d="M-9.78836 87.0083L-11.9307 84.7227V87.0083H-13.4173V80.9768H-11.9307V84.4688L-9.74464 82.4794H-7.95205L-10.4223 84.5746L-7.86461 87.0083H-9.78836Z" fill="#E0F5EE" fill-opacity="0.55"/>
<path d="M17.3628 80.9768H18.8493V87.0083H17.3628V80.9768Z" fill="#E0F5EE" fill-opacity="0.55"/>
<path d="M-22.3146 87.0083V84.0667C-22.3146 83.8339 -22.3365 83.3048 -23.1016 83.3048C-23.6263 83.3048 -24.0853 83.3683 -24.4788 83.3894V86.9872H-25.9654V82.6276C-24.5225 82.4794 -23.3202 82.3948 -22.5332 82.4159C-21.7462 82.4371 -20.8499 82.7757 -20.8499 83.8339V87.0083H-22.3146Z" fill="#E0F5EE" fill-opacity="0.55"/>
<path d="M11.4822 86.839C11.1106 86.966 10.5859 87.0295 10.0394 87.0295C9.73334 87.0295 9.53659 87.0083 9.23054 86.9872V88.786H7.744V82.4794C8.20308 82.4583 9.12123 82.4159 9.71148 82.4159C10.4985 82.4159 11.1543 82.4794 11.7883 82.7757C12.6845 83.199 12.9469 83.9397 12.9469 84.6592C12.9469 85.5481 12.5315 86.4793 11.4822 86.839ZM9.99567 83.2836C9.44915 83.2836 9.23054 83.326 9.23054 83.326V86.1195C9.23054 86.1195 9.53659 86.1618 9.97381 86.1618C11.1106 86.1618 11.4166 85.5481 11.4166 84.7439C11.4166 83.8762 11.1324 83.2836 9.99567 83.2836Z" fill="#E0F5EE" fill-opacity="0.55"/>
<path d="M-7.55856 84.7862C-7.55856 83.3048 -6.64041 82.3736 -4.76038 82.3736C-2.70546 82.3736 -2.02778 83.2625 -2.0715 85.0613H-6.00644C-5.919 86.0772 -5.00085 86.2888 -4.08269 86.2888C-3.44873 86.2888 -2.96779 86.2041 -2.50871 86.1406V86.9237C-2.50871 86.9237 -3.42686 87.1142 -4.45432 87.1142C-6.15947 87.1142 -7.55856 86.5216 -7.55856 84.7862ZM-4.8041 83.1778C-5.65667 83.1778 -5.98458 83.7281 -5.98458 84.3418H-3.62362C-3.62362 83.7492 -3.82036 83.1778 -4.8041 83.1778Z" fill="#E0F5EE" fill-opacity="0.55"/>
<path d="M14.1711 82.9662H15.6576V87.0083H14.1711V82.9662Z" fill="#E0F5EE" fill-opacity="0.55"/>
<path d="M14.1711 80.9768H15.6576V82.2678H14.1711V80.9768Z" fill="#E0F5EE" fill-opacity="0.55"/>
<path d="M1.25134 86.839V85.8655C1.25134 85.8655 2.47555 86.1195 3.41557 86.1195C4.04953 86.1195 5.09885 85.9713 5.09885 85.2941C5.09885 84.0878 1.20762 84.9767 1.20762 82.8392C1.20762 81.4213 2.65044 80.9768 4.26814 80.9768C5.29559 80.9768 6.14817 81.1461 6.14817 81.1461V82.0773C6.14817 82.0773 5.31746 81.908 4.3993 81.908C3.83092 81.908 2.7816 82.035 2.7816 82.6699C2.7816 84.0032 6.71655 82.8604 6.71655 85.146C6.71655 86.5639 4.98954 87.0083 3.56859 87.0083C2.25694 87.0507 1.25134 86.839 1.25134 86.839Z" fill="#E0F5EE" fill-opacity="0.55"/>
<path d="M124.95 84.8074L123.791 78.5431C123.704 78.0987 123.332 77.9505 123.026 78.014L116.249 79.1568C116.053 79.1991 115.922 79.2626 115.747 79.4108C115.747 79.4108 114.02 80.9768 113.779 81.2308C113.517 81.4848 113.364 81.8022 113.451 82.289L114.763 89.4633C114.85 89.9077 115.266 90.0347 115.55 89.9923C115.834 89.95 122.502 88.8072 122.851 88.7437C123.201 88.6802 123.551 88.4474 123.813 87.9818L124.841 85.8232C125.016 85.4423 125.037 85.3365 124.95 84.8074ZM121.321 79.3685C121.124 79.5166 120.6 79.6859 120.119 79.7494C119.638 79.8129 119.419 79.7494 119.594 79.6012C119.791 79.4531 120.316 79.2838 120.796 79.2203C121.277 79.1568 121.496 79.2203 121.321 79.3685ZM120.228 79.0933L118.72 79.5378H117.627L119.135 79.0933H120.228ZM116.184 79.4319L117.67 79.178L117.211 79.6436L115.703 79.8764L116.184 79.4319ZM115.55 89.2516L115.266 87.6644L116.905 87.3893L117.189 88.9765L115.55 89.2516ZM116.883 86.9237L115.812 85.6962L116.381 84.1725L117.452 85.3999L116.883 86.9237ZM118.414 84.3629C117.889 84.4476 117.408 84.109 117.321 83.6222C117.233 83.1143 117.583 82.6487 118.086 82.5641C118.61 82.4794 119.091 82.818 119.179 83.3048C119.288 83.7915 118.938 84.2571 118.414 84.3629ZM120.556 83.2625L119.266 81.781L121.234 81.4424L120.556 83.2625ZM121.256 80.1938L119.791 80.215L121.693 79.6647L121.256 80.1938ZM123.595 79.2626L123.682 80.9134L123.223 79.7917L123.595 79.2626ZM123.092 80.7017C123.179 80.5536 123.332 80.8075 123.42 81.2731C123.507 81.7176 123.485 82.2043 123.398 82.3524C123.31 82.5006 123.157 82.2466 123.07 81.781C122.983 81.3155 122.983 80.8499 123.092 80.7017ZM123.07 82.5641L123.464 83.6434L123.551 85.2095L123.157 84.1513L123.07 82.5641ZM123.573 87.5797L123.289 86.056L123.595 85.4846L123.857 86.9872L123.573 87.5797Z" fill="#E0F5EE" fill-opacity="0.55"/>
<path d="M50.2954 87.0083H48V80.998H50.2954C51.607 80.998 54.4052 80.871 54.4052 84.0032C54.4052 87.1353 51.607 87.0083 50.2954 87.0083ZM50.4703 81.908H49.5084V86.0983H50.4703C51.2573 86.0983 52.7875 86.2465 52.7875 84.0032C52.7875 81.781 51.2573 81.908 50.4703 81.908Z" fill="#E0F5EE" fill-opacity="0.55"/>
<path d="M57.8811 87.093C56.5476 87.0718 55.3452 86.8814 55.3452 85.6327C55.3452 84.1936 57.3783 84.2571 58.9304 84.2571C58.9304 83.5587 58.9304 83.2413 57.575 83.2413C56.8536 83.2413 56.1104 83.3471 55.7169 83.4106V82.5641C56.1759 82.4794 57.0722 82.3948 57.6406 82.3948C58.9523 82.3948 60.3951 82.5006 60.3951 83.8974V86.9872C59.4769 87.0718 58.7118 87.1142 57.8811 87.093ZM58.9304 85.0613C58.7337 85.0613 58.2309 85.0613 58.0778 85.0613C57.4657 85.0613 56.8973 85.1248 56.8973 85.7174C56.8973 86.31 57.4657 86.3311 58.0778 86.3311C58.3839 86.3311 58.6462 86.31 58.9304 86.2888V85.0613Z" fill="#E0F5EE" fill-opacity="0.55"/>
<path d="M70.6697 87.093C69.9045 87.093 69.205 87.0083 68.6585 86.9025V86.056C69.205 86.1618 69.7952 86.2676 70.451 86.2676C70.9976 86.2676 71.7846 86.1618 71.7846 85.7174C71.7846 85.2941 71.2162 85.273 70.3417 85.1037C70.0357 85.0402 68.6366 84.8285 68.6366 83.7704C68.6366 82.6487 70.0576 82.3736 71.0632 82.3736C72.1125 82.3736 72.7246 82.4794 72.9869 82.5006V83.3048C72.8339 83.2836 72.0469 83.1566 71.3473 83.1566C70.8664 83.1566 70.145 83.2201 70.145 83.6434C70.145 84.0455 70.9538 84.1302 71.4785 84.2148C72.1781 84.3206 73.3585 84.5534 73.3585 85.5269C73.3367 86.5216 72.2874 87.093 70.6697 87.093Z" fill="#E0F5EE" fill-opacity="0.55"/>
<path d="M78.2116 87.0083L76.0693 84.7227V87.0083H74.5827V80.9768H76.0693V84.4688L78.2554 82.4794H80.0479L77.5777 84.5746L80.1354 87.0083H78.2116Z" fill="#E0F5EE" fill-opacity="0.55"/>
<path d="M105.363 80.9768H106.849V87.0083H105.363V80.9768Z" fill="#E0F5EE" fill-opacity="0.55"/>
<path d="M65.6854 87.0083V84.0667C65.6854 83.8339 65.6635 83.3048 64.8984 83.3048C64.3737 83.3048 63.9147 83.3683 63.5212 83.3894V86.9872H62.0346V82.6276C63.4775 82.4794 64.6798 82.3948 65.4668 82.4159C66.2538 82.4371 67.1501 82.7757 67.1501 83.8339V87.0083H65.6854Z" fill="#E0F5EE" fill-opacity="0.55"/>
<path d="M99.4822 86.839C99.1106 86.966 98.5859 87.0295 98.0394 87.0295C97.7333 87.0295 97.5366 87.0083 97.2305 86.9872V88.786H95.744V82.4794C96.2031 82.4583 97.1212 82.4159 97.7115 82.4159C98.4985 82.4159 99.1543 82.4794 99.7883 82.7757C100.685 83.199 100.947 83.9397 100.947 84.6592C100.947 85.5481 100.532 86.4793 99.4822 86.839ZM97.9957 83.2836C97.4491 83.2836 97.2305 83.326 97.2305 83.326V86.1195C97.2305 86.1195 97.5366 86.1618 97.9738 86.1618C99.1106 86.1618 99.4166 85.5481 99.4166 84.7439C99.4166 83.8762 99.1324 83.2836 97.9957 83.2836Z" fill="#E0F5EE" fill-opacity="0.55"/>
<path d="M80.4414 84.7862C80.4414 83.3048 81.3596 82.3736 83.2396 82.3736C85.2945 82.3736 85.9722 83.2625 85.9285 85.0613H81.9936C82.081 86.0772 82.9992 86.2888 83.9173 86.2888C84.5513 86.2888 85.0322 86.2041 85.4913 86.1406V86.9237C85.4913 86.9237 84.5731 87.1142 83.5457 87.1142C81.8405 87.1142 80.4414 86.5216 80.4414 84.7862ZM83.1959 83.1778C82.3433 83.1778 82.0154 83.7281 82.0154 84.3418H84.3764C84.3764 83.7492 84.1796 83.1778 83.1959 83.1778Z" fill="#E0F5EE" fill-opacity="0.55"/>
<path d="M102.171 82.9662H103.658V87.0083H102.171V82.9662Z" fill="#E0F5EE" fill-opacity="0.55"/>
<path d="M102.171 80.9768H103.658V82.2678H102.171V80.9768Z" fill="#E0F5EE" fill-opacity="0.55"/>
<path d="M89.2513 86.839V85.8655C89.2513 85.8655 90.4756 86.1195 91.4156 86.1195C92.0495 86.1195 93.0988 85.9713 93.0988 85.2941C93.0988 84.0878 89.2076 84.9767 89.2076 82.8392C89.2076 81.4213 90.6504 80.9768 92.2681 80.9768C93.2956 80.9768 94.1482 81.1461 94.1482 81.1461V82.0773C94.1482 82.0773 93.3175 81.908 92.3993 81.908C91.8309 81.908 90.7816 82.035 90.7816 82.6699C90.7816 84.0032 94.7166 82.8604 94.7166 85.146C94.7166 86.5639 92.9895 87.0083 91.5686 87.0083C90.2569 87.0507 89.2513 86.839 89.2513 86.839Z" fill="#E0F5EE" fill-opacity="0.55"/>
<path d="M300.95 84.8074L299.791 78.5431C299.704 78.0987 299.332 77.9505 299.026 78.014L292.249 79.1568C292.053 79.1991 291.922 79.2626 291.747 79.4108C291.747 79.4108 290.02 80.9768 289.779 81.2308C289.517 81.4848 289.364 81.8022 289.451 82.289L290.763 89.4633C290.85 89.9077 291.266 90.0347 291.55 89.9923C291.834 89.95 298.502 88.8072 298.851 88.7437C299.201 88.6802 299.551 88.4474 299.813 87.9818L300.841 85.8232C301.016 85.4423 301.037 85.3365 300.95 84.8074ZM297.321 79.3685C297.124 79.5166 296.6 79.6859 296.119 79.7494C295.638 79.8129 295.419 79.7494 295.594 79.6012C295.791 79.4531 296.316 79.2838 296.796 79.2203C297.277 79.1568 297.496 79.2203 297.321 79.3685ZM296.228 79.0933L294.72 79.5378H293.627L295.135 79.0933H296.228ZM292.184 79.4319L293.67 79.178L293.211 79.6436L291.703 79.8764L292.184 79.4319ZM291.55 89.2516L291.266 87.6644L292.905 87.3893L293.189 88.9765L291.55 89.2516ZM292.883 86.9237L291.812 85.6962L292.381 84.1725L293.452 85.3999L292.883 86.9237ZM294.414 84.3629C293.889 84.4476 293.408 84.109 293.321 83.6222C293.233 83.1143 293.583 82.6487 294.086 82.5641C294.61 82.4794 295.091 82.818 295.179 83.3048C295.288 83.7915 294.938 84.2571 294.414 84.3629ZM296.556 83.2625L295.266 81.781L297.234 81.4424L296.556 83.2625ZM297.256 80.1938L295.791 80.215L297.693 79.6647L297.256 80.1938ZM299.595 79.2626L299.682 80.9134L299.223 79.7917L299.595 79.2626ZM299.092 80.7017C299.179 80.5536 299.332 80.8075 299.42 81.2731C299.507 81.7176 299.485 82.2043 299.398 82.3524C299.31 82.5006 299.157 82.2466 299.07 81.781C298.983 81.3155 298.983 80.8499 299.092 80.7017ZM299.07 82.5641L299.464 83.6434L299.551 85.2095L299.157 84.1513L299.07 82.5641ZM299.573 87.5797L299.289 86.056L299.595 85.4846L299.857 86.9872L299.573 87.5797Z" fill="#E0F5EE" fill-opacity="0.55"/>
<path d="M226.295 87.0083H224V80.998H226.295C227.607 80.998 230.405 80.871 230.405 84.0032C230.405 87.1353 227.607 87.0083 226.295 87.0083ZM226.47 81.908H225.508V86.0983H226.47C227.257 86.0983 228.788 86.2465 228.788 84.0032C228.788 81.781 227.257 81.908 226.47 81.908Z" fill="#E0F5EE" fill-opacity="0.55"/>
<path d="M233.881 87.093C232.548 87.0718 231.345 86.8814 231.345 85.6327C231.345 84.1936 233.378 84.2571 234.93 84.2571C234.93 83.5587 234.93 83.2413 233.575 83.2413C232.854 83.2413 232.11 83.3471 231.717 83.4106V82.5641C232.176 82.4794 233.072 82.3948 233.641 82.3948C234.952 82.3948 236.395 82.5006 236.395 83.8974V86.9872C235.477 87.0718 234.712 87.1142 233.881 87.093ZM234.93 85.0613C234.734 85.0613 234.231 85.0613 234.078 85.0613C233.466 85.0613 232.897 85.1248 232.897 85.7174C232.897 86.31 233.466 86.3311 234.078 86.3311C234.384 86.3311 234.646 86.31 234.93 86.2888V85.0613Z" fill="#E0F5EE" fill-opacity="0.55"/>
<path d="M246.67 87.093C245.905 87.093 245.205 87.0083 244.658 86.9025V86.056C245.205 86.1618 245.795 86.2676 246.451 86.2676C246.998 86.2676 247.785 86.1618 247.785 85.7174C247.785 85.2941 247.216 85.273 246.342 85.1037C246.036 85.0402 244.637 84.8285 244.637 83.7704C244.637 82.6487 246.058 82.3736 247.063 82.3736C248.112 82.3736 248.725 82.4794 248.987 82.5006V83.3048C248.834 83.2836 248.047 83.1566 247.347 83.1566C246.866 83.1566 246.145 83.2201 246.145 83.6434C246.145 84.0455 246.954 84.1302 247.479 84.2148C248.178 84.3206 249.359 84.5534 249.359 85.5269C249.337 86.5216 248.287 87.093 246.67 87.093Z" fill="#E0F5EE" fill-opacity="0.55"/>
<path d="M254.212 87.0083L252.069 84.7227V87.0083H250.583V80.9768H252.069V84.4688L254.255 82.4794H256.048L253.578 84.5746L256.135 87.0083H254.212Z" fill="#E0F5EE" fill-opacity="0.55"/>
<path d="M281.363 80.9768H282.849V87.0083H281.363V80.9768Z" fill="#E0F5EE" fill-opacity="0.55"/>
<path d="M241.685 87.0083V84.0667C241.685 83.8339 241.664 83.3048 240.898 83.3048C240.374 83.3048 239.915 83.3683 239.521 83.3894V86.9872H238.035V82.6276C239.477 82.4794 240.68 82.3948 241.467 82.4159C242.254 82.4371 243.15 82.7757 243.15 83.8339V87.0083H241.685Z" fill="#E0F5EE" fill-opacity="0.55"/>
<path d="M275.482 86.839C275.111 86.966 274.586 87.0295 274.039 87.0295C273.733 87.0295 273.537 87.0083 273.231 86.9872V88.786H271.744V82.4794C272.203 82.4583 273.121 82.4159 273.711 82.4159C274.498 82.4159 275.154 82.4794 275.788 82.7757C276.685 83.199 276.947 83.9397 276.947 84.6592C276.947 85.5481 276.532 86.4793 275.482 86.839ZM273.996 83.2836C273.449 83.2836 273.231 83.326 273.231 83.326V86.1195C273.231 86.1195 273.537 86.1618 273.974 86.1618C275.111 86.1618 275.417 85.5481 275.417 84.7439C275.417 83.8762 275.132 83.2836 273.996 83.2836Z" fill="#E0F5EE" fill-opacity="0.55"/>
<path d="M256.441 84.7862C256.441 83.3048 257.36 82.3736 259.24 82.3736C261.295 82.3736 261.972 83.2625 261.928 85.0613H257.994C258.081 86.0772 258.999 86.2888 259.917 86.2888C260.551 86.2888 261.032 86.2041 261.491 86.1406V86.9237C261.491 86.9237 260.573 87.1142 259.546 87.1142C257.841 87.1142 256.441 86.5216 256.441 84.7862ZM259.196 83.1778C258.343 83.1778 258.015 83.7281 258.015 84.3418H260.376C260.376 83.7492 260.18 83.1778 259.196 83.1778Z" fill="#E0F5EE" fill-opacity="0.55"/>
<path d="M278.171 82.9662H279.658V87.0083H278.171V82.9662Z" fill="#E0F5EE" fill-opacity="0.55"/>
<path d="M278.171 80.9768H279.658V82.2678H278.171V80.9768Z" fill="#E0F5EE" fill-opacity="0.55"/>
<path d="M265.251 86.839V85.8655C265.251 85.8655 266.476 86.1195 267.416 86.1195C268.05 86.1195 269.099 85.9713 269.099 85.2941C269.099 84.0878 265.208 84.9767 265.208 82.8392C265.208 81.4213 266.65 80.9768 268.268 80.9768C269.296 80.9768 270.148 81.1461 270.148 81.1461V82.0773C270.148 82.0773 269.317 81.908 268.399 81.908C267.831 81.908 266.782 82.035 266.782 82.6699C266.782 84.0032 270.717 82.8604 270.717 85.146C270.717 86.5639 268.99 87.0083 267.569 87.0083C266.257 87.0507 265.251 86.839 265.251 86.839Z" fill="#E0F5EE" fill-opacity="0.55"/>
<path d="M212.95 84.8074L211.791 78.5431C211.704 78.0987 211.332 77.9505 211.026 78.014L204.249 79.1568C204.053 79.1991 203.922 79.2626 203.747 79.4108C203.747 79.4108 202.02 80.9768 201.779 81.2308C201.517 81.4848 201.364 81.8022 201.451 82.289L202.763 89.4633C202.85 89.9077 203.266 90.0347 203.55 89.9923C203.834 89.95 210.502 88.8072 210.851 88.7437C211.201 88.6802 211.551 88.4474 211.813 87.9818L212.841 85.8232C213.016 85.4423 213.037 85.3365 212.95 84.8074ZM209.321 79.3685C209.124 79.5166 208.6 79.6859 208.119 79.7494C207.638 79.8129 207.419 79.7494 207.594 79.6012C207.791 79.4531 208.316 79.2838 208.796 79.2203C209.277 79.1568 209.496 79.2203 209.321 79.3685ZM208.228 79.0933L206.72 79.5378H205.627L207.135 79.0933H208.228ZM204.184 79.4319L205.67 79.178L205.211 79.6436L203.703 79.8764L204.184 79.4319ZM203.55 89.2516L203.266 87.6644L204.905 87.3893L205.189 88.9765L203.55 89.2516ZM204.883 86.9237L203.812 85.6962L204.381 84.1725L205.452 85.3999L204.883 86.9237ZM206.414 84.3629C205.889 84.4476 205.408 84.109 205.321 83.6222C205.233 83.1143 205.583 82.6487 206.086 82.5641C206.61 82.4794 207.091 82.818 207.179 83.3048C207.288 83.7915 206.938 84.2571 206.414 84.3629ZM208.556 83.2625L207.266 81.781L209.234 81.4424L208.556 83.2625ZM209.256 80.1938L207.791 80.215L209.693 79.6647L209.256 80.1938ZM211.595 79.2626L211.682 80.9134L211.223 79.7917L211.595 79.2626ZM211.092 80.7017C211.179 80.5536 211.332 80.8075 211.42 81.2731C211.507 81.7176 211.485 82.2043 211.398 82.3524C211.31 82.5006 211.157 82.2466 211.07 81.781C210.983 81.3155 210.983 80.8499 211.092 80.7017ZM211.07 82.5641L211.464 83.6434L211.551 85.2095L211.157 84.1513L211.07 82.5641ZM211.573 87.5797L211.289 86.056L211.595 85.4846L211.857 86.9872L211.573 87.5797Z" fill="#E0F5EE" fill-opacity="0.55"/>
<path d="M138.295 87.0083H136V80.998H138.295C139.607 80.998 142.405 80.871 142.405 84.0032C142.405 87.1353 139.607 87.0083 138.295 87.0083ZM138.47 81.908H137.508V86.0983H138.47C139.257 86.0983 140.788 86.2465 140.788 84.0032C140.788 81.781 139.257 81.908 138.47 81.908Z" fill="#E0F5EE" fill-opacity="0.55"/>
<path d="M145.881 87.093C144.548 87.0718 143.345 86.8814 143.345 85.6327C143.345 84.1936 145.378 84.2571 146.93 84.2571C146.93 83.5587 146.93 83.2413 145.575 83.2413C144.854 83.2413 144.11 83.3471 143.717 83.4106V82.5641C144.176 82.4794 145.072 82.3948 145.641 82.3948C146.952 82.3948 148.395 82.5006 148.395 83.8974V86.9872C147.477 87.0718 146.712 87.1142 145.881 87.093ZM146.93 85.0613C146.734 85.0613 146.231 85.0613 146.078 85.0613C145.466 85.0613 144.897 85.1248 144.897 85.7174C144.897 86.31 145.466 86.3311 146.078 86.3311C146.384 86.3311 146.646 86.31 146.93 86.2888V85.0613Z" fill="#E0F5EE" fill-opacity="0.55"/>
<path d="M158.67 87.093C157.905 87.093 157.205 87.0083 156.658 86.9025V86.056C157.205 86.1618 157.795 86.2676 158.451 86.2676C158.998 86.2676 159.785 86.1618 159.785 85.7174C159.785 85.2941 159.216 85.273 158.342 85.1037C158.036 85.0402 156.637 84.8285 156.637 83.7704C156.637 82.6487 158.058 82.3736 159.063 82.3736C160.112 82.3736 160.725 82.4794 160.987 82.5006V83.3048C160.834 83.2836 160.047 83.1566 159.347 83.1566C158.866 83.1566 158.145 83.2201 158.145 83.6434C158.145 84.0455 158.954 84.1302 159.479 84.2148C160.178 84.3206 161.359 84.5534 161.359 85.5269C161.337 86.5216 160.287 87.093 158.67 87.093Z" fill="#E0F5EE" fill-opacity="0.55"/>
<path d="M166.212 87.0083L164.069 84.7227V87.0083H162.583V80.9768H164.069V84.4688L166.255 82.4794H168.048L165.578 84.5746L168.135 87.0083H166.212Z" fill="#E0F5EE" fill-opacity="0.55"/>
<path d="M193.363 80.9768H194.849V87.0083H193.363V80.9768Z" fill="#E0F5EE" fill-opacity="0.55"/>
<path d="M153.685 87.0083V84.0667C153.685 83.8339 153.664 83.3048 152.898 83.3048C152.374 83.3048 151.915 83.3683 151.521 83.3894V86.9872H150.035V82.6276C151.477 82.4794 152.68 82.3948 153.467 82.4159C154.254 82.4371 155.15 82.7757 155.15 83.8339V87.0083H153.685Z" fill="#E0F5EE" fill-opacity="0.55"/>
<path d="M187.482 86.839C187.111 86.966 186.586 87.0295 186.039 87.0295C185.733 87.0295 185.537 87.0083 185.231 86.9872V88.786H183.744V82.4794C184.203 82.4583 185.121 82.4159 185.711 82.4159C186.498 82.4159 187.154 82.4794 187.788 82.7757C188.685 83.199 188.947 83.9397 188.947 84.6592C188.947 85.5481 188.532 86.4793 187.482 86.839ZM185.996 83.2836C185.449 83.2836 185.231 83.326 185.231 83.326V86.1195C185.231 86.1195 185.537 86.1618 185.974 86.1618C187.111 86.1618 187.417 85.5481 187.417 84.7439C187.417 83.8762 187.132 83.2836 185.996 83.2836Z" fill="#E0F5EE" fill-opacity="0.55"/>
<path d="M168.441 84.7862C168.441 83.3048 169.36 82.3736 171.24 82.3736C173.295 82.3736 173.972 83.2625 173.928 85.0613H169.994C170.081 86.0772 170.999 86.2888 171.917 86.2888C172.551 86.2888 173.032 86.2041 173.491 86.1406V86.9237C173.491 86.9237 172.573 87.1142 171.546 87.1142C169.841 87.1142 168.441 86.5216 168.441 84.7862ZM171.196 83.1778C170.343 83.1778 170.015 83.7281 170.015 84.3418H172.376C172.376 83.7492 172.18 83.1778 171.196 83.1778Z" fill="#E0F5EE" fill-opacity="0.55"/>
<path d="M190.171 82.9662H191.658V87.0083H190.171V82.9662Z" fill="#E0F5EE" fill-opacity="0.55"/>
<path d="M190.171 80.9768H191.658V82.2678H190.171V80.9768Z" fill="#E0F5EE" fill-opacity="0.55"/>
<path d="M177.251 86.839V85.8655C177.251 85.8655 178.476 86.1195 179.416 86.1195C180.05 86.1195 181.099 85.9713 181.099 85.2941C181.099 84.0878 177.208 84.9767 177.208 82.8392C177.208 81.4213 178.65 80.9768 180.268 80.9768C181.296 80.9768 182.148 81.1461 182.148 81.1461V82.0773C182.148 82.0773 181.317 81.908 180.399 81.908C179.831 81.908 178.782 82.035 178.782 82.6699C178.782 84.0032 182.717 82.8604 182.717 85.146C182.717 86.5639 180.99 87.0083 179.569 87.0083C178.257 87.0507 177.251 86.839 177.251 86.839Z" fill="#E0F5EE" fill-opacity="0.55"/>
<path d="M36.95 36.8074L35.7914 30.5431C35.704 30.0987 35.3323 29.9505 35.0263 30.014L28.2494 31.1568C28.0527 31.1991 27.9215 31.2626 27.7466 31.4108C27.7466 31.4108 26.0196 32.9768 25.7792 33.2308C25.5168 33.4848 25.3638 33.8022 25.4513 34.289L26.7629 41.4633C26.8504 41.9077 27.2657 42.0347 27.5499 41.9923C27.8341 41.95 34.5016 40.8072 34.8514 40.7437C35.2012 40.6802 35.5509 40.4474 35.8133 39.9818L36.8407 37.8232C37.0156 37.4423 37.0375 37.3364 36.95 36.8074ZM33.3212 31.3685C33.1244 31.5166 32.5997 31.6859 32.1188 31.7494C31.6379 31.8129 31.4193 31.7494 31.5941 31.6012C31.7909 31.4531 32.3156 31.2838 32.7965 31.2203C33.2774 31.1568 33.496 31.2203 33.3212 31.3685ZM32.2281 31.0933L30.7197 31.5378H29.6267L31.1351 31.0933H32.2281ZM28.1839 31.4319L29.6704 31.178L29.2113 31.6436L27.7029 31.8764L28.1839 31.4319ZM27.5499 41.2516L27.2657 39.6644L28.9053 39.3893L29.1895 40.9765L27.5499 41.2516ZM28.8834 38.9237L27.8122 37.6962L28.3806 36.1725L29.4518 37.3999L28.8834 38.9237ZM30.4137 36.3629C29.889 36.4476 29.4081 36.109 29.3206 35.6222C29.2332 35.1143 29.583 34.6487 30.0858 34.5641C30.6104 34.4794 31.0914 34.818 31.1788 35.3048C31.2881 35.7915 30.9383 36.2571 30.4137 36.3629ZM32.556 35.2625L31.2662 33.781L33.2337 33.4424L32.556 35.2625ZM33.2556 32.1938L31.7909 32.215L33.6928 31.6647L33.2556 32.1938ZM35.5947 31.2626L35.6821 32.9134L35.223 31.7917L35.5947 31.2626ZM35.0919 32.7017C35.1793 32.5536 35.3323 32.8075 35.4198 33.2731C35.5072 33.7176 35.4854 34.2043 35.3979 34.3524C35.3105 34.5006 35.1575 34.2466 35.07 33.781C34.9826 33.3155 34.9826 32.8499 35.0919 32.7017ZM35.07 34.5641L35.4635 35.6434L35.551 37.2095L35.1575 36.1513L35.07 34.5641ZM35.5728 39.5797L35.2886 38.056L35.5947 37.4846L35.857 38.9872L35.5728 39.5797Z" fill="#E0F5EE" fill-opacity="0.55"/>
<path d="M-37.7046 39.0083H-40V32.998H-37.7046C-36.393 32.998 -33.5948 32.871 -33.5948 36.0032C-33.5948 39.1353 -36.393 39.0083 -37.7046 39.0083ZM-37.5297 33.908H-38.4916V38.0983H-37.5297C-36.7427 38.0983 -35.2125 38.2465 -35.2125 36.0032C-35.2125 33.781 -36.7427 33.908 -37.5297 33.908Z" fill="#E0F5EE" fill-opacity="0.55"/>
<path d="M-30.1189 39.093C-31.4524 39.0718 -32.6548 38.8814 -32.6548 37.6327C-32.6548 36.1936 -30.6217 36.2571 -29.0696 36.2571C-29.0696 35.5587 -29.0696 35.2413 -30.425 35.2413C-31.1464 35.2413 -31.8896 35.3471 -32.2831 35.4106V34.5641C-31.8241 34.4794 -30.9278 34.3948 -30.3594 34.3948C-29.0477 34.3948 -27.6049 34.5006 -27.6049 35.8974V38.9872C-28.5231 39.0718 -29.2882 39.1142 -30.1189 39.093ZM-29.0696 37.0613C-29.2663 37.0613 -29.7691 37.0613 -29.9222 37.0613C-30.5343 37.0613 -31.1027 37.1248 -31.1027 37.7174C-31.1027 38.31 -30.5343 38.3311 -29.9222 38.3311C-29.6161 38.3311 -29.3538 38.31 -29.0696 38.2888V37.0613Z" fill="#E0F5EE" fill-opacity="0.55"/>
<path d="M-17.3303 39.093C-18.0955 39.093 -18.795 39.0083 -19.3415 38.9025V38.056C-18.795 38.1618 -18.2048 38.2676 -17.549 38.2676C-17.0024 38.2676 -16.2154 38.1618 -16.2154 37.7174C-16.2154 37.2941 -16.7838 37.273 -17.6583 37.1037C-17.9643 37.0402 -19.3634 36.8285 -19.3634 35.7704C-19.3634 34.6487 -17.9424 34.3736 -16.9368 34.3736C-15.8875 34.3736 -15.2754 34.4794 -15.0131 34.5006V35.3048C-15.1661 35.2836 -15.9531 35.1566 -16.6527 35.1566C-17.1336 35.1566 -17.855 35.2201 -17.855 35.6434C-17.855 36.0455 -17.0462 36.1301 -16.5215 36.2148C-15.8219 36.3206 -14.6415 36.5534 -14.6415 37.5269C-14.6633 38.5216 -15.7126 39.093 -17.3303 39.093Z" fill="#E0F5EE" fill-opacity="0.55"/>
<path d="M-9.78836 39.0083L-11.9307 36.7227V39.0083H-13.4173V32.9768H-11.9307V36.4688L-9.74464 34.4794H-7.95205L-10.4223 36.5746L-7.86461 39.0083H-9.78836Z" fill="#E0F5EE" fill-opacity="0.55"/>
<path d="M17.3628 32.9768H18.8493V39.0083H17.3628V32.9768Z" fill="#E0F5EE" fill-opacity="0.55"/>
<path d="M-22.3146 39.0083V36.0667C-22.3146 35.8339 -22.3365 35.3048 -23.1016 35.3048C-23.6263 35.3048 -24.0853 35.3683 -24.4788 35.3894V38.9872H-25.9654V34.6276C-24.5225 34.4794 -23.3202 34.3948 -22.5332 34.4159C-21.7462 34.4371 -20.8499 34.7757 -20.8499 35.8339V39.0083H-22.3146Z" fill="#E0F5EE" fill-opacity="0.55"/>
<path d="M11.4822 38.839C11.1106 38.966 10.5859 39.0295 10.0394 39.0295C9.73334 39.0295 9.53659 39.0083 9.23054 38.9872V40.786H7.744V34.4794C8.20308 34.4583 9.12123 34.4159 9.71148 34.4159C10.4985 34.4159 11.1543 34.4794 11.7883 34.7757C12.6845 35.199 12.9469 35.9397 12.9469 36.6592C12.9469 37.5481 12.5315 38.4793 11.4822 38.839ZM9.99567 35.2836C9.44915 35.2836 9.23054 35.326 9.23054 35.326V38.1195C9.23054 38.1195 9.53659 38.1618 9.97381 38.1618C11.1106 38.1618 11.4166 37.5481 11.4166 36.7439C11.4166 35.8762 11.1324 35.2836 9.99567 35.2836Z" fill="#E0F5EE" fill-opacity="0.55"/>
<path d="M-7.55856 36.7862C-7.55856 35.3048 -6.64041 34.3736 -4.76038 34.3736C-2.70546 34.3736 -2.02778 35.2625 -2.0715 37.0613H-6.00644C-5.919 38.0772 -5.00085 38.2888 -4.08269 38.2888C-3.44873 38.2888 -2.96779 38.2041 -2.50871 38.1406V38.9237C-2.50871 38.9237 -3.42686 39.1141 -4.45432 39.1141C-6.15947 39.1141 -7.55856 38.5216 -7.55856 36.7862ZM-4.8041 35.1778C-5.65667 35.1778 -5.98458 35.7281 -5.98458 36.3418H-3.62362C-3.62362 35.7492 -3.82036 35.1778 -4.8041 35.1778Z" fill="#E0F5EE" fill-opacity="0.55"/>
<path d="M14.1711 34.9662H15.6576V39.0083H14.1711V34.9662Z" fill="#E0F5EE" fill-opacity="0.55"/>
<path d="M14.1711 32.9768H15.6576V34.2678H14.1711V32.9768Z" fill="#E0F5EE" fill-opacity="0.55"/>
<path d="M1.25134 38.839V37.8655C1.25134 37.8655 2.47555 38.1195 3.41557 38.1195C4.04953 38.1195 5.09885 37.9713 5.09885 37.2941C5.09885 36.0878 1.20762 36.9767 1.20762 34.8392C1.20762 33.4213 2.65044 32.9768 4.26814 32.9768C5.29559 32.9768 6.14817 33.1462 6.14817 33.1462V34.0773C6.14817 34.0773 5.31746 33.908 4.3993 33.908C3.83092 33.908 2.7816 34.035 2.7816 34.6699C2.7816 36.0032 6.71655 34.8604 6.71655 37.146C6.71655 38.5639 4.98954 39.0083 3.56859 39.0083C2.25694 39.0507 1.25134 38.839 1.25134 38.839Z" fill="#E0F5EE" fill-opacity="0.55"/>
<path d="M124.95 36.8074L123.791 30.5431C123.704 30.0987 123.332 29.9505 123.026 30.014L116.249 31.1568C116.053 31.1991 115.922 31.2626 115.747 31.4108C115.747 31.4108 114.02 32.9768 113.779 33.2308C113.517 33.4848 113.364 33.8022 113.451 34.289L114.763 41.4633C114.85 41.9077 115.266 42.0347 115.55 41.9923C115.834 41.95 122.502 40.8072 122.851 40.7437C123.201 40.6802 123.551 40.4474 123.813 39.9818L124.841 37.8232C125.016 37.4423 125.037 37.3364 124.95 36.8074ZM121.321 31.3685C121.124 31.5166 120.6 31.6859 120.119 31.7494C119.638 31.8129 119.419 31.7494 119.594 31.6012C119.791 31.4531 120.316 31.2838 120.796 31.2203C121.277 31.1568 121.496 31.2203 121.321 31.3685ZM120.228 31.0933L118.72 31.5378H117.627L119.135 31.0933H120.228ZM116.184 31.4319L117.67 31.178L117.211 31.6436L115.703 31.8764L116.184 31.4319ZM115.55 41.2516L115.266 39.6644L116.905 39.3893L117.189 40.9765L115.55 41.2516ZM116.883 38.9237L115.812 37.6962L116.381 36.1725L117.452 37.3999L116.883 38.9237ZM118.414 36.3629C117.889 36.4476 117.408 36.109 117.321 35.6222C117.233 35.1143 117.583 34.6487 118.086 34.5641C118.61 34.4794 119.091 34.818 119.179 35.3048C119.288 35.7915 118.938 36.2571 118.414 36.3629ZM120.556 35.2625L119.266 33.781L121.234 33.4424L120.556 35.2625ZM121.256 32.1938L119.791 32.215L121.693 31.6647L121.256 32.1938ZM123.595 31.2626L123.682 32.9134L123.223 31.7917L123.595 31.2626ZM123.092 32.7017C123.179 32.5536 123.332 32.8075 123.42 33.2731C123.507 33.7176 123.485 34.2043 123.398 34.3524C123.31 34.5006 123.157 34.2466 123.07 33.781C122.983 33.3155 122.983 32.8499 123.092 32.7017ZM123.07 34.5641L123.464 35.6434L123.551 37.2095L123.157 36.1513L123.07 34.5641ZM123.573 39.5797L123.289 38.056L123.595 37.4846L123.857 38.9872L123.573 39.5797Z" fill="#E0F5EE" fill-opacity="0.55"/>
<path d="M50.2954 39.0083H48V32.998H50.2954C51.607 32.998 54.4052 32.871 54.4052 36.0032C54.4052 39.1353 51.607 39.0083 50.2954 39.0083ZM50.4703 33.908H49.5084V38.0983H50.4703C51.2573 38.0983 52.7875 38.2465 52.7875 36.0032C52.7875 33.781 51.2573 33.908 50.4703 33.908Z" fill="#E0F5EE" fill-opacity="0.55"/>
<path d="M57.8811 39.093C56.5476 39.0718 55.3452 38.8814 55.3452 37.6327C55.3452 36.1936 57.3783 36.2571 58.9304 36.2571C58.9304 35.5587 58.9304 35.2413 57.575 35.2413C56.8536 35.2413 56.1104 35.3471 55.7169 35.4106V34.5641C56.1759 34.4794 57.0722 34.3948 57.6406 34.3948C58.9523 34.3948 60.3951 34.5006 60.3951 35.8974V38.9872C59.4769 39.0718 58.7118 39.1142 57.8811 39.093ZM58.9304 37.0613C58.7337 37.0613 58.2309 37.0613 58.0778 37.0613C57.4657 37.0613 56.8973 37.1248 56.8973 37.7174C56.8973 38.31 57.4657 38.3311 58.0778 38.3311C58.3839 38.3311 58.6462 38.31 58.9304 38.2888V37.0613Z" fill="#E0F5EE" fill-opacity="0.55"/>
<path d="M70.6697 39.093C69.9045 39.093 69.205 39.0083 68.6585 38.9025V38.056C69.205 38.1618 69.7952 38.2676 70.451 38.2676C70.9976 38.2676 71.7846 38.1618 71.7846 37.7174C71.7846 37.2941 71.2162 37.273 70.3417 37.1037C70.0357 37.0402 68.6366 36.8285 68.6366 35.7704C68.6366 34.6487 70.0576 34.3736 71.0632 34.3736C72.1125 34.3736 72.7246 34.4794 72.9869 34.5006V35.3048C72.8339 35.2836 72.0469 35.1566 71.3473 35.1566C70.8664 35.1566 70.145 35.2201 70.145 35.6434C70.145 36.0455 70.9538 36.1301 71.4785 36.2148C72.1781 36.3206 73.3585 36.5534 73.3585 37.5269C73.3367 38.5216 72.2874 39.093 70.6697 39.093Z" fill="#E0F5EE" fill-opacity="0.55"/>
<path d="M78.2116 39.0083L76.0693 36.7227V39.0083H74.5827V32.9768H76.0693V36.4688L78.2554 34.4794H80.0479L77.5777 36.5746L80.1354 39.0083H78.2116Z" fill="#E0F5EE" fill-opacity="0.55"/>
<path d="M105.363 32.9768H106.849V39.0083H105.363V32.9768Z" fill="#E0F5EE" fill-opacity="0.55"/>
<path d="M65.6854 39.0083V36.0667C65.6854 35.8339 65.6635 35.3048 64.8984 35.3048C64.3737 35.3048 63.9147 35.3683 63.5212 35.3894V38.9872H62.0346V34.6276C63.4775 34.4794 64.6798 34.3948 65.4668 34.4159C66.2538 34.4371 67.1501 34.7757 67.1501 35.8339V39.0083H65.6854Z" fill="#E0F5EE" fill-opacity="0.55"/>
<path d="M99.4822 38.839C99.1106 38.966 98.5859 39.0295 98.0394 39.0295C97.7333 39.0295 97.5366 39.0083 97.2305 38.9872V40.786H95.744V34.4794C96.2031 34.4583 97.1212 34.4159 97.7115 34.4159C98.4985 34.4159 99.1543 34.4794 99.7883 34.7757C100.685 35.199 100.947 35.9397 100.947 36.6592C100.947 37.5481 100.532 38.4793 99.4822 38.839ZM97.9957 35.2836C97.4491 35.2836 97.2305 35.326 97.2305 35.326V38.1195C97.2305 38.1195 97.5366 38.1618 97.9738 38.1618C99.1106 38.1618 99.4166 37.5481 99.4166 36.7439C99.4166 35.8762 99.1324 35.2836 97.9957 35.2836Z" fill="#E0F5EE" fill-opacity="0.55"/>
<path d="M80.4414 36.7862C80.4414 35.3048 81.3596 34.3736 83.2396 34.3736C85.2945 34.3736 85.9722 35.2625 85.9285 37.0613H81.9936C82.081 38.0772 82.9992 38.2888 83.9173 38.2888C84.5513 38.2888 85.0322 38.2041 85.4913 38.1406V38.9237C85.4913 38.9237 84.5731 39.1141 83.5457 39.1141C81.8405 39.1141 80.4414 38.5216 80.4414 36.7862ZM83.1959 35.1778C82.3433 35.1778 82.0154 35.7281 82.0154 36.3418H84.3764C84.3764 35.7492 84.1796 35.1778 83.1959 35.1778Z" fill="#E0F5EE" fill-opacity="0.55"/>
<path d="M102.171 34.9662H103.658V39.0083H102.171V34.9662Z" fill="#E0F5EE" fill-opacity="0.55"/>
<path d="M102.171 32.9768H103.658V34.2678H102.171V32.9768Z" fill="#E0F5EE" fill-opacity="0.55"/>
<path d="M89.2513 38.839V37.8655C89.2513 37.8655 90.4756 38.1195 91.4156 38.1195C92.0495 38.1195 93.0988 37.9713 93.0988 37.2941C93.0988 36.0878 89.2076 36.9767 89.2076 34.8392C89.2076 33.4213 90.6504 32.9768 92.2681 32.9768C93.2956 32.9768 94.1482 33.1462 94.1482 33.1462V34.0773C94.1482 34.0773 93.3175 33.908 92.3993 33.908C91.8309 33.908 90.7816 34.035 90.7816 34.6699C90.7816 36.0032 94.7166 34.8604 94.7166 37.146C94.7166 38.5639 92.9895 39.0083 91.5686 39.0083C90.2569 39.0507 89.2513 38.839 89.2513 38.839Z" fill="#E0F5EE" fill-opacity="0.55"/>
<path d="M300.95 36.8074L299.791 30.5431C299.704 30.0987 299.332 29.9505 299.026 30.014L292.249 31.1568C292.053 31.1991 291.922 31.2626 291.747 31.4108C291.747 31.4108 290.02 32.9768 289.779 33.2308C289.517 33.4848 289.364 33.8022 289.451 34.289L290.763 41.4633C290.85 41.9077 291.266 42.0347 291.55 41.9923C291.834 41.95 298.502 40.8072 298.851 40.7437C299.201 40.6802 299.551 40.4474 299.813 39.9818L300.841 37.8232C301.016 37.4423 301.037 37.3364 300.95 36.8074ZM297.321 31.3685C297.124 31.5166 296.6 31.6859 296.119 31.7494C295.638 31.8129 295.419 31.7494 295.594 31.6012C295.791 31.4531 296.316 31.2838 296.796 31.2203C297.277 31.1568 297.496 31.2203 297.321 31.3685ZM296.228 31.0933L294.72 31.5378H293.627L295.135 31.0933H296.228ZM292.184 31.4319L293.67 31.178L293.211 31.6436L291.703 31.8764L292.184 31.4319ZM291.55 41.2516L291.266 39.6644L292.905 39.3893L293.189 40.9765L291.55 41.2516ZM292.883 38.9237L291.812 37.6962L292.381 36.1725L293.452 37.3999L292.883 38.9237ZM294.414 36.3629C293.889 36.4476 293.408 36.109 293.321 35.6222C293.233 35.1143 293.583 34.6487 294.086 34.5641C294.61 34.4794 295.091 34.818 295.179 35.3048C295.288 35.7915 294.938 36.2571 294.414 36.3629ZM296.556 35.2625L295.266 33.781L297.234 33.4424L296.556 35.2625ZM297.256 32.1938L295.791 32.215L297.693 31.6647L297.256 32.1938ZM299.595 31.2626L299.682 32.9134L299.223 31.7917L299.595 31.2626ZM299.092 32.7017C299.179 32.5536 299.332 32.8075 299.42 33.2731C299.507 33.7176 299.485 34.2043 299.398 34.3524C299.31 34.5006 299.157 34.2466 299.07 33.781C298.983 33.3155 298.983 32.8499 299.092 32.7017ZM299.07 34.5641L299.464 35.6434L299.551 37.2095L299.157 36.1513L299.07 34.5641ZM299.573 39.5797L299.289 38.056L299.595 37.4846L299.857 38.9872L299.573 39.5797Z" fill="#E0F5EE" fill-opacity="0.55"/>
<path d="M226.295 39.0083H224V32.998H226.295C227.607 32.998 230.405 32.871 230.405 36.0032C230.405 39.1353 227.607 39.0083 226.295 39.0083ZM226.47 33.908H225.508V38.0983H226.47C227.257 38.0983 228.788 38.2465 228.788 36.0032C228.788 33.781 227.257 33.908 226.47 33.908Z" fill="#E0F5EE" fill-opacity="0.55"/>
<path d="M233.881 39.093C232.548 39.0718 231.345 38.8814 231.345 37.6327C231.345 36.1936 233.378 36.2571 234.93 36.2571C234.93 35.5587 234.93 35.2413 233.575 35.2413C232.854 35.2413 232.11 35.3471 231.717 35.4106V34.5641C232.176 34.4794 233.072 34.3948 233.641 34.3948C234.952 34.3948 236.395 34.5006 236.395 35.8974V38.9872C235.477 39.0718 234.712 39.1142 233.881 39.093ZM234.93 37.0613C234.734 37.0613 234.231 37.0613 234.078 37.0613C233.466 37.0613 232.897 37.1248 232.897 37.7174C232.897 38.31 233.466 38.3311 234.078 38.3311C234.384 38.3311 234.646 38.31 234.93 38.2888V37.0613Z" fill="#E0F5EE" fill-opacity="0.55"/>
<path d="M246.67 39.093C245.905 39.093 245.205 39.0083 244.658 38.9025V38.056C245.205 38.1618 245.795 38.2676 246.451 38.2676C246.998 38.2676 247.785 38.1618 247.785 37.7174C247.785 37.2941 247.216 37.273 246.342 37.1037C246.036 37.0402 244.637 36.8285 244.637 35.7704C244.637 34.6487 246.058 34.3736 247.063 34.3736C248.112 34.3736 248.725 34.4794 248.987 34.5006V35.3048C248.834 35.2836 248.047 35.1566 247.347 35.1566C246.866 35.1566 246.145 35.2201 246.145 35.6434C246.145 36.0455 246.954 36.1301 247.479 36.2148C248.178 36.3206 249.359 36.5534 249.359 37.5269C249.337 38.5216 248.287 39.093 246.67 39.093Z" fill="#E0F5EE" fill-opacity="0.55"/>
<path d="M254.212 39.0083L252.069 36.7227V39.0083H250.583V32.9768H252.069V36.4688L254.255 34.4794H256.048L253.578 36.5746L256.135 39.0083H254.212Z" fill="#E0F5EE" fill-opacity="0.55"/>
<path d="M281.363 32.9768H282.849V39.0083H281.363V32.9768Z" fill="#E0F5EE" fill-opacity="0.55"/>
<path d="M241.685 39.0083V36.0667C241.685 35.8339 241.664 35.3048 240.898 35.3048C240.374 35.3048 239.915 35.3683 239.521 35.3894V38.9872H238.035V34.6276C239.477 34.4794 240.68 34.3948 241.467 34.4159C242.254 34.4371 243.15 34.7757 243.15 35.8339V39.0083H241.685Z" fill="#E0F5EE" fill-opacity="0.55"/>
<path d="M275.482 38.839C275.111 38.966 274.586 39.0295 274.039 39.0295C273.733 39.0295 273.537 39.0083 273.231 38.9872V40.786H271.744V34.4794C272.203 34.4583 273.121 34.4159 273.711 34.4159C274.498 34.4159 275.154 34.4794 275.788 34.7757C276.685 35.199 276.947 35.9397 276.947 36.6592C276.947 37.5481 276.532 38.4793 275.482 38.839ZM273.996 35.2836C273.449 35.2836 273.231 35.326 273.231 35.326V38.1195C273.231 38.1195 273.537 38.1618 273.974 38.1618C275.111 38.1618 275.417 37.5481 275.417 36.7439C275.417 35.8762 275.132 35.2836 273.996 35.2836Z" fill="#E0F5EE" fill-opacity="0.55"/>
<path d="M256.441 36.7862C256.441 35.3048 257.36 34.3736 259.24 34.3736C261.295 34.3736 261.972 35.2625 261.928 37.0613H257.994C258.081 38.0772 258.999 38.2888 259.917 38.2888C260.551 38.2888 261.032 38.2041 261.491 38.1406V38.9237C261.491 38.9237 260.573 39.1141 259.546 39.1141C257.841 39.1141 256.441 38.5216 256.441 36.7862ZM259.196 35.1778C258.343 35.1778 258.015 35.7281 258.015 36.3418H260.376C260.376 35.7492 260.18 35.1778 259.196 35.1778Z" fill="#E0F5EE" fill-opacity="0.55"/>
<path d="M278.171 34.9662H279.658V39.0083H278.171V34.9662Z" fill="#E0F5EE" fill-opacity="0.55"/>
<path d="M278.171 32.9768H279.658V34.2678H278.171V32.9768Z" fill="#E0F5EE" fill-opacity="0.55"/>
<path d="M265.251 38.839V37.8655C265.251 37.8655 266.476 38.1195 267.416 38.1195C268.05 38.1195 269.099 37.9713 269.099 37.2941C269.099 36.0878 265.208 36.9767 265.208 34.8392C265.208 33.4213 266.65 32.9768 268.268 32.9768C269.296 32.9768 270.148 33.1462 270.148 33.1462V34.0773C270.148 34.0773 269.317 33.908 268.399 33.908C267.831 33.908 266.782 34.035 266.782 34.6699C266.782 36.0032 270.717 34.8604 270.717 37.146C270.717 38.5639 268.99 39.0083 267.569 39.0083C266.257 39.0507 265.251 38.839 265.251 38.839Z" fill="#E0F5EE" fill-opacity="0.55"/>
<path d="M212.95 36.8074L211.791 30.5431C211.704 30.0987 211.332 29.9505 211.026 30.014L204.249 31.1568C204.053 31.1991 203.922 31.2626 203.747 31.4108C203.747 31.4108 202.02 32.9768 201.779 33.2308C201.517 33.4848 201.364 33.8022 201.451 34.289L202.763 41.4633C202.85 41.9077 203.266 42.0347 203.55 41.9923C203.834 41.95 210.502 40.8072 210.851 40.7437C211.201 40.6802 211.551 40.4474 211.813 39.9818L212.841 37.8232C213.016 37.4423 213.037 37.3364 212.95 36.8074ZM209.321 31.3685C209.124 31.5166 208.6 31.6859 208.119 31.7494C207.638 31.8129 207.419 31.7494 207.594 31.6012C207.791 31.4531 208.316 31.2838 208.796 31.2203C209.277 31.1568 209.496 31.2203 209.321 31.3685ZM208.228 31.0933L206.72 31.5378H205.627L207.135 31.0933H208.228ZM204.184 31.4319L205.67 31.178L205.211 31.6436L203.703 31.8764L204.184 31.4319ZM203.55 41.2516L203.266 39.6644L204.905 39.3893L205.189 40.9765L203.55 41.2516ZM204.883 38.9237L203.812 37.6962L204.381 36.1725L205.452 37.3999L204.883 38.9237ZM206.414 36.3629C205.889 36.4476 205.408 36.109 205.321 35.6222C205.233 35.1143 205.583 34.6487 206.086 34.5641C206.61 34.4794 207.091 34.818 207.179 35.3048C207.288 35.7915 206.938 36.2571 206.414 36.3629ZM208.556 35.2625L207.266 33.781L209.234 33.4424L208.556 35.2625ZM209.256 32.1938L207.791 32.215L209.693 31.6647L209.256 32.1938ZM211.595 31.2626L211.682 32.9134L211.223 31.7917L211.595 31.2626ZM211.092 32.7017C211.179 32.5536 211.332 32.8075 211.42 33.2731C211.507 33.7176 211.485 34.2043 211.398 34.3524C211.31 34.5006 211.157 34.2466 211.07 33.781C210.983 33.3155 210.983 32.8499 211.092 32.7017ZM211.07 34.5641L211.464 35.6434L211.551 37.2095L211.157 36.1513L211.07 34.5641ZM211.573 39.5797L211.289 38.056L211.595 37.4846L211.857 38.9872L211.573 39.5797Z" fill="#E0F5EE" fill-opacity="0.55"/>
<path d="M138.295 39.0083H136V32.998H138.295C139.607 32.998 142.405 32.871 142.405 36.0032C142.405 39.1353 139.607 39.0083 138.295 39.0083ZM138.47 33.908H137.508V38.0983H138.47C139.257 38.0983 140.788 38.2465 140.788 36.0032C140.788 33.781 139.257 33.908 138.47 33.908Z" fill="#E0F5EE" fill-opacity="0.55"/>
<path d="M145.881 39.093C144.548 39.0718 143.345 38.8814 143.345 37.6327C143.345 36.1936 145.378 36.2571 146.93 36.2571C146.93 35.5587 146.93 35.2413 145.575 35.2413C144.854 35.2413 144.11 35.3471 143.717 35.4106V34.5641C144.176 34.4794 145.072 34.3948 145.641 34.3948C146.952 34.3948 148.395 34.5006 148.395 35.8974V38.9872C147.477 39.0718 146.712 39.1142 145.881 39.093ZM146.93 37.0613C146.734 37.0613 146.231 37.0613 146.078 37.0613C145.466 37.0613 144.897 37.1248 144.897 37.7174C144.897 38.31 145.466 38.3311 146.078 38.3311C146.384 38.3311 146.646 38.31 146.93 38.2888V37.0613Z" fill="#E0F5EE" fill-opacity="0.55"/>
<path d="M158.67 39.093C157.905 39.093 157.205 39.0083 156.658 38.9025V38.056C157.205 38.1618 157.795 38.2676 158.451 38.2676C158.998 38.2676 159.785 38.1618 159.785 37.7174C159.785 37.2941 159.216 37.273 158.342 37.1037C158.036 37.0402 156.637 36.8285 156.637 35.7704C156.637 34.6487 158.058 34.3736 159.063 34.3736C160.112 34.3736 160.725 34.4794 160.987 34.5006V35.3048C160.834 35.2836 160.047 35.1566 159.347 35.1566C158.866 35.1566 158.145 35.2201 158.145 35.6434C158.145 36.0455 158.954 36.1301 159.479 36.2148C160.178 36.3206 161.359 36.5534 161.359 37.5269C161.337 38.5216 160.287 39.093 158.67 39.093Z" fill="#E0F5EE" fill-opacity="0.55"/>
<path d="M166.212 39.0083L164.069 36.7227V39.0083H162.583V32.9768H164.069V36.4688L166.255 34.4794H168.048L165.578 36.5746L168.135 39.0083H166.212Z" fill="#E0F5EE" fill-opacity="0.55"/>
<path d="M193.363 32.9768H194.849V39.0083H193.363V32.9768Z" fill="#E0F5EE" fill-opacity="0.55"/>
<path d="M153.685 39.0083V36.0667C153.685 35.8339 153.664 35.3048 152.898 35.3048C152.374 35.3048 151.915 35.3683 151.521 35.3894V38.9872H150.035V34.6276C151.477 34.4794 152.68 34.3948 153.467 34.4159C154.254 34.4371 155.15 34.7757 155.15 35.8339V39.0083H153.685Z" fill="#E0F5EE" fill-opacity="0.55"/>
<path d="M187.482 38.839C187.111 38.966 186.586 39.0295 186.039 39.0295C185.733 39.0295 185.537 39.0083 185.231 38.9872V40.786H183.744V34.4794C184.203 34.4583 185.121 34.4159 185.711 34.4159C186.498 34.4159 187.154 34.4794 187.788 34.7757C188.685 35.199 188.947 35.9397 188.947 36.6592C188.947 37.5481 188.532 38.4793 187.482 38.839ZM185.996 35.2836C185.449 35.2836 185.231 35.326 185.231 35.326V38.1195C185.231 38.1195 185.537 38.1618 185.974 38.1618C187.111 38.1618 187.417 37.5481 187.417 36.7439C187.417 35.8762 187.132 35.2836 185.996 35.2836Z" fill="#E0F5EE" fill-opacity="0.55"/>
<path d="M168.441 36.7862C168.441 35.3048 169.36 34.3736 171.24 34.3736C173.295 34.3736 173.972 35.2625 173.928 37.0613H169.994C170.081 38.0772 170.999 38.2888 171.917 38.2888C172.551 38.2888 173.032 38.2041 173.491 38.1406V38.9237C173.491 38.9237 172.573 39.1141 171.546 39.1141C169.841 39.1141 168.441 38.5216 168.441 36.7862ZM171.196 35.1778C170.343 35.1778 170.015 35.7281 170.015 36.3418H172.376C172.376 35.7492 172.18 35.1778 171.196 35.1778Z" fill="#E0F5EE" fill-opacity="0.55"/>
<path d="M190.171 34.9662H191.658V39.0083H190.171V34.9662Z" fill="#E0F5EE" fill-opacity="0.55"/>
<path d="M190.171 32.9768H191.658V34.2678H190.171V32.9768Z" fill="#E0F5EE" fill-opacity="0.55"/>
<path d="M177.251 38.839V37.8655C177.251 37.8655 178.476 38.1195 179.416 38.1195C180.05 38.1195 181.099 37.9713 181.099 37.2941C181.099 36.0878 177.208 36.9767 177.208 34.8392C177.208 33.4213 178.65 32.9768 180.268 32.9768C181.296 32.9768 182.148 33.1462 182.148 33.1462V34.0773C182.148 34.0773 181.317 33.908 180.399 33.908C179.831 33.908 178.782 34.035 178.782 34.6699C178.782 36.0032 182.717 34.8604 182.717 37.146C182.717 38.5639 180.99 39.0083 179.569 39.0083C178.257 39.0507 177.251 38.839 177.251 38.839Z" fill="#E0F5EE" fill-opacity="0.55"/>
</g>
<defs>
<clipPath id="clip0_81_2362">
<rect width="264" height="96" fill="white"/>
</clipPath>
</defs>
</svg>
