<svg width="180" height="24" viewBox="0 0 180 24" fill="none" xmlns="http://www.w3.org/2000/svg">
<path fill-rule="evenodd" clip-rule="evenodd" d="M176.672 4.53226L175.965 3.42939H175.605V4.53226H175.006V1.57129H176.061C176.732 1.57129 177.152 1.82303 177.152 2.48236C177.152 2.85398 176.96 3.14168 176.576 3.28553V3.30951L177.415 4.53226H176.66H176.672ZM175.989 2.00285H175.617V2.99783H175.989C176.336 2.99783 176.528 2.87795 176.528 2.49434C176.528 2.11074 176.348 2.00285 175.989 2.00285Z" fill="white"/>
<path fill-rule="evenodd" clip-rule="evenodd" d="M176.051 6.37747C174.313 6.37747 172.898 4.95093 172.898 3.18874C172.898 1.42654 174.313 0 176.051 0C177.789 0 179.204 1.42654 179.204 3.18874C179.204 4.95093 177.789 6.37747 176.051 6.37747ZM176.039 0.63535C174.649 0.63535 173.51 1.78617 173.51 3.20072C173.51 4.61528 174.649 5.7661 176.039 5.7661C177.43 5.7661 178.569 4.62726 178.569 3.20072C178.569 1.77418 177.43 0.63535 176.039 0.63535Z" fill="white"/>
<path fill-rule="evenodd" clip-rule="evenodd" d="M97.351 0.276245C90.8896 0.276245 85.6389 5.5988 85.627 12.1321C85.627 18.6654 90.8896 23.988 97.351 23.988C103.812 23.988 109.075 18.6774 109.075 12.1321C109.075 5.5988 103.8 0.276245 97.339 0.276245H97.351ZM97.3629 16.6155C94.9174 16.6155 92.9275 14.6016 92.9275 12.1321C92.9275 9.66264 94.9174 7.6487 97.3629 7.6487C99.8084 7.6487 101.798 9.66264 101.798 12.1321C101.798 14.6016 99.8084 16.6155 97.3629 16.6155Z" fill="white"/>
<path d="M70.4018 23.3873C70.1261 23.3873 69.9223 23.1835 69.9463 22.8838C69.9463 22.8838 70.6655 15.9909 71.0491 11.2917C71.4088 6.86819 71.8163 1.23395 71.8163 1.23395C71.8283 0.93426 72.0681 0.730469 72.3558 0.730469H78.7333C79.0449 0.730469 79.2248 0.958236 79.1888 1.23395C79.1888 1.23395 78.4216 8.35467 78.1578 11.1358C77.7623 15.3915 77.5824 17.801 77.5824 17.801C77.5824 18.0048 77.7143 18.1726 77.9181 18.1726C77.9181 18.1726 80.6513 18.1726 84.6312 18.0168C85.0508 18.0048 85.1947 18.1726 85.1707 18.5802C85.1707 18.82 84.7991 22.9437 84.7991 22.9437C84.7751 23.2434 84.5113 23.4712 84.2476 23.4472C84.2476 23.4472 80.5794 23.3873 77.6304 23.3513C74.6934 23.3273 70.3898 23.3873 70.3898 23.3873H70.4018Z" fill="white"/>
<path d="M118.845 0.838333C115.861 0.838333 110.286 0.742432 110.286 0.742432C109.939 0.754419 109.747 0.934235 109.735 1.24592C109.735 1.24592 109.375 5.32174 109.351 5.69336C109.327 6.07697 109.579 6.19685 109.807 6.19685C112.864 6.13691 114.506 6.13691 114.506 6.13691C114.71 6.13691 114.866 6.30474 114.854 6.50853C114.854 6.50853 114.53 11.2437 113.259 22.8358C113.223 23.1955 113.403 23.4592 113.835 23.4832C114.194 23.4832 119.673 23.4832 119.96 23.4832C120.332 23.4832 120.596 23.2314 120.62 22.8598C121.435 11.1957 121.878 6.49654 121.878 6.49654C121.902 6.29275 122.082 6.12492 122.298 6.11294C122.298 6.11294 123.425 6.13691 126.59 6.20884C126.877 6.20884 127.081 5.98107 127.117 5.71734C127.141 5.52554 127.501 1.2579 127.501 1.2579C127.525 0.958211 127.357 0.778395 127.045 0.754419C127.045 0.754419 121.95 0.850321 118.857 0.850321L118.845 0.838333Z" fill="white"/>
<path d="M138.528 0.838333C135.543 0.838333 130.1 0.742432 130.1 0.742432C129.765 0.754419 129.573 0.934235 129.561 1.24592C129.561 1.24592 129.201 5.32174 129.177 5.69336C129.153 6.07697 129.405 6.19685 129.621 6.19685C132.666 6.13691 134.188 6.13691 134.188 6.13691C134.392 6.13691 134.548 6.30474 134.548 6.50853C134.548 6.50853 134.224 11.2437 132.954 22.8358C132.918 23.1955 133.085 23.4592 133.529 23.4832C133.889 23.4832 139.355 23.4832 139.643 23.4832C140.014 23.4832 140.278 23.2314 140.302 22.8598C141.117 11.1957 141.561 6.49654 141.561 6.49654C141.585 6.29275 141.776 6.12492 141.98 6.11294C141.98 6.11294 143.239 6.13691 146.392 6.20884C146.691 6.20884 146.895 5.98107 146.919 5.71734C146.931 5.52554 147.303 1.2579 147.303 1.2579C147.339 0.958211 147.159 0.778395 146.847 0.754419C146.847 0.754419 141.621 0.850321 138.54 0.850321L138.528 0.838333Z" fill="white"/>
<path fill-rule="evenodd" clip-rule="evenodd" d="M147.256 12.1321C147.256 5.5988 152.518 0.276245 158.98 0.276245C165.453 0.276245 170.716 5.61079 170.716 12.1441C170.716 18.6774 165.453 24 158.992 24C152.53 24 147.268 18.6774 147.268 12.1441L147.256 12.1321ZM154.544 12.1321C154.544 14.6016 156.534 16.6155 158.98 16.6155C161.425 16.6155 163.415 14.6016 163.415 12.1321C163.415 9.66264 161.413 7.6487 158.98 7.6487C156.546 7.6487 154.544 9.66264 154.544 12.1321Z" fill="white"/>
<path d="M16.8437 23.3884H13.0915C13.0076 23.3884 12.9357 23.3405 12.8877 23.2805L6.80994 13.1149L4.42438 14.9251L3.70512 23.1726C3.70512 23.2925 3.59723 23.3884 3.47735 23.3884H0.228678C0.0968133 23.3884 -0.0110763 23.2685 0.000911442 23.1367L2.00286 0.935384C2.00286 0.815506 2.11075 0.719604 2.23063 0.719604H5.4793C5.61117 0.719604 5.71906 0.839482 5.70707 0.971347L4.71209 11.5565C5.21557 10.9931 5.71906 10.4417 6.23453 9.89022C6.75 9.33878 7.26548 8.77536 7.78095 8.21194L14.6739 0.875445C14.7578 0.779543 14.8897 0.731592 15.0096 0.731592H18.486C18.6898 0.731592 18.7977 0.971347 18.6538 1.12719L9.69899 10.6694L17.0475 23.0408C17.1434 23.1966 17.0235 23.3884 16.8437 23.3884Z" fill="#FEB700"/>
<path d="M24.805 0.983335L22.8749 23.1846C22.8749 23.3045 22.7671 23.4004 22.6472 23.4004H19.4465C19.3146 23.4004 19.2067 23.2805 19.2187 23.1486L21.1367 0.935384C21.1367 0.815506 21.2446 0.719604 21.3645 0.719604H24.5652C24.6971 0.719604 24.805 0.839482 24.793 0.971347L24.805 0.983335Z" fill="#FEB700"/>
<path d="M41.8876 6.49674L40.4371 23.1956C40.4371 23.3155 40.3292 23.4114 40.2093 23.4114H37.7638C37.644 23.4114 37.5481 23.3275 37.5361 23.2076L37.2484 21.1098H37.0566C36.649 21.6972 36.1455 22.1887 35.5461 22.5723C34.9467 22.9559 34.3114 23.2436 33.6041 23.4354C32.8968 23.6272 32.1776 23.7111 31.4223 23.7111C30.1397 23.7111 29.0608 23.4953 28.1857 23.0518C27.3105 22.6082 26.6632 21.9369 26.2556 21.0139C25.848 20.0908 25.7042 18.904 25.8241 17.4535L26.7831 6.46077C26.7831 6.3409 26.891 6.245 27.0109 6.245H30.2116C30.3434 6.245 30.4513 6.36487 30.4393 6.49674L29.5523 16.7702C29.4324 18.1009 29.6242 19.0958 30.1037 19.7672C30.5832 20.4385 31.4104 20.7621 32.5492 20.7621C33.688 20.7621 34.5511 20.5344 35.2344 20.0788C35.9177 19.6233 36.4452 18.952 36.7928 18.0649C37.1405 17.1778 37.3802 16.0869 37.5001 14.7922L38.2194 6.46077C38.2194 6.3409 38.3273 6.245 38.4471 6.245H41.6359C41.7677 6.245 41.8756 6.36487 41.8636 6.49674H41.8876Z" fill="#FEB700"/>
<path d="M48.1807 0.743042C48.3126 0.743042 48.4205 0.862919 48.4085 0.994784L48.0489 5.09459C47.9889 5.7659 47.917 6.42523 47.8211 7.07256C47.7252 7.7199 47.6533 8.22339 47.5933 8.58302H47.7492C48.2766 7.83978 48.9839 7.21642 49.859 6.70094C50.7341 6.18547 51.825 5.93373 53.1197 5.93373C55.1576 5.93373 56.728 6.67697 57.8428 8.17544C58.9577 9.6739 59.3773 11.8796 59.1255 14.8047C58.9577 16.7467 58.5261 18.377 57.8428 19.7076C57.1595 21.0383 56.2724 22.0333 55.1935 22.7046C54.1146 23.3759 52.8679 23.7235 51.4893 23.7235C50.1827 23.7235 49.1517 23.4838 48.3965 23.0162C47.6413 22.5367 47.0539 21.9733 46.6583 21.326H46.3945L45.6034 23.268C45.5674 23.3519 45.4835 23.4118 45.3876 23.4118H43.05C42.9181 23.4118 42.8102 23.292 42.8222 23.1601L44.7522 0.958821C44.7522 0.838944 44.8601 0.743042 44.98 0.743042H48.1687H48.1807ZM51.9089 8.90669C50.878 8.90669 50.0388 9.11048 49.4035 9.51806C48.7681 9.92564 48.2766 10.537 47.929 11.3642C47.5813 12.1913 47.3536 13.2223 47.2337 14.493L47.2097 14.8166C47.0419 16.7227 47.2097 18.1852 47.7372 19.2041C48.2646 20.2231 49.3076 20.7266 50.9139 20.7266C52.1846 20.7266 53.2036 20.2111 53.9708 19.1802C54.738 18.1492 55.2055 16.6747 55.3734 14.7567C55.5412 12.8267 55.3254 11.3642 54.726 10.3812C54.1266 9.39818 53.1796 8.90669 51.8969 8.90669H51.9089Z" fill="#FEB700"/>
</svg>
