<svg width="589" height="78" viewBox="0 0 589 78" fill="none" xmlns="http://www.w3.org/2000/svg">
<path d="M22.2391 41.8984C22.2391 42.9141 21.8719 43.7109 21.1375 44.2891C20.4031 44.8672 19.3901 45.1562 18.0984 45.1562C16.8068 45.1562 15.7495 44.9557 14.9266 44.5547V42.7891C15.4474 43.0339 15.9995 43.2266 16.5828 43.3672C17.1714 43.5078 17.7182 43.5781 18.2234 43.5781C18.963 43.5781 19.5073 43.4375 19.8563 43.1562C20.2104 42.875 20.3875 42.4974 20.3875 42.0234C20.3875 41.5964 20.226 41.2344 19.9031 40.9375C19.5802 40.6406 18.9135 40.2891 17.9031 39.8828C16.8615 39.4609 16.1271 38.9792 15.7 38.4375C15.2729 37.8958 15.0594 37.2448 15.0594 36.4844C15.0594 35.5312 15.3979 34.7812 16.075 34.2344C16.7521 33.6875 17.6609 33.4141 18.8016 33.4141C19.8953 33.4141 20.9839 33.6536 22.0672 34.1328L21.4734 35.6562C20.4578 35.2292 19.5516 35.0156 18.7547 35.0156C18.1505 35.0156 17.6922 35.1484 17.3797 35.4141C17.0672 35.6745 16.9109 36.0208 16.9109 36.4531C16.9109 36.75 16.9734 37.0052 17.0984 37.2188C17.2234 37.4271 17.4292 37.625 17.7156 37.8125C18.0021 38 18.5177 38.2474 19.2625 38.5547C20.101 38.9036 20.7156 39.2292 21.1063 39.5312C21.4969 39.8333 21.7833 40.1745 21.9656 40.5547C22.1479 40.9349 22.2391 41.3828 22.2391 41.8984ZM28.7975 45.1562C27.7038 45.1562 26.8548 44.763 26.2506 43.9766H26.1413C26.2142 44.7057 26.2506 45.1484 26.2506 45.3047V48.8438H24.4147V36.3594H25.8991C25.9407 36.5208 26.0267 36.9062 26.1569 37.5156H26.2506C26.8235 36.6406 27.6829 36.2031 28.8288 36.2031C29.9069 36.2031 30.7454 36.5938 31.3444 37.375C31.9485 38.1562 32.2506 39.2526 32.2506 40.6641C32.2506 42.0755 31.9433 43.1771 31.3288 43.9688C30.7194 44.7604 29.8756 45.1562 28.7975 45.1562ZM28.3522 37.7031C27.623 37.7031 27.0892 37.9167 26.7506 38.3438C26.4173 38.7708 26.2506 39.4531 26.2506 40.3906V40.6641C26.2506 41.7161 26.4173 42.4792 26.7506 42.9531C27.084 43.4219 27.6282 43.6562 28.3834 43.6562C29.0189 43.6562 29.5084 43.3958 29.8522 42.875C30.1959 42.3542 30.3678 41.612 30.3678 40.6484C30.3678 39.6797 30.1959 38.9479 29.8522 38.4531C29.5136 37.9531 29.0136 37.7031 28.3522 37.7031ZM36.3794 45H34.5434V36.3594H36.3794V45ZM34.4341 34.0703C34.4341 33.7422 34.5226 33.4896 34.6997 33.3125C34.882 33.1354 35.1398 33.0469 35.4731 33.0469C35.796 33.0469 36.046 33.1354 36.2231 33.3125C36.4054 33.4896 36.4966 33.7422 36.4966 34.0703C36.4966 34.3828 36.4054 34.6302 36.2231 34.8125C36.046 34.9896 35.796 35.0781 35.4731 35.0781C35.1398 35.0781 34.882 34.9896 34.6997 34.8125C34.5226 34.6302 34.4341 34.3828 34.4341 34.0703ZM41.0081 45H39.1722V32.8438H41.0081V45ZM50.3281 36.0391C50.3281 36.3672 50.4141 36.6771 50.5859 36.9688C50.763 37.2604 51.0078 37.5703 51.3203 37.8984C51.9089 37.5651 52.3203 37.2552 52.5547 36.9688C52.7943 36.6771 52.9141 36.3516 52.9141 35.9922C52.9141 35.6536 52.7995 35.3828 52.5703 35.1797C52.3464 34.9766 52.0469 34.875 51.6719 34.875C51.2604 34.875 50.9323 34.9818 50.6875 35.1953C50.4479 35.4036 50.3281 35.6849 50.3281 36.0391ZM51.4922 43.5781C52.4453 43.5781 53.2604 43.2995 53.9375 42.7422L50.9453 39.7969C50.3932 40.151 50.013 40.4844 49.8047 40.7969C49.5964 41.1042 49.4922 41.4557 49.4922 41.8516C49.4922 42.362 49.6719 42.7786 50.0312 43.1016C50.3958 43.4193 50.8828 43.5781 51.4922 43.5781ZM47.5547 41.9766C47.5547 41.2943 47.7214 40.7005 48.0547 40.1953C48.388 39.6849 48.9896 39.1797 49.8594 38.6797C49.3646 38.1016 49.026 37.6146 48.8438 37.2188C48.6667 36.8177 48.5781 36.4036 48.5781 35.9766C48.5781 35.1849 48.8594 34.5599 49.4219 34.1016C49.9896 33.6432 50.75 33.4141 51.7031 33.4141C52.625 33.4141 53.349 33.638 53.875 34.0859C54.401 34.5286 54.6641 35.1276 54.6641 35.8828C54.6641 36.4766 54.487 37.0156 54.1328 37.5C53.7839 37.9844 53.1979 38.4688 52.375 38.9531L55.0781 41.5625C55.5 41.0052 55.8516 40.1875 56.1328 39.1094H58.0234C57.6589 40.5885 57.0755 41.7943 56.2734 42.7266L58.625 45H56.2578L55.0938 43.8672C54.5625 44.2943 53.9948 44.6172 53.3906 44.8359C52.7917 45.0495 52.1276 45.1562 51.3984 45.1562C50.2005 45.1562 49.2604 44.8724 48.5781 44.3047C47.8958 43.737 47.5547 42.9609 47.5547 41.9766ZM67.8591 43.6875C68.6299 43.6875 69.182 43.4661 69.5153 43.0234C69.8539 42.5755 70.0231 41.901 70.0231 41V40.7109C70.0231 39.6432 69.8486 38.875 69.4997 38.4062C69.1559 37.9375 68.5986 37.7031 67.8278 37.7031C67.1716 37.7031 66.6716 37.9635 66.3278 38.4844C65.9841 39.0052 65.8122 39.7526 65.8122 40.7266C65.8122 42.7005 66.4945 43.6875 67.8591 43.6875ZM67.3356 45.1562C66.2679 45.1562 65.432 44.7656 64.8278 43.9844C64.2236 43.1979 63.9216 42.1016 63.9216 40.6953C63.9216 39.2891 64.2289 38.1901 64.8434 37.3984C65.458 36.6016 66.3044 36.2031 67.3825 36.2031C67.9242 36.2031 68.4085 36.3047 68.8356 36.5078C69.2679 36.7057 69.6533 37.0339 69.9919 37.4922H70.0544L70.2575 36.3594H71.7809V48.8438H69.9372V45.1797C69.9372 44.9505 69.9476 44.7083 69.9684 44.4531C69.9893 44.1979 70.0075 44.0026 70.0231 43.8672H69.9216C69.3799 44.7266 68.5179 45.1562 67.3356 45.1562ZM80.6597 45L80.4019 43.8672H80.3081C80.0529 44.2682 79.6883 44.5833 79.2144 44.8125C78.7456 45.0417 78.2092 45.1562 77.605 45.1562C76.5581 45.1562 75.7769 44.8958 75.2612 44.375C74.7456 43.8542 74.4878 43.0651 74.4878 42.0078V36.3594H76.3394V41.6875C76.3394 42.349 76.4748 42.8464 76.7456 43.1797C77.0165 43.5078 77.4409 43.6719 78.0191 43.6719C78.7899 43.6719 79.355 43.4427 79.7144 42.9844C80.079 42.5208 80.2612 41.7474 80.2612 40.6641V36.3594H82.105V45H80.6597ZM86.7181 45H84.8822V36.3594H86.7181V45ZM84.7728 34.0703C84.7728 33.7422 84.8614 33.4896 85.0384 33.3125C85.2207 33.1354 85.4785 33.0469 85.8119 33.0469C86.1348 33.0469 86.3848 33.1354 86.5619 33.3125C86.7442 33.4896 86.8353 33.7422 86.8353 34.0703C86.8353 34.3828 86.7442 34.6302 86.5619 34.8125C86.3848 34.9896 86.1348 35.0781 85.8119 35.0781C85.4785 35.0781 85.2207 34.9896 85.0384 34.8125C84.8614 34.6302 84.7728 34.3828 84.7728 34.0703ZM95.2844 45H88.7297V43.8672L93.0969 37.7656H88.9953V36.3594H95.1594V37.6406L90.8859 43.5938H95.2844V45Z" fill="white"/>
<path d="M134.546 45L131.234 35.4609H131.171C131.26 36.8776 131.304 38.2057 131.304 39.4453V45H129.609V33.5781H132.242L135.413 42.6641H135.46L138.726 33.5781H141.367V45H139.57V39.3516C139.57 38.7839 139.583 38.0443 139.609 37.1328C139.64 36.2214 139.666 35.6693 139.687 35.4766H139.624L136.195 45H134.546ZM149.745 45L149.378 43.7969H149.316C148.899 44.3229 148.48 44.6823 148.058 44.875C147.636 45.0625 147.094 45.1562 146.433 45.1562C145.584 45.1562 144.92 44.9271 144.441 44.4688C143.967 44.0104 143.73 43.362 143.73 42.5234C143.73 41.6328 144.06 40.9609 144.722 40.5078C145.383 40.0547 146.391 39.8073 147.745 39.7656L149.237 39.7188V39.2578C149.237 38.7057 149.107 38.2943 148.847 38.0234C148.592 37.7474 148.193 37.6094 147.652 37.6094C147.209 37.6094 146.784 37.6745 146.378 37.8047C145.972 37.9349 145.581 38.0885 145.206 38.2656L144.612 36.9531C145.081 36.7083 145.594 36.5234 146.152 36.3984C146.709 36.2682 147.235 36.2031 147.73 36.2031C148.829 36.2031 149.657 36.4427 150.214 36.9219C150.777 37.401 151.058 38.1536 151.058 39.1797V45H149.745ZM147.011 43.75C147.678 43.75 148.211 43.5651 148.612 43.1953C149.019 42.8203 149.222 42.2969 149.222 41.625V40.875L148.112 40.9219C147.248 40.9531 146.618 41.099 146.222 41.3594C145.831 41.6146 145.636 42.0078 145.636 42.5391C145.636 42.9245 145.751 43.224 145.98 43.4375C146.209 43.6458 146.553 43.75 147.011 43.75ZM149.597 33.5312C149.597 34.0625 149.425 34.4948 149.081 34.8281C148.743 35.1562 148.292 35.3203 147.73 35.3203C147.167 35.3203 146.719 35.1589 146.386 34.8359C146.053 34.5078 145.886 34.0781 145.886 33.5469C145.886 33.0208 146.05 32.5964 146.378 32.2734C146.711 31.9453 147.162 31.7812 147.73 31.7812C148.271 31.7812 148.717 31.9427 149.066 32.2656C149.42 32.5885 149.597 33.0104 149.597 33.5312ZM148.558 33.5469C148.558 33.2865 148.48 33.0833 148.323 32.9375C148.167 32.7865 147.969 32.7109 147.73 32.7109C147.485 32.7109 147.284 32.7865 147.128 32.9375C146.972 33.0833 146.894 33.2865 146.894 33.5469C146.894 34.099 147.172 34.375 147.73 34.375C147.969 34.375 148.167 34.3047 148.323 34.1641C148.48 34.0182 148.558 33.8125 148.558 33.5469ZM161.382 45H159.538V39.6875C159.538 39.0208 159.403 38.5234 159.132 38.1953C158.866 37.8672 158.442 37.7031 157.858 37.7031C157.082 37.7031 156.515 37.9323 156.155 38.3906C155.796 38.849 155.616 39.6172 155.616 40.6953V45H153.78V36.3594H155.218L155.476 37.4922H155.569C155.83 37.0807 156.2 36.763 156.679 36.5391C157.158 36.3151 157.689 36.2031 158.272 36.2031C160.345 36.2031 161.382 37.2578 161.382 39.3672V45ZM167.87 45.1562C166.526 45.1562 165.474 44.7656 164.714 43.9844C163.959 43.1979 163.581 42.1172 163.581 40.7422C163.581 39.3307 163.932 38.2214 164.636 37.4141C165.339 36.6068 166.305 36.2031 167.534 36.2031C168.675 36.2031 169.576 36.5495 170.237 37.2422C170.899 37.9349 171.229 38.888 171.229 40.1016V41.0938H165.472C165.498 41.9323 165.724 42.5781 166.151 43.0312C166.578 43.4792 167.18 43.7031 167.956 43.7031C168.466 43.7031 168.94 43.6562 169.378 43.5625C169.821 43.4635 170.294 43.3021 170.8 43.0781V44.5703C170.352 44.7839 169.899 44.9349 169.44 45.0234C168.982 45.112 168.459 45.1562 167.87 45.1562ZM167.534 37.5938C166.951 37.5938 166.482 37.7786 166.128 38.1484C165.779 38.5182 165.571 39.0573 165.503 39.7656H169.425C169.414 39.0521 169.242 38.513 168.909 38.1484C168.576 37.7786 168.117 37.5938 167.534 37.5938ZM176.389 45.1562C175.311 45.1562 174.47 44.7656 173.866 43.9844C173.262 43.2031 172.96 42.1068 172.96 40.6953C172.96 39.2786 173.264 38.1771 173.874 37.3906C174.488 36.599 175.337 36.2031 176.421 36.2031C177.556 36.2031 178.421 36.6224 179.014 37.4609H179.108C179.02 36.8411 178.975 36.3516 178.975 35.9922V32.8438H180.819V45H179.382L179.061 43.8672H178.975C178.387 44.7266 177.525 45.1562 176.389 45.1562ZM176.882 43.6719C177.637 43.6719 178.186 43.4609 178.53 43.0391C178.874 42.612 179.051 41.9219 179.061 40.9688V40.7109C179.061 39.6224 178.884 38.849 178.53 38.3906C178.176 37.9323 177.621 37.7031 176.866 37.7031C176.22 37.7031 175.723 37.9661 175.374 38.4922C175.025 39.013 174.85 39.7578 174.85 40.7266C174.85 41.6849 175.02 42.4167 175.358 42.9219C175.697 43.4219 176.204 43.6719 176.882 43.6719ZM189.409 42.5391C189.409 43.3828 189.101 44.0312 188.487 44.4844C187.872 44.9323 186.992 45.1562 185.846 45.1562C184.695 45.1562 183.771 44.9818 183.073 44.6328V43.0469C184.088 43.5156 185.034 43.75 185.909 43.75C187.039 43.75 187.604 43.4089 187.604 42.7266C187.604 42.5078 187.542 42.3255 187.417 42.1797C187.292 42.0339 187.086 41.8828 186.799 41.7266C186.513 41.5703 186.114 41.3932 185.604 41.1953C184.609 40.8099 183.935 40.4245 183.581 40.0391C183.232 39.6536 183.057 39.1536 183.057 38.5391C183.057 37.7995 183.354 37.2266 183.948 36.8203C184.547 36.4089 185.359 36.2031 186.385 36.2031C187.401 36.2031 188.362 36.4089 189.268 36.8203L188.674 38.2031C187.742 37.8177 186.958 37.625 186.323 37.625C185.354 37.625 184.87 37.901 184.87 38.4531C184.87 38.724 184.995 38.9531 185.245 39.1406C185.5 39.3281 186.052 39.5859 186.901 39.9141C187.614 40.1901 188.133 40.4427 188.456 40.6719C188.779 40.901 189.018 41.1667 189.174 41.4688C189.331 41.7656 189.409 42.1224 189.409 42.5391ZM193.334 40.4375L194.373 39.1406L196.983 36.3594H199.1L195.623 40.0703L199.319 45H197.162L194.389 41.2109L193.381 42.0391V45H191.561V32.8438H193.381V38.7734L193.287 40.4375H193.334ZM208.541 40.6641C208.541 42.0755 208.179 43.1771 207.455 43.9688C206.731 44.7604 205.724 45.1562 204.432 45.1562C203.625 45.1562 202.911 44.974 202.291 44.6094C201.671 44.2448 201.195 43.7214 200.862 43.0391C200.528 42.3568 200.362 41.5651 200.362 40.6641C200.362 39.263 200.721 38.1693 201.44 37.3828C202.158 36.5964 203.171 36.2031 204.479 36.2031C205.729 36.2031 206.718 36.6068 207.448 37.4141C208.177 38.2161 208.541 39.2995 208.541 40.6641ZM202.252 40.6641C202.252 42.6589 202.989 43.6562 204.463 43.6562C205.921 43.6562 206.651 42.6589 206.651 40.6641C206.651 38.6901 205.916 37.7031 204.448 37.7031C203.677 37.7031 203.117 37.9583 202.768 38.4688C202.424 38.9792 202.252 39.7109 202.252 40.6641ZM218.42 45H216.576V39.6875C216.576 39.0208 216.441 38.5234 216.17 38.1953C215.904 37.8672 215.48 37.7031 214.897 37.7031C214.121 37.7031 213.553 37.9323 213.193 38.3906C212.834 38.849 212.654 39.6172 212.654 40.6953V45H210.818V36.3594H212.256L212.514 37.4922H212.607C212.868 37.0807 213.238 36.763 213.717 36.5391C214.196 36.3151 214.727 36.2031 215.311 36.2031C217.384 36.2031 218.42 37.2578 218.42 39.3672V45ZM222.908 40.4375L223.947 39.1406L226.557 36.3594H228.674L225.197 40.0703L228.893 45H226.736L223.963 41.2109L222.955 42.0391V45H221.135V32.8438H222.955V38.7734L222.861 40.4375H222.908ZM236.545 45L236.287 43.8672H236.193C235.938 44.2682 235.573 44.5833 235.099 44.8125C234.631 45.0417 234.094 45.1562 233.49 45.1562C232.443 45.1562 231.662 44.8958 231.146 44.375C230.631 43.8542 230.373 43.0651 230.373 42.0078V36.3594H232.224V41.6875C232.224 42.349 232.36 42.8464 232.631 43.1797C232.901 43.5078 233.326 43.6719 233.904 43.6719C234.675 43.6719 235.24 43.4427 235.599 42.9844C235.964 42.5208 236.146 41.7474 236.146 40.6641V36.3594H237.99V45H236.545ZM245.15 36.2031C245.52 36.2031 245.824 36.2292 246.064 36.2812L245.884 37.9922C245.624 37.9297 245.353 37.8984 245.072 37.8984C244.338 37.8984 243.741 38.138 243.283 38.6172C242.83 39.0964 242.603 39.7188 242.603 40.4844V45H240.767V36.3594H242.205L242.447 37.8828H242.541C242.827 37.3672 243.199 36.9583 243.658 36.6562C244.121 36.3542 244.619 36.2031 245.15 36.2031ZM252.216 36.2031C252.586 36.2031 252.891 36.2292 253.13 36.2812L252.951 37.9922C252.69 37.9297 252.419 37.8984 252.138 37.8984C251.404 37.8984 250.807 38.138 250.349 38.6172C249.896 39.0964 249.669 39.7188 249.669 40.4844V45H247.833V36.3594H249.271L249.513 37.8828H249.607C249.893 37.3672 250.266 36.9583 250.724 36.6562C251.188 36.3542 251.685 36.2031 252.216 36.2031ZM258.673 45.1562C257.329 45.1562 256.277 44.7656 255.517 43.9844C254.762 43.1979 254.384 42.1172 254.384 40.7422C254.384 39.3307 254.736 38.2214 255.439 37.4141C256.142 36.6068 257.108 36.2031 258.337 36.2031C259.478 36.2031 260.379 36.5495 261.04 37.2422C261.702 37.9349 262.033 38.888 262.033 40.1016V41.0938H256.275C256.301 41.9323 256.527 42.5781 256.954 43.0312C257.381 43.4792 257.983 43.7031 258.759 43.7031C259.269 43.7031 259.743 43.6562 260.181 43.5625C260.624 43.4635 261.098 43.3021 261.603 43.0781V44.5703C261.155 44.7839 260.702 44.9349 260.243 45.0234C259.785 45.112 259.262 45.1562 258.673 45.1562ZM258.337 37.5938C257.754 37.5938 257.285 37.7786 256.931 38.1484C256.582 38.5182 256.374 39.0573 256.306 39.7656H260.228C260.217 39.0521 260.046 38.513 259.712 38.1484C259.379 37.7786 258.921 37.5938 258.337 37.5938ZM271.88 45H270.036V39.6875C270.036 39.0208 269.901 38.5234 269.63 38.1953C269.364 37.8672 268.94 37.7031 268.357 37.7031C267.581 37.7031 267.013 37.9323 266.653 38.3906C266.294 38.849 266.114 39.6172 266.114 40.6953V45H264.278V36.3594H265.716L265.974 37.4922H266.068C266.328 37.0807 266.698 36.763 267.177 36.5391C267.656 36.3151 268.187 36.2031 268.771 36.2031C270.844 36.2031 271.88 37.2578 271.88 39.3672V45ZM278.079 45.1562C276.772 45.1562 275.777 44.776 275.095 44.0156C274.418 43.25 274.079 42.1536 274.079 40.7266C274.079 39.2734 274.433 38.1562 275.142 37.375C275.855 36.5938 276.884 36.2031 278.227 36.2031C279.139 36.2031 279.959 36.3724 280.688 36.7109L280.134 38.1875C279.358 37.8854 278.717 37.7344 278.212 37.7344C276.717 37.7344 275.97 38.7266 275.97 40.7109C275.97 41.6797 276.155 42.4089 276.524 42.8984C276.899 43.3828 277.446 43.625 278.165 43.625C278.983 43.625 279.756 43.4219 280.485 43.0156V44.6172C280.157 44.8099 279.806 44.9479 279.431 45.0312C279.061 45.1146 278.61 45.1562 278.079 45.1562ZM286.45 45.1562C285.106 45.1562 284.054 44.7656 283.294 43.9844C282.539 43.1979 282.161 42.1172 282.161 40.7422C282.161 39.3307 282.512 38.2214 283.216 37.4141C283.919 36.6068 284.885 36.2031 286.114 36.2031C287.255 36.2031 288.156 36.5495 288.817 37.2422C289.479 37.9349 289.809 38.888 289.809 40.1016V41.0938H284.052C284.078 41.9323 284.304 42.5781 284.731 43.0312C285.158 43.4792 285.76 43.7031 286.536 43.7031C287.046 43.7031 287.52 43.6562 287.958 43.5625C288.401 43.4635 288.874 43.3021 289.38 43.0781V44.5703C288.932 44.7839 288.479 44.9349 288.02 45.0234C287.562 45.112 287.039 45.1562 286.45 45.1562ZM286.114 37.5938C285.531 37.5938 285.062 37.7786 284.708 38.1484C284.359 38.5182 284.151 39.0573 284.083 39.7656H288.005C287.994 39.0521 287.822 38.513 287.489 38.1484C287.156 37.7786 286.697 37.5938 286.114 37.5938ZM299.657 45H297.813V39.6875C297.813 39.0208 297.678 38.5234 297.407 38.1953C297.141 37.8672 296.717 37.7031 296.133 37.7031C295.357 37.7031 294.79 37.9323 294.43 38.3906C294.071 38.849 293.891 39.6172 293.891 40.6953V45H292.055V36.3594H293.493L293.751 37.4922H293.844C294.105 37.0807 294.475 36.763 294.954 36.5391C295.433 36.3151 295.964 36.2031 296.548 36.2031C298.62 36.2031 299.657 37.2578 299.657 39.3672V45Z" fill="white"/>
<path d="M339.667 45L336.378 35.4609H336.307C336.323 35.6745 336.341 35.9661 336.362 36.3359C336.383 36.7057 336.401 37.1016 336.417 37.5234C336.432 37.9453 336.44 38.349 336.44 38.7344V45H334.737V33.5781H337.37L340.534 42.6953H340.581L343.854 33.5781H346.479V45H344.69V38.6406C344.69 38.2917 344.696 37.9141 344.706 37.5078C344.722 37.1016 344.737 36.7161 344.753 36.3516C344.774 35.987 344.789 35.6953 344.8 35.4766H344.737L341.323 45H339.667ZM351.296 36.3516V45H349.46V36.3516H351.296ZM350.389 33.0391C350.671 33.0391 350.913 33.1146 351.116 33.2656C351.324 33.4167 351.428 33.6771 351.428 34.0469C351.428 34.4115 351.324 34.6719 351.116 34.8281C350.913 34.9792 350.671 35.0547 350.389 35.0547C350.098 35.0547 349.85 34.9792 349.647 34.8281C349.449 34.6719 349.35 34.4115 349.35 34.0469C349.35 33.6771 349.449 33.4167 349.647 33.2656C349.85 33.1146 350.098 33.0391 350.389 33.0391ZM355.932 45H354.088V32.8438H355.932V45ZM360.561 45H358.717V32.8438H360.561V45ZM365.182 36.3516V45H363.346V36.3516H365.182ZM364.276 33.0391C364.557 33.0391 364.799 33.1146 365.002 33.2656C365.211 33.4167 365.315 33.6771 365.315 34.0469C365.315 34.4115 365.211 34.6719 365.002 34.8281C364.799 34.9792 364.557 35.0547 364.276 35.0547C363.984 35.0547 363.737 34.9792 363.533 34.8281C363.336 34.6719 363.237 34.4115 363.237 34.0469C363.237 33.6771 363.336 33.4167 363.533 33.2656C363.737 33.1146 363.984 33.0391 364.276 33.0391ZM375.631 40.6562C375.631 41.375 375.537 42.013 375.35 42.5703C375.162 43.1276 374.889 43.599 374.529 43.9844C374.17 44.3646 373.738 44.6562 373.232 44.8594C372.727 45.0573 372.157 45.1562 371.522 45.1562C370.928 45.1562 370.384 45.0573 369.889 44.8594C369.394 44.6562 368.964 44.3646 368.6 43.9844C368.24 43.599 367.962 43.1276 367.764 42.5703C367.566 42.013 367.467 41.375 367.467 40.6562C367.467 39.7031 367.631 38.8958 367.959 38.2344C368.292 37.5677 368.766 37.0599 369.381 36.7109C369.996 36.362 370.727 36.1875 371.576 36.1875C372.373 36.1875 373.076 36.362 373.686 36.7109C374.295 37.0599 374.772 37.5677 375.115 38.2344C375.459 38.901 375.631 39.7083 375.631 40.6562ZM369.357 40.6562C369.357 41.2865 369.433 41.8255 369.584 42.2734C369.74 42.7214 369.98 43.0651 370.303 43.3047C370.626 43.5391 371.042 43.6562 371.553 43.6562C372.063 43.6562 372.48 43.5391 372.803 43.3047C373.126 43.0651 373.363 42.7214 373.514 42.2734C373.665 41.8255 373.74 41.2865 373.74 40.6562C373.74 40.026 373.665 39.4922 373.514 39.0547C373.363 38.612 373.126 38.276 372.803 38.0469C372.48 37.8125 372.061 37.6953 371.545 37.6953C370.785 37.6953 370.23 37.9505 369.881 38.4609C369.532 38.9714 369.357 39.7031 369.357 40.6562ZM382.408 36.1875C383.382 36.1875 384.14 36.4401 384.682 36.9453C385.228 37.4453 385.502 38.25 385.502 39.3594V45H383.666V39.7031C383.666 39.0312 383.528 38.5286 383.252 38.1953C382.976 37.8568 382.549 37.6875 381.971 37.6875C381.132 37.6875 380.549 37.9453 380.221 38.4609C379.898 38.9766 379.736 39.724 379.736 40.7031V45H377.9V36.3516H379.33L379.588 37.5234H379.689C379.877 37.2214 380.109 36.974 380.385 36.7812C380.666 36.5833 380.978 36.4349 381.322 36.3359C381.671 36.237 382.033 36.1875 382.408 36.1875ZM396.873 36.1875C397.586 36.1875 398.206 36.3464 398.732 36.6641C399.263 36.9818 399.675 37.4323 399.967 38.0156C400.258 38.599 400.401 39.2917 400.396 40.0938V41.0859H394.802C394.829 41.9453 395.042 42.599 395.443 43.0469C395.849 43.4896 396.425 43.7109 397.17 43.7109C397.691 43.7109 398.172 43.6589 398.615 43.5547C399.058 43.4453 399.506 43.2865 399.959 43.0781V44.5703C399.526 44.7734 399.089 44.9219 398.646 45.0156C398.209 45.1094 397.688 45.1562 397.084 45.1562C396.594 45.1562 396.141 45.0911 395.724 44.9609C395.308 44.8307 394.933 44.638 394.599 44.3828C394.271 44.1224 393.993 43.7995 393.763 43.4141C393.487 43.7891 393.198 44.1068 392.896 44.3672C392.599 44.6276 392.248 44.8255 391.842 44.9609C391.441 45.0911 390.951 45.1562 390.373 45.1562C389.862 45.1562 389.399 45.0625 388.982 44.875C388.566 44.6823 388.235 44.3906 387.99 44C387.745 43.6094 387.623 43.1146 387.623 42.5156C387.623 41.9219 387.766 41.4271 388.052 41.0312C388.339 40.6354 388.766 40.3333 389.334 40.125C389.907 39.9167 390.618 39.7969 391.467 39.7656L392.943 39.7109V39.1094C392.943 38.5677 392.802 38.1797 392.521 37.9453C392.24 37.7109 391.86 37.5938 391.381 37.5938C390.959 37.5938 390.547 37.6536 390.146 37.7734C389.75 37.8932 389.362 38.0443 388.982 38.2266L388.396 36.9453C388.818 36.7214 389.3 36.5391 389.842 36.3984C390.383 36.2578 390.935 36.1875 391.498 36.1875C392.128 36.1875 392.662 36.2891 393.099 36.4922C393.537 36.6953 393.883 37.013 394.138 37.4453C394.446 37.0391 394.826 36.7292 395.279 36.5156C395.732 36.2969 396.263 36.1875 396.873 36.1875ZM392.927 40.8672L391.873 40.9062C391.008 40.9375 390.399 41.0938 390.045 41.375C389.696 41.6562 389.521 42.0417 389.521 42.5312C389.521 42.9583 389.641 43.2708 389.881 43.4688C390.125 43.6615 390.448 43.7578 390.849 43.7578C391.25 43.7578 391.607 43.6771 391.92 43.5156C392.232 43.3542 392.477 43.1146 392.654 42.7969C392.836 42.4792 392.927 42.0859 392.927 41.6172V40.8672ZM396.842 37.5703C396.263 37.5703 395.797 37.7552 395.443 38.125C395.094 38.4896 394.894 39.0417 394.842 39.7812H398.592C398.592 39.3438 398.526 38.9609 398.396 38.6328C398.266 38.2995 398.071 38.0391 397.81 37.8516C397.555 37.6641 397.232 37.5703 396.842 37.5703ZM407.009 36.1875C407.155 36.1875 407.314 36.1953 407.486 36.2109C407.658 36.2266 407.806 36.2474 407.931 36.2734L407.759 37.9922C407.65 37.9609 407.515 37.9375 407.353 37.9219C407.197 37.9062 407.056 37.8984 406.931 37.8984C406.603 37.8984 406.291 37.9531 405.994 38.0625C405.697 38.1667 405.434 38.3281 405.205 38.5469C404.976 38.7604 404.796 39.0286 404.666 39.3516C404.535 39.6745 404.47 40.0495 404.47 40.4766V45H402.627V36.3516H404.064L404.314 37.875H404.4C404.572 37.5677 404.785 37.2865 405.041 37.0312C405.296 36.776 405.587 36.5729 405.916 36.4219C406.249 36.2656 406.614 36.1875 407.009 36.1875ZM414.201 36.1875C415.175 36.1875 415.932 36.4401 416.474 36.9453C417.021 37.4453 417.294 38.25 417.294 39.3594V45H415.458V39.7031C415.458 39.0312 415.32 38.5286 415.044 38.1953C414.768 37.8568 414.341 37.6875 413.763 37.6875C412.925 37.6875 412.341 37.9453 412.013 38.4609C411.69 38.9766 411.529 39.724 411.529 40.7031V45H409.693V36.3516H411.122L411.38 37.5234H411.482C411.669 37.2214 411.901 36.974 412.177 36.7812C412.458 36.5833 412.771 36.4349 413.115 36.3359C413.464 36.237 413.826 36.1875 414.201 36.1875ZM418.72 36.3516H420.72L422.493 41.2891C422.572 41.513 422.642 41.7344 422.704 41.9531C422.772 42.1667 422.829 42.3776 422.876 42.5859C422.928 42.7943 422.97 43.0026 423.001 43.2109H423.048C423.1 42.9401 423.173 42.638 423.267 42.3047C423.366 41.9661 423.475 41.6276 423.595 41.2891L425.298 36.3516H427.275L423.564 46.1875C423.35 46.75 423.087 47.2292 422.775 47.625C422.467 48.026 422.103 48.3281 421.681 48.5312C421.259 48.7396 420.777 48.8438 420.236 48.8438C419.975 48.8438 419.749 48.8281 419.556 48.7969C419.363 48.7708 419.199 48.7422 419.064 48.7109V47.2422C419.173 47.2682 419.311 47.2917 419.478 47.3125C419.644 47.3333 419.816 47.3438 419.993 47.3438C420.322 47.3438 420.605 47.2786 420.845 47.1484C421.085 47.0182 421.288 46.8333 421.454 46.5938C421.621 46.3594 421.759 46.0911 421.868 45.7891L422.173 44.9766L418.72 36.3516ZM431.966 43.6719C432.206 43.6719 432.443 43.651 432.677 43.6094C432.911 43.5625 433.125 43.5078 433.318 43.4453V44.8359C433.114 44.9245 432.851 45 432.528 45.0625C432.206 45.125 431.87 45.1562 431.521 45.1562C431.031 45.1562 430.591 45.0755 430.2 44.9141C429.81 44.7474 429.5 44.4635 429.271 44.0625C429.041 43.6615 428.927 43.1068 428.927 42.3984V37.75H427.747V36.9297L429.013 36.2812L429.614 34.4297H430.771V36.3516H433.247V37.75H430.771V42.375C430.771 42.8125 430.88 43.138 431.099 43.3516C431.318 43.5651 431.607 43.6719 431.966 43.6719Z" fill="white"/>
<path d="M477.057 39.1797C477.057 41.0651 476.534 42.5078 475.487 43.5078C474.44 44.5026 472.932 45 470.964 45H467.768V33.5781H471.3C473.117 33.5781 474.531 34.0677 475.542 35.0469C476.552 36.026 477.057 37.4036 477.057 39.1797ZM475.089 39.2422C475.089 36.5078 473.81 35.1406 471.253 35.1406H469.636V43.4297H470.964C473.714 43.4297 475.089 42.0339 475.089 39.2422ZM481.319 45H479.483V36.3594H481.319V45ZM479.374 34.0703C479.374 33.7422 479.462 33.4896 479.639 33.3125C479.822 33.1354 480.079 33.0469 480.413 33.0469C480.736 33.0469 480.986 33.1354 481.163 33.3125C481.345 33.4896 481.436 33.7422 481.436 34.0703C481.436 34.3828 481.345 34.6302 481.163 34.8125C480.986 34.9896 480.736 35.0781 480.413 35.0781C480.079 35.0781 479.822 34.9896 479.639 34.8125C479.462 34.6302 479.374 34.3828 479.374 34.0703ZM491.713 45H489.87V39.6875C489.87 39.0208 489.734 38.5234 489.463 38.1953C489.198 37.8672 488.773 37.7031 488.19 37.7031C487.414 37.7031 486.846 37.9323 486.487 38.3906C486.127 38.849 485.948 39.6172 485.948 40.6953V45H484.112V36.3594H485.549L485.807 37.4922H485.901C486.161 37.0807 486.531 36.763 487.01 36.5391C487.489 36.3151 488.021 36.2031 488.604 36.2031C490.677 36.2031 491.713 37.2578 491.713 39.3672V45ZM498.202 45.1562C496.858 45.1562 495.806 44.7656 495.045 43.9844C494.29 43.1979 493.912 42.1172 493.912 40.7422C493.912 39.3307 494.264 38.2214 494.967 37.4141C495.67 36.6068 496.636 36.2031 497.866 36.2031C499.006 36.2031 499.907 36.5495 500.569 37.2422C501.23 37.9349 501.561 38.888 501.561 40.1016V41.0938H495.803C495.829 41.9323 496.056 42.5781 496.483 43.0312C496.91 43.4792 497.511 43.7031 498.287 43.7031C498.798 43.7031 499.272 43.6562 499.709 43.5625C500.152 43.4635 500.626 43.3021 501.131 43.0781V44.5703C500.683 44.7839 500.23 44.9349 499.772 45.0234C499.314 45.112 498.79 45.1562 498.202 45.1562ZM497.866 37.5938C497.282 37.5938 496.814 37.7786 496.459 38.1484C496.11 38.5182 495.902 39.0573 495.834 39.7656H499.756C499.746 39.0521 499.574 38.513 499.241 38.1484C498.907 37.7786 498.449 37.5938 497.866 37.5938ZM512.506 45.1562C511.412 45.1562 510.563 44.763 509.959 43.9766H509.85C509.923 44.7057 509.959 45.1484 509.959 45.3047V48.8438H508.123V36.3594H509.607C509.649 36.5208 509.735 36.9062 509.865 37.5156H509.959C510.532 36.6406 511.391 36.2031 512.537 36.2031C513.615 36.2031 514.454 36.5938 515.053 37.375C515.657 38.1562 515.959 39.2526 515.959 40.6641C515.959 42.0755 515.652 43.1771 515.037 43.9688C514.428 44.7604 513.584 45.1562 512.506 45.1562ZM512.061 37.7031C511.331 37.7031 510.798 37.9167 510.459 38.3438C510.126 38.7708 509.959 39.4531 509.959 40.3906V40.6641C509.959 41.7161 510.126 42.4792 510.459 42.9531C510.792 43.4219 511.337 43.6562 512.092 43.6562C512.727 43.6562 513.217 43.3958 513.561 42.875C513.904 42.3542 514.076 41.612 514.076 40.6484C514.076 39.6797 513.904 38.9479 513.561 38.4531C513.222 37.9531 512.722 37.7031 512.061 37.7031ZM522.635 36.2031C523.004 36.2031 523.309 36.2292 523.549 36.2812L523.369 37.9922C523.109 37.9297 522.838 37.8984 522.557 37.8984C521.822 37.8984 521.226 38.138 520.767 38.6172C520.314 39.0964 520.088 39.7188 520.088 40.4844V45H518.252V36.3594H519.689L519.932 37.8828H520.025C520.312 37.3672 520.684 36.9583 521.142 36.6562C521.606 36.3542 522.103 36.2031 522.635 36.2031ZM524.709 42.5234C524.709 41.6276 525.024 40.9557 525.654 40.5078C526.289 40.0547 527.256 39.8073 528.552 39.7656L530.021 39.7188V39.125C530.021 38.1146 529.498 37.6094 528.451 37.6094C527.717 37.6094 526.917 37.8229 526.052 38.25L525.474 36.9531C525.933 36.7083 526.433 36.5234 526.974 36.3984C527.521 36.2682 528.052 36.2031 528.568 36.2031C529.823 36.2031 530.709 36.6068 531.224 37.4141C531.849 36.6068 532.75 36.2031 533.927 36.2031C535 36.2031 535.855 36.5547 536.49 37.2578C537.125 37.9557 537.443 38.8984 537.443 40.0859V41.0781H531.881C531.933 42.8281 532.717 43.7031 534.232 43.7031C535.191 43.7031 536.118 43.4948 537.013 43.0781V44.5703C536.566 44.7839 536.118 44.9349 535.67 45.0234C535.227 45.112 534.719 45.1562 534.146 45.1562C533.417 45.1562 532.769 45.0156 532.201 44.7344C531.638 44.4479 531.183 44.0182 530.834 43.4453C530.344 44.0964 529.847 44.5443 529.342 44.7891C528.842 45.0339 528.214 45.1562 527.459 45.1562C526.599 45.1562 525.925 44.9219 525.435 44.4531C524.951 43.9844 524.709 43.3411 524.709 42.5234ZM526.615 42.5391C526.615 43.3464 527.047 43.75 527.912 43.75C528.558 43.75 529.068 43.5625 529.443 43.1875C529.818 42.8073 530.006 42.2865 530.006 41.625V40.875L528.951 40.9219C528.144 40.9531 527.552 41.0964 527.177 41.3516C526.802 41.6016 526.615 41.9974 526.615 42.5391ZM533.896 37.5938C533.313 37.5938 532.849 37.776 532.506 38.1406C532.167 38.5 531.974 39.0417 531.927 39.7656H535.623C535.623 39.0885 535.469 38.5573 535.162 38.1719C534.86 37.7865 534.438 37.5938 533.896 37.5938ZM546.962 45H545.119V39.6719C545.119 39.0104 544.994 38.5182 544.744 38.1953C544.494 37.8672 544.103 37.7031 543.572 37.7031C542.864 37.7031 542.343 37.9349 542.009 38.3984C541.681 38.8568 541.517 39.6224 541.517 40.6953V45H539.681V36.3594H541.119L541.377 37.4922H541.47C541.71 37.0807 542.056 36.763 542.509 36.5391C542.968 36.3151 543.47 36.2031 544.017 36.2031C545.345 36.2031 546.226 36.6562 546.658 37.5625H546.783C547.038 37.1354 547.397 36.8021 547.861 36.5625C548.324 36.3229 548.856 36.2031 549.455 36.2031C550.486 36.2031 551.236 36.4635 551.705 36.9844C552.179 37.5052 552.416 38.2995 552.416 39.3672V45H550.58V39.6719C550.58 39.0104 550.452 38.5182 550.197 38.1953C549.947 37.8672 549.556 37.7031 549.025 37.7031C548.311 37.7031 547.788 37.9271 547.455 38.375C547.127 38.8177 546.962 39.5 546.962 40.4219V45ZM556.974 45H555.138V36.3594H556.974V45ZM555.029 34.0703C555.029 33.7422 555.117 33.4896 555.294 33.3125C555.477 33.1354 555.734 33.0469 556.068 33.0469C556.391 33.0469 556.641 33.1354 556.818 33.3125C557 33.4896 557.091 33.7422 557.091 34.0703C557.091 34.3828 557 34.6302 556.818 34.8125C556.641 34.9896 556.391 35.0781 556.068 35.0781C555.734 35.0781 555.477 34.9896 555.294 34.8125C555.117 34.6302 555.029 34.3828 555.029 34.0703ZM563.54 45.1562C562.197 45.1562 561.144 44.7656 560.384 43.9844C559.629 43.1979 559.251 42.1172 559.251 40.7422C559.251 39.3307 559.603 38.2214 560.306 37.4141C561.009 36.6068 561.975 36.2031 563.204 36.2031C564.345 36.2031 565.246 36.5495 565.908 37.2422C566.569 37.9349 566.9 38.888 566.9 40.1016V41.0938H561.142C561.168 41.9323 561.394 42.5781 561.822 43.0312C562.249 43.4792 562.85 43.7031 563.626 43.7031C564.137 43.7031 564.611 43.6562 565.048 43.5625C565.491 43.4635 565.965 43.3021 566.47 43.0781V44.5703C566.022 44.7839 565.569 44.9349 565.111 45.0234C564.652 45.112 564.129 45.1562 563.54 45.1562ZM563.204 37.5938C562.621 37.5938 562.152 37.7786 561.798 38.1484C561.449 38.5182 561.241 39.0573 561.173 39.7656H565.095C565.085 39.0521 564.913 38.513 564.579 38.1484C564.246 37.7786 563.788 37.5938 563.204 37.5938ZM573.528 36.2031C573.898 36.2031 574.203 36.2292 574.443 36.2812L574.263 37.9922C574.002 37.9297 573.732 37.8984 573.45 37.8984C572.716 37.8984 572.12 38.138 571.661 38.6172C571.208 39.0964 570.982 39.7188 570.982 40.4844V45H569.146V36.3594H570.583L570.825 37.8828H570.919C571.206 37.3672 571.578 36.9583 572.036 36.6562C572.5 36.3542 572.997 36.2031 573.528 36.2031Z" fill="white"/>
</svg>
